<svg width="567" height="442" viewBox="0 0 567 442" fill="none" xmlns="http://www.w3.org/2000/svg">
<g clip-path="url(#clip0_3_662)">
<path d="M444.938 164.418C421.092 70.5558 338.696 2.80033 241.982 0.0827121C190.852 -1.35402 137.048 15.6206 97.8758 75.0211C27.8504 181.206 102.179 254.583 153.999 289.45C179.034 306.329 201.592 326.625 221.02 349.749C256.023 391.327 323.36 442.994 403.556 362.04C461.682 303.365 460.822 226.94 444.938 164.418Z" fill="#F2F2F2"/>
<path d="M567 185.318C567 209.679 547.272 248.559 522.935 248.559C498.599 248.559 478.871 209.679 478.871 185.318C478.871 173.62 483.513 162.4 491.777 154.128C500.041 145.856 511.249 141.209 522.935 141.209C534.622 141.209 545.83 145.856 554.094 154.128C562.358 162.4 567 173.62 567 185.318Z" fill="#FF6584"/>
<path d="M524.567 250.127C519.03 252.036 517.704 259.595 519.609 265.138C521.514 270.682 525.548 275.28 527.577 280.78C528.504 283.553 529.168 286.407 529.563 289.304C530.723 296.203 531.886 303.223 530.992 310.161C530.145 316.742 527.481 322.947 524.509 328.879C518.753 340.365 511.752 351.181 503.632 361.133" stroke="#2F2E41" stroke-width="2"/>
<path d="M527.183 252.81C524.351 250.991 521.52 250.991 518.688 252.81V244.307H527.183V252.81Z" fill="#FF6584"/>
<path d="M518.71 248.378C520.03 249.047 521.49 249.393 522.969 249.387C524.449 249.381 525.906 249.023 527.22 248.344" stroke="#2F2E41" stroke-width="2"/>
<path opacity="0.4" d="M541.251 177.878C546.383 177.878 550.542 172.881 550.542 166.718C550.542 160.554 546.383 155.558 541.251 155.558C536.12 155.558 531.961 160.554 531.961 166.718C531.961 172.881 536.12 177.878 541.251 177.878Z" fill="white"/>
<path d="M0 178.409C0 202.77 19.7284 241.65 44.0646 241.65C68.4008 241.65 88.1292 202.77 88.1292 178.409C88.1292 166.711 83.4867 155.492 75.223 147.22C66.9593 138.948 55.7513 134.301 44.0646 134.301C32.3779 134.301 21.1699 138.948 12.9062 147.22C4.64251 155.492 0 166.711 0 178.409Z" fill="#FF6584"/>
<path d="M42.4326 243.218C47.9702 245.127 49.2959 252.686 47.3912 258.23C45.4865 263.773 41.4524 268.372 39.4226 273.871C38.4965 276.644 37.8316 279.498 37.4368 282.396C36.2772 289.294 35.1145 296.314 36.0079 303.252C36.8555 309.834 39.5193 316.039 42.4911 321.971C48.2467 333.456 55.2477 344.272 63.3676 354.224" stroke="#2F2E41" stroke-width="2"/>
<path d="M39.8174 245.901C42.6488 244.082 45.4803 244.082 48.3118 245.901V237.398H39.8174V245.901Z" fill="#FF6584"/>
<path d="M48.2896 241.47C46.9697 242.139 45.51 242.484 44.0306 242.478C42.5512 242.472 41.0944 242.115 39.78 241.435" stroke="#2F2E41" stroke-width="2"/>
<path opacity="0.4" d="M25.7486 170.969C30.8797 170.969 35.0393 165.973 35.0393 159.809C35.0393 153.646 30.8797 148.649 25.7486 148.649C20.6175 148.649 16.4579 153.646 16.4579 159.809C16.4579 165.973 20.6175 170.969 25.7486 170.969Z" fill="white"/>
<path d="M535.146 372.382C535.146 397.477 417.251 442 271.82 442C126.389 442 22.2977 351.774 22.2977 326.679C22.2977 301.585 126.389 351.125 271.82 351.125C417.251 351.125 535.146 347.288 535.146 372.382Z" fill="#3F3D56"/>
<path opacity="0.1" d="M535.146 372.382C535.146 397.477 417.251 442 271.82 442C126.389 442 22.2977 351.774 22.2977 326.679C22.2977 301.585 126.389 351.125 271.82 351.125C417.251 351.125 535.146 347.288 535.146 372.382Z" fill="black"/>
<path d="M535.146 372.117C535.146 397.211 417.251 417.554 271.82 417.554C126.389 417.554 22.2977 351.774 22.2977 326.679C22.2977 301.585 126.389 326.679 271.82 326.679C417.251 326.679 535.146 347.022 535.146 372.117Z" fill="#3F3D56"/>
<path d="M231.573 301.4L226.24 335.481C226.24 335.481 199.987 349.442 218.446 349.853C236.906 350.263 323.87 349.853 323.87 349.853C323.87 349.853 340.688 349.853 314.025 335.07L308.692 299.346L231.573 301.4Z" fill="#2F2E41"/>
<path opacity="0.1" d="M214.733 349.483C218.925 345.749 226.24 341.858 226.24 341.858L231.573 307.777L308.692 307.849L314.025 341.448C320.243 344.895 324.094 347.537 326.348 349.564C329.772 348.782 333.515 345.876 314.025 335.07L308.692 299.346L231.573 301.4L226.24 335.481C226.24 335.481 204.18 347.214 214.733 349.483Z" fill="black"/>
<path d="M431.229 63.8557H108.215C101.468 63.8557 95.9991 69.3304 95.9991 76.0839V293.893C95.9991 300.647 101.468 306.122 108.215 306.122H431.229C437.976 306.122 443.445 300.647 443.445 293.893V76.0839C443.445 69.3304 437.976 63.8557 431.229 63.8557Z" fill="#2F2E41"/>
<path d="M431.754 76.7902H107.69V258.284H431.754V76.7902Z" fill="#3F3D56"/>
<path d="M269.722 73.0946C270.855 73.0946 271.773 72.1754 271.773 71.0415C271.773 69.9076 270.855 68.9884 269.722 68.9884C268.59 68.9884 267.671 69.9076 267.671 71.0415C267.671 72.1754 268.59 73.0946 269.722 73.0946Z" fill="#F2F2F2"/>
<path d="M443.445 272.656V293.893C443.446 295.499 443.13 297.09 442.516 298.573C441.902 300.057 441.002 301.405 439.868 302.541C438.733 303.676 437.387 304.577 435.904 305.191C434.422 305.806 432.834 306.122 431.229 306.122H108.215C106.611 306.122 105.022 305.806 103.54 305.191C102.058 304.577 100.711 303.676 99.5767 302.541C98.4423 301.405 97.5425 300.057 96.9286 298.573C96.3148 297.09 95.9989 295.499 95.9991 293.893V272.656H443.445Z" fill="#2F2E41"/>
<path d="M360.378 372.026V376.133H139.686V372.848L139.99 372.026L145.429 357.244H355.866L360.378 372.026Z" fill="#2F2E41"/>
<path d="M445.308 368.006C444.906 369.727 443.388 371.542 439.959 373.258C427.652 379.417 402.63 371.616 402.63 371.616C402.63 371.616 383.35 368.331 383.35 359.708C383.891 359.337 384.456 359.001 385.04 358.702C390.214 355.962 407.369 349.2 437.786 358.988C440.027 359.692 442.029 361.005 443.568 362.781C444.801 364.225 445.767 366.057 445.308 368.006Z" fill="#2F2E41"/>
<path opacity="0.1" d="M445.308 368.006C430.245 373.784 416.819 374.215 403.04 364.635C396.091 359.806 389.778 358.611 385.04 358.702C390.214 355.962 407.369 349.2 437.786 358.988C440.027 359.692 442.029 361.005 443.568 362.781C444.801 364.225 445.767 366.057 445.308 368.006Z" fill="black"/>
<path d="M426.422 364.635C429.367 364.635 431.754 363.9 431.754 362.993C431.754 362.085 429.367 361.35 426.422 361.35C423.477 361.35 421.089 362.085 421.089 362.993C421.089 363.9 423.477 364.635 426.422 364.635Z" fill="#F2F2F2"/>
<path d="M269.722 297.293C274.027 297.293 277.516 293.8 277.516 289.492C277.516 285.183 274.027 281.69 269.722 281.69C265.418 281.69 261.928 285.183 261.928 289.492C261.928 293.8 265.418 297.293 269.722 297.293Z" fill="#F2F2F2"/>
<path opacity="0.1" d="M360.378 372.026V376.132H139.686V372.848L139.99 372.026H360.378Z" fill="black"/>
<path d="M462.452 161.909C456.915 163.818 455.589 171.377 457.494 176.92C459.398 182.464 463.432 187.063 465.462 192.562C466.388 195.335 467.053 198.189 467.448 201.087C468.608 207.985 469.77 215.005 468.877 221.943C468.029 228.525 465.366 234.73 462.394 240.661C456.638 252.147 449.637 262.963 441.517 272.915" stroke="#2F2E41" stroke-width="2"/>
<path d="M504.885 97.1003C504.885 121.461 485.156 160.341 460.82 160.341C436.484 160.341 416.756 121.461 416.756 97.1003C416.756 85.4019 421.398 74.1826 429.662 65.9106C437.926 57.6386 449.134 52.9914 460.82 52.9914C472.507 52.9914 483.715 57.6386 491.979 65.9106C500.242 74.1826 504.885 85.4019 504.885 97.1003Z" fill="#8C0327"/>
<path d="M465.067 164.592C462.236 162.773 459.404 162.773 456.573 164.592V156.089H465.067V164.592Z" fill="#8C0327"/>
<path d="M456.595 160.161C457.915 160.83 459.375 161.175 460.854 161.169C462.334 161.163 463.79 160.805 465.105 160.126" stroke="#2F2E41" stroke-width="2"/>
<path opacity="0.4" d="M479.136 89.6603C484.267 89.6603 488.427 84.6637 488.427 78.5002C488.427 72.3366 484.267 67.3401 479.136 67.3401C474.005 67.3401 469.845 72.3366 469.845 78.5002C469.845 84.6637 474.005 89.6603 479.136 89.6603Z" fill="white"/>
<path d="M320.454 153.346V199.339L308.308 223.87V223.872L307.923 224.647L275.766 222.521L263.405 221.703L234.715 219.805V164.789L263.405 165.599L276.235 165.962L308.693 166.88L320.454 153.346Z" fill="#8C0327"/>
<path opacity="0.1" d="M320.454 156.059V199.339L317.487 205.332V205.334L314.443 211.476V211.478L308.308 223.87L308.994 177.876L309.132 168.599L314.967 162.137V162.135L317.51 159.319L320.454 156.059Z" fill="black"/>
<path d="M322.103 141.133V157.197L320.454 159.827L317.508 164.525L314.899 168.687L309.132 177.883L308.994 177.876L232.187 173.922V158.077L232.381 157.868L241.55 147.932L244.87 144.337L250.874 137.831L322.103 141.133Z" fill="#8C0327"/>
<path opacity="0.1" d="M309.132 162.039V177.883L232.187 173.922V158.077L232.381 157.868L309.132 162.039Z" fill="black"/>
<path opacity="0.15" d="M322.103 141.133V157.197L309.132 177.883V162.039L322.103 141.133Z" fill="black"/>
<path d="M317.517 148.524L317.51 159.319L317.508 164.525L317.487 205.332V205.334L314.443 211.476L314.899 168.687L314.967 162.137V162.135L315.07 152.468L241.551 147.932L244.87 144.337L317.517 148.524Z" fill="#2F2E41"/>
<path d="M281.432 149.055L276.281 160.253L276.235 165.962L275.766 222.521L263.405 221.702V159.508L270 149.055H281.432Z" fill="#2F2E41"/>
<path d="M264.467 149.808C261.491 150.8 258.292 150.912 255.254 150.132C254.662 150.017 254.108 149.76 253.638 149.382C253.133 148.823 252.787 148.138 252.638 147.399C252.101 145.873 251.803 144.272 251.756 142.654C251.793 141.038 252.41 139.353 253.727 138.418C253.994 138.256 254.245 138.067 254.475 137.855C254.75 137.508 254.948 137.106 255.055 136.677C255.955 133.987 257.701 131.147 260.502 130.717C263.086 130.32 265.438 132.126 267.429 133.822L271.799 137.545C272.284 136.24 273.151 135.113 274.288 134.311C275.424 133.509 276.776 133.069 278.167 133.05C279.557 133.031 280.921 133.434 282.079 134.204C283.237 134.975 284.135 136.078 284.655 137.369C287.303 134.383 290.64 132.091 294.376 130.693C295.204 130.384 296.176 130.132 296.931 130.592C297.397 130.937 297.751 131.412 297.947 131.957C299.137 134.563 299.782 137.386 299.842 140.25C300.147 140.146 300.479 140.146 300.784 140.252C301.089 140.357 301.351 140.561 301.527 140.832C301.865 141.384 302.058 142.013 302.087 142.66C302.204 143.66 302.262 144.666 302.262 145.672C302.261 146.734 302.163 147.88 301.472 148.685C300.579 149.726 299.037 149.836 297.667 149.868C298.327 150.454 298.005 151.634 297.275 152.13C296.546 152.626 295.602 152.635 294.72 152.627C291.32 152.594 287.704 152.497 284.876 150.608C283.759 149.862 282.824 148.868 281.704 148.127C278.96 146.309 275.515 146.222 272.339 146.373C269.472 146.508 267.197 148.893 264.467 149.808Z" fill="#2F2E41"/>
<path d="M263.845 149.055C263.845 149.055 235.485 153.016 231.528 170.181L237.463 169.301L241.64 176.783C241.64 176.783 246.037 160.058 259.008 156.097C271.979 152.136 276.596 151.475 276.596 151.475C276.596 151.475 285.609 153.676 293.743 179.864L298.36 173.482L306.494 175.242C306.494 175.242 300.558 154.776 284.51 149.055L263.845 149.055Z" fill="#2F2E41"/>
</g>
<defs>
<clipPath id="clip0_3_662">
<rect width="567" height="442" fill="white"/>
</clipPath>
</defs>
</svg>
