<svg width="670" height="335" viewBox="0 0 670 335" fill="none" xmlns="http://www.w3.org/2000/svg">
<g clip-path="url(#clip0_3_182)">
<path d="M141.561 -9.70711e-05C123.358 -0.0314065 105.322 3.47046 88.4506 10.3117C87.7712 10.5904 87.0892 10.8704 86.4076 11.1568C60.7672 21.9881 38.8907 40.1543 23.5196 63.3786C8.14863 86.603 -0.0330568 113.852 -2.24296e-05 141.712V296.345C0.00181605 297.978 0.650672 299.543 1.8042 300.698C2.95772 301.853 4.52171 302.503 6.15304 302.504L6.27522 302.515C124.87 324.075 240.164 335 349.05 335C350.682 335 352.313 334.997 353.943 334.993C460.975 334.666 565.194 323.741 663.703 302.52L663.847 302.504C665.478 302.503 667.042 301.853 668.196 300.698C669.349 299.544 669.998 297.978 670 296.345V6.15954C669.998 4.52648 669.349 2.96082 668.196 1.80607C667.042 0.651319 665.478 0.00178332 663.847 -5.52987e-05L141.561 -9.70711e-05Z" fill="#8C0327"/>
<path d="M509.883 123.324C508.817 123.341 507.8 123.778 507.052 124.539C506.304 125.3 505.885 126.325 505.885 127.393C505.885 128.461 506.304 129.486 507.052 130.247C507.8 131.009 508.817 131.445 509.883 131.463H611.809C612.343 131.472 612.874 131.376 613.371 131.18C613.868 130.984 614.322 130.691 614.706 130.32C615.09 129.948 615.398 129.504 615.61 129.013C615.823 128.523 615.937 127.995 615.946 127.46C615.954 126.925 615.858 126.394 615.661 125.897C615.465 125.399 615.172 124.945 614.801 124.561C614.429 124.177 613.985 123.87 613.495 123.658C613.004 123.445 612.477 123.332 611.943 123.324C611.898 123.323 611.854 123.323 611.809 123.324H509.883Z" fill="#3F3D56"/>
<path d="M634.924 122.191C634.849 122.265 634.79 122.353 634.75 122.45C634.71 122.548 634.689 122.652 634.689 122.757C634.689 122.862 634.71 122.966 634.75 123.063C634.79 123.16 634.849 123.249 634.924 123.323L638.358 126.761H629.89C629.678 126.761 629.474 126.845 629.324 126.995C629.174 127.145 629.09 127.349 629.09 127.561C629.09 127.774 629.174 127.978 629.324 128.128C629.474 128.278 629.678 128.362 629.89 128.362H638.358L634.924 131.8C634.849 131.874 634.79 131.963 634.75 132.06C634.71 132.157 634.689 132.261 634.689 132.366C634.689 132.471 634.71 132.575 634.75 132.673C634.79 132.77 634.849 132.858 634.924 132.932C634.998 133.007 635.086 133.066 635.183 133.106C635.28 133.146 635.384 133.167 635.489 133.167C635.594 133.167 635.698 133.146 635.795 133.106C635.892 133.066 635.981 133.007 636.055 132.932L640.855 128.128C641.005 127.978 641.089 127.774 641.089 127.561C641.089 127.349 641.005 127.145 640.855 126.995L636.055 122.191C635.981 122.116 635.892 122.057 635.795 122.017C635.698 121.977 635.594 121.956 635.489 121.956C635.384 121.956 635.28 121.977 635.183 122.017C635.086 122.057 634.998 122.116 634.924 122.191Z" fill="white"/>
<path d="M486.726 122.191C486.8 122.265 486.859 122.353 486.899 122.45C486.94 122.548 486.96 122.652 486.96 122.757C486.96 122.862 486.94 122.966 486.899 123.063C486.859 123.16 486.8 123.249 486.726 123.323L483.292 126.761H491.76C491.865 126.76 491.969 126.781 492.067 126.821C492.164 126.861 492.252 126.92 492.327 126.994C492.401 127.069 492.461 127.157 492.501 127.254C492.541 127.352 492.562 127.456 492.562 127.561C492.562 127.667 492.541 127.771 492.501 127.868C492.461 127.966 492.401 128.054 492.327 128.129C492.252 128.203 492.164 128.262 492.067 128.302C491.969 128.342 491.865 128.363 491.76 128.362H483.292L486.726 131.8C486.876 131.95 486.96 132.154 486.96 132.366C486.96 132.579 486.876 132.782 486.726 132.932C486.576 133.083 486.372 133.167 486.16 133.167C485.948 133.167 485.745 133.083 485.595 132.932L480.795 128.128C480.645 127.978 480.561 127.774 480.561 127.561C480.561 127.349 480.645 127.145 480.795 126.995L485.595 122.191C485.669 122.116 485.757 122.057 485.854 122.017C485.951 121.977 486.055 121.956 486.16 121.956C486.265 121.956 486.369 121.977 486.466 122.017C486.563 122.057 486.652 122.116 486.726 122.191Z" fill="white"/>
<g opacity="0.4">
<path d="M513.999 38.86C516.412 38.86 518.368 36.9021 518.368 34.4868C518.368 32.0715 516.412 30.1136 513.999 30.1136C511.587 30.1136 509.631 32.0715 509.631 34.4868C509.631 36.9021 511.587 38.86 513.999 38.86Z" fill="white"/>
<path d="M532.202 38.86C534.615 38.86 536.57 36.9021 536.57 34.4868C536.57 32.0715 534.615 30.1136 532.202 30.1136C529.789 30.1136 527.833 32.0715 527.833 34.4868C527.833 36.9021 529.789 38.86 532.202 38.86Z" fill="white"/>
<path d="M550.404 38.86C552.817 38.86 554.773 36.9021 554.773 34.4868C554.773 32.0715 552.817 30.1136 550.404 30.1136C547.992 30.1136 546.036 32.0715 546.036 34.4868C546.036 36.9021 547.992 38.86 550.404 38.86Z" fill="white"/>
<path d="M568.607 38.86C571.02 38.86 572.975 36.9021 572.975 34.4868C572.975 32.0715 571.02 30.1136 568.607 30.1136C566.194 30.1136 564.238 32.0715 564.238 34.4868C564.238 36.9021 566.194 38.86 568.607 38.86Z" fill="white"/>
<path d="M586.809 38.86C589.222 38.86 591.178 36.9021 591.178 34.4868C591.178 32.0715 589.222 30.1136 586.809 30.1136C584.397 30.1136 582.441 32.0715 582.441 34.4868C582.441 36.9021 584.397 38.86 586.809 38.86Z" fill="white"/>
<path d="M605.012 38.86C607.425 38.86 609.381 36.9021 609.381 34.4868C609.381 32.0715 607.425 30.1136 605.012 30.1136C602.599 30.1136 600.643 32.0715 600.643 34.4868C600.643 36.9021 602.599 38.86 605.012 38.86Z" fill="white"/>
<path d="M623.215 38.86C625.627 38.86 627.583 36.9021 627.583 34.4868C627.583 32.0715 625.627 30.1136 623.215 30.1136C620.802 30.1136 618.846 32.0715 618.846 34.4868C618.846 36.9021 620.802 38.86 623.215 38.86Z" fill="white"/>
<path d="M513.999 52.7086C516.412 52.7086 518.368 50.7507 518.368 48.3354C518.368 45.9201 516.412 43.9622 513.999 43.9622C511.587 43.9622 509.631 45.9201 509.631 48.3354C509.631 50.7507 511.587 52.7086 513.999 52.7086Z" fill="white"/>
<path d="M532.202 52.7086C534.615 52.7086 536.57 50.7507 536.57 48.3354C536.57 45.9201 534.615 43.9622 532.202 43.9622C529.789 43.9622 527.833 45.9201 527.833 48.3354C527.833 50.7507 529.789 52.7086 532.202 52.7086Z" fill="white"/>
<path d="M550.404 52.7086C552.817 52.7086 554.773 50.7507 554.773 48.3354C554.773 45.9201 552.817 43.9622 550.404 43.9622C547.992 43.9622 546.036 45.9201 546.036 48.3354C546.036 50.7507 547.992 52.7086 550.404 52.7086Z" fill="white"/>
<path d="M568.607 52.7086C571.02 52.7086 572.975 50.7507 572.975 48.3354C572.975 45.9201 571.02 43.9622 568.607 43.9622C566.194 43.9622 564.238 45.9201 564.238 48.3354C564.238 50.7507 566.194 52.7086 568.607 52.7086Z" fill="white"/>
<path d="M586.809 52.7086C589.222 52.7086 591.178 50.7507 591.178 48.3354C591.178 45.9201 589.222 43.9622 586.809 43.9622C584.397 43.9622 582.441 45.9201 582.441 48.3354C582.441 50.7507 584.397 52.7086 586.809 52.7086Z" fill="white"/>
<path d="M605.012 52.7086C607.425 52.7086 609.381 50.7507 609.381 48.3354C609.381 45.9201 607.425 43.9622 605.012 43.9622C602.599 43.9622 600.643 45.9201 600.643 48.3354C600.643 50.7507 602.599 52.7086 605.012 52.7086Z" fill="white"/>
<path d="M623.215 52.7086C625.627 52.7086 627.583 50.7507 627.583 48.3354C627.583 45.9201 625.627 43.9622 623.215 43.9622C620.802 43.9622 618.846 45.9201 618.846 48.3354C618.846 50.7507 620.802 52.7086 623.215 52.7086Z" fill="white"/>
<path d="M513.999 66.5572C516.412 66.5572 518.368 64.5993 518.368 62.184C518.368 59.7687 516.412 57.8108 513.999 57.8108C511.587 57.8108 509.631 59.7687 509.631 62.184C509.631 64.5993 511.587 66.5572 513.999 66.5572Z" fill="white"/>
<path d="M532.202 66.5572C534.615 66.5572 536.57 64.5993 536.57 62.184C536.57 59.7687 534.615 57.8108 532.202 57.8108C529.789 57.8108 527.833 59.7687 527.833 62.184C527.833 64.5993 529.789 66.5572 532.202 66.5572Z" fill="white"/>
<path d="M550.404 66.5572C552.817 66.5572 554.773 64.5993 554.773 62.184C554.773 59.7687 552.817 57.8108 550.404 57.8108C547.992 57.8108 546.036 59.7687 546.036 62.184C546.036 64.5993 547.992 66.5572 550.404 66.5572Z" fill="white"/>
<path d="M568.607 66.5572C571.02 66.5572 572.975 64.5993 572.975 62.184C572.975 59.7687 571.02 57.8108 568.607 57.8108C566.194 57.8108 564.238 59.7687 564.238 62.184C564.238 64.5993 566.194 66.5572 568.607 66.5572Z" fill="white"/>
<path d="M586.809 66.5572C589.222 66.5572 591.178 64.5993 591.178 62.184C591.178 59.7687 589.222 57.8108 586.809 57.8108C584.397 57.8108 582.441 59.7687 582.441 62.184C582.441 64.5993 584.397 66.5572 586.809 66.5572Z" fill="white"/>
<path d="M605.012 66.5572C607.425 66.5572 609.381 64.5993 609.381 62.184C609.381 59.7687 607.425 57.8108 605.012 57.8108C602.599 57.8108 600.643 59.7687 600.643 62.184C600.643 64.5993 602.599 66.5572 605.012 66.5572Z" fill="white"/>
<path d="M623.215 66.5572C625.627 66.5572 627.583 64.5993 627.583 62.184C627.583 59.7687 625.627 57.8108 623.215 57.8108C620.802 57.8108 618.846 59.7687 618.846 62.184C618.846 64.5993 620.802 66.5572 623.215 66.5572Z" fill="white"/>
<path d="M513.999 80.4058C516.412 80.4058 518.368 78.4479 518.368 76.0326C518.368 73.6173 516.412 71.6594 513.999 71.6594C511.587 71.6594 509.631 73.6173 509.631 76.0326C509.631 78.4479 511.587 80.4058 513.999 80.4058Z" fill="white"/>
<path d="M532.202 80.4058C534.615 80.4058 536.57 78.4479 536.57 76.0326C536.57 73.6173 534.615 71.6594 532.202 71.6594C529.789 71.6594 527.833 73.6173 527.833 76.0326C527.833 78.4479 529.789 80.4058 532.202 80.4058Z" fill="white"/>
<path d="M513.999 94.2544C516.412 94.2544 518.368 92.2965 518.368 89.8812C518.368 87.4659 516.412 85.508 513.999 85.508C511.587 85.508 509.631 87.4659 509.631 89.8812C509.631 92.2965 511.587 94.2544 513.999 94.2544Z" fill="white"/>
<path d="M532.202 94.2544C534.615 94.2544 536.57 92.2965 536.57 89.8812C536.57 87.4659 534.615 85.508 532.202 85.508C529.789 85.508 527.833 87.4659 527.833 89.8812C527.833 92.2965 529.789 94.2544 532.202 94.2544Z" fill="white"/>
<path d="M550.404 94.2544C552.817 94.2544 554.773 92.2965 554.773 89.8812C554.773 87.4659 552.817 85.508 550.404 85.508C547.992 85.508 546.036 87.4659 546.036 89.8812C546.036 92.2965 547.992 94.2544 550.404 94.2544Z" fill="white"/>
<path d="M550.404 80.4058C552.817 80.4058 554.773 78.4479 554.773 76.0326C554.773 73.6173 552.817 71.6594 550.404 71.6594C547.992 71.6594 546.036 73.6173 546.036 76.0326C546.036 78.4479 547.992 80.4058 550.404 80.4058Z" fill="white"/>
<path d="M568.607 80.4058C571.02 80.4058 572.975 78.4479 572.975 76.0326C572.975 73.6173 571.02 71.6594 568.607 71.6594C566.194 71.6594 564.238 73.6173 564.238 76.0326C564.238 78.4479 566.194 80.4058 568.607 80.4058Z" fill="white"/>
<path d="M586.809 80.4058C589.222 80.4058 591.178 78.4479 591.178 76.0326C591.178 73.6173 589.222 71.6594 586.809 71.6594C584.397 71.6594 582.441 73.6173 582.441 76.0326C582.441 78.4479 584.397 80.4058 586.809 80.4058Z" fill="white"/>
<path d="M605.012 80.4058C607.425 80.4058 609.381 78.4479 609.381 76.0326C609.381 73.6173 607.425 71.6594 605.012 71.6594C602.599 71.6594 600.643 73.6173 600.643 76.0326C600.643 78.4479 602.599 80.4058 605.012 80.4058Z" fill="white"/>
<path d="M623.215 80.4058C625.627 80.4058 627.583 78.4479 627.583 76.0326C627.583 73.6173 625.627 71.6594 623.215 71.6594C620.802 71.6594 618.846 73.6173 618.846 76.0326C618.846 78.4479 620.802 80.4058 623.215 80.4058Z" fill="white"/>
</g>
<path d="M451.332 256.964C446.562 256.964 441.9 255.548 437.934 252.895C433.969 250.243 430.878 246.473 429.053 242.062C427.227 237.65 426.75 232.797 427.68 228.114C428.611 223.431 430.908 219.13 434.28 215.753C437.653 212.377 441.95 210.078 446.627 209.147C451.305 208.215 456.154 208.693 460.56 210.52C464.967 212.348 468.733 215.442 471.383 219.412C474.032 223.382 475.447 228.049 475.447 232.823C475.44 239.224 472.897 245.36 468.376 249.885C463.855 254.411 457.725 256.957 451.332 256.964ZM451.332 210.052C446.833 210.052 442.435 211.387 438.694 213.889C434.953 216.392 432.038 219.948 430.316 224.109C428.594 228.27 428.144 232.849 429.022 237.266C429.899 241.683 432.066 245.741 435.247 248.925C438.428 252.11 442.482 254.279 446.894 255.157C451.307 256.036 455.88 255.585 460.037 253.862C464.194 252.138 467.746 249.219 470.246 245.475C472.745 241.73 474.079 237.327 474.079 232.823C474.073 226.786 471.674 220.998 467.409 216.729C463.145 212.46 457.363 210.059 451.332 210.052Z" fill="#3F3D56"/>
<path d="M460.577 230.51H453.643V223.568C453.643 222.954 453.4 222.366 452.967 221.932C452.533 221.498 451.945 221.254 451.332 221.254C450.719 221.254 450.131 221.498 449.698 221.932C449.264 222.366 449.021 222.954 449.021 223.568V230.51H442.087C441.474 230.51 440.886 230.753 440.452 231.187C440.019 231.621 439.775 232.21 439.775 232.823C439.775 233.437 440.019 234.025 440.452 234.459C440.886 234.893 441.474 235.137 442.087 235.137H449.021V242.079C449.021 242.692 449.264 243.281 449.698 243.715C450.131 244.149 450.719 244.392 451.332 244.392C451.945 244.392 452.533 244.149 452.967 243.715C453.4 243.281 453.643 242.692 453.643 242.079V235.137H460.577C461.19 235.137 461.778 234.893 462.212 234.459C462.645 234.025 462.889 233.437 462.889 232.823C462.889 232.21 462.645 231.621 462.212 231.187C461.778 230.753 461.19 230.51 460.577 230.51Z" fill="white"/>
<g opacity="0.4">
<path d="M36.9347 259.928C38.8317 259.928 40.3694 258.388 40.3694 256.489C40.3694 254.59 38.8317 253.051 36.9347 253.051C35.0378 253.051 33.5 254.59 33.5 256.489C33.5 258.388 35.0378 259.928 36.9347 259.928Z" fill="white"/>
<path d="M36.9347 245.601C38.8317 245.601 40.3694 244.062 40.3694 242.163C40.3694 240.264 38.8317 238.724 36.9347 238.724C35.0378 238.724 33.5 240.264 33.5 242.163C33.5 244.062 35.0378 245.601 36.9347 245.601Z" fill="white"/>
<path d="M36.9347 231.275C38.8317 231.275 40.3694 229.735 40.3694 227.836C40.3694 225.937 38.8317 224.398 36.9347 224.398C35.0378 224.398 33.5 225.937 33.5 227.836C33.5 229.735 35.0378 231.275 36.9347 231.275Z" fill="white"/>
<path d="M36.9347 216.948C38.8317 216.948 40.3694 215.409 40.3694 213.51C40.3694 211.611 38.8317 210.071 36.9347 210.071C35.0378 210.071 33.5 211.611 33.5 213.51C33.5 215.409 35.0378 216.948 36.9347 216.948Z" fill="white"/>
<path d="M36.9347 202.622C38.8317 202.622 40.3694 201.082 40.3694 199.183C40.3694 197.284 38.8317 195.745 36.9347 195.745C35.0378 195.745 33.5 197.284 33.5 199.183C33.5 201.082 35.0378 202.622 36.9347 202.622Z" fill="white"/>
<path d="M36.9347 188.295C38.8317 188.295 40.3694 186.756 40.3694 184.857C40.3694 182.958 38.8317 181.418 36.9347 181.418C35.0378 181.418 33.5 182.958 33.5 184.857C33.5 186.756 35.0378 188.295 36.9347 188.295Z" fill="white"/>
<path d="M36.9347 173.969C38.8317 173.969 40.3694 172.429 40.3694 170.53C40.3694 168.631 38.8317 167.092 36.9347 167.092C35.0378 167.092 33.5 168.631 33.5 170.53C33.5 172.429 35.0378 173.969 36.9347 173.969Z" fill="white"/>
<path d="M47.8113 259.928C49.7082 259.928 51.246 258.388 51.246 256.489C51.246 254.59 49.7082 253.051 47.8113 253.051C45.9144 253.051 44.3766 254.59 44.3766 256.489C44.3766 258.388 45.9144 259.928 47.8113 259.928Z" fill="white"/>
<path d="M47.8113 245.601C49.7082 245.601 51.246 244.062 51.246 242.163C51.246 240.264 49.7082 238.724 47.8113 238.724C45.9144 238.724 44.3766 240.264 44.3766 242.163C44.3766 244.062 45.9144 245.601 47.8113 245.601Z" fill="white"/>
<path d="M47.8113 231.275C49.7082 231.275 51.246 229.735 51.246 227.836C51.246 225.937 49.7082 224.398 47.8113 224.398C45.9144 224.398 44.3766 225.937 44.3766 227.836C44.3766 229.735 45.9144 231.275 47.8113 231.275Z" fill="white"/>
<path d="M47.8113 216.948C49.7082 216.948 51.246 215.409 51.246 213.51C51.246 211.611 49.7082 210.071 47.8113 210.071C45.9144 210.071 44.3766 211.611 44.3766 213.51C44.3766 215.409 45.9144 216.948 47.8113 216.948Z" fill="white"/>
<path d="M47.8113 202.622C49.7082 202.622 51.246 201.082 51.246 199.183C51.246 197.284 49.7082 195.745 47.8113 195.745C45.9144 195.745 44.3766 197.284 44.3766 199.183C44.3766 201.082 45.9144 202.622 47.8113 202.622Z" fill="white"/>
<path d="M47.8113 188.295C49.7082 188.295 51.246 186.756 51.246 184.857C51.246 182.958 49.7082 181.418 47.8113 181.418C45.9144 181.418 44.3766 182.958 44.3766 184.857C44.3766 186.756 45.9144 188.295 47.8113 188.295Z" fill="white"/>
<path d="M47.8113 173.969C49.7082 173.969 51.246 172.429 51.246 170.53C51.246 168.631 49.7082 167.092 47.8113 167.092C45.9144 167.092 44.3766 168.631 44.3766 170.53C44.3766 172.429 45.9144 173.969 47.8113 173.969Z" fill="white"/>
<path d="M58.6879 259.928C60.5848 259.928 62.1226 258.388 62.1226 256.489C62.1226 254.59 60.5848 253.051 58.6879 253.051C56.7909 253.051 55.2532 254.59 55.2532 256.489C55.2532 258.388 56.7909 259.928 58.6879 259.928Z" fill="white"/>
<path d="M58.6879 245.601C60.5848 245.601 62.1226 244.062 62.1226 242.163C62.1226 240.264 60.5848 238.724 58.6879 238.724C56.7909 238.724 55.2532 240.264 55.2532 242.163C55.2532 244.062 56.7909 245.601 58.6879 245.601Z" fill="white"/>
<path d="M58.6879 231.275C60.5848 231.275 62.1226 229.735 62.1226 227.836C62.1226 225.937 60.5848 224.398 58.6879 224.398C56.7909 224.398 55.2532 225.937 55.2532 227.836C55.2532 229.735 56.7909 231.275 58.6879 231.275Z" fill="white"/>
<path d="M58.6879 216.948C60.5848 216.948 62.1226 215.409 62.1226 213.51C62.1226 211.611 60.5848 210.071 58.6879 210.071C56.7909 210.071 55.2532 211.611 55.2532 213.51C55.2532 215.409 56.7909 216.948 58.6879 216.948Z" fill="white"/>
<path d="M58.6879 202.622C60.5848 202.622 62.1226 201.082 62.1226 199.183C62.1226 197.284 60.5848 195.745 58.6879 195.745C56.7909 195.745 55.2532 197.284 55.2532 199.183C55.2532 201.082 56.7909 202.622 58.6879 202.622Z" fill="white"/>
<path d="M58.6879 188.295C60.5848 188.295 62.1226 186.756 62.1226 184.857C62.1226 182.958 60.5848 181.418 58.6879 181.418C56.7909 181.418 55.2532 182.958 55.2532 184.857C55.2532 186.756 56.7909 188.295 58.6879 188.295Z" fill="white"/>
<path d="M58.6879 173.969C60.5848 173.969 62.1226 172.429 62.1226 170.53C62.1226 168.631 60.5848 167.092 58.6879 167.092C56.7909 167.092 55.2532 168.631 55.2532 170.53C55.2532 172.429 56.7909 173.969 58.6879 173.969Z" fill="white"/>
<path d="M69.5645 259.928C71.4614 259.928 72.9992 258.388 72.9992 256.489C72.9992 254.59 71.4614 253.051 69.5645 253.051C67.6675 253.051 66.1298 254.59 66.1298 256.489C66.1298 258.388 67.6675 259.928 69.5645 259.928Z" fill="white"/>
<path d="M69.5645 245.601C71.4614 245.601 72.9992 244.062 72.9992 242.163C72.9992 240.264 71.4614 238.724 69.5645 238.724C67.6675 238.724 66.1298 240.264 66.1298 242.163C66.1298 244.062 67.6675 245.601 69.5645 245.601Z" fill="white"/>
<path d="M80.4411 259.928C82.338 259.928 83.8758 258.388 83.8758 256.489C83.8758 254.59 82.338 253.051 80.4411 253.051C78.5441 253.051 77.0063 254.59 77.0063 256.489C77.0063 258.388 78.5441 259.928 80.4411 259.928Z" fill="white"/>
<path d="M80.4411 245.601C82.338 245.601 83.8758 244.062 83.8758 242.163C83.8758 240.264 82.338 238.724 80.4411 238.724C78.5441 238.724 77.0063 240.264 77.0063 242.163C77.0063 244.062 78.5441 245.601 80.4411 245.601Z" fill="white"/>
<path d="M80.4411 231.275C82.338 231.275 83.8758 229.735 83.8758 227.836C83.8758 225.937 82.338 224.398 80.4411 224.398C78.5441 224.398 77.0063 225.937 77.0063 227.836C77.0063 229.735 78.5441 231.275 80.4411 231.275Z" fill="white"/>
<path d="M69.5645 231.275C71.4614 231.275 72.9992 229.735 72.9992 227.836C72.9992 225.937 71.4614 224.398 69.5645 224.398C67.6675 224.398 66.1298 225.937 66.1298 227.836C66.1298 229.735 67.6675 231.275 69.5645 231.275Z" fill="white"/>
<path d="M69.5645 216.948C71.4614 216.948 72.9992 215.409 72.9992 213.51C72.9992 211.611 71.4614 210.071 69.5645 210.071C67.6675 210.071 66.1298 211.611 66.1298 213.51C66.1298 215.409 67.6675 216.948 69.5645 216.948Z" fill="white"/>
<path d="M69.5645 202.622C71.4614 202.622 72.9992 201.082 72.9992 199.183C72.9992 197.284 71.4614 195.745 69.5645 195.745C67.6675 195.745 66.1298 197.284 66.1298 199.183C66.1298 201.082 67.6675 202.622 69.5645 202.622Z" fill="white"/>
<path d="M69.5645 188.295C71.4614 188.295 72.9992 186.756 72.9992 184.857C72.9992 182.958 71.4614 181.418 69.5645 181.418C67.6675 181.418 66.1298 182.958 66.1298 184.857C66.1298 186.756 67.6675 188.295 69.5645 188.295Z" fill="white"/>
<path d="M69.5645 173.969C71.4614 173.969 72.9992 172.429 72.9992 170.53C72.9992 168.631 71.4614 167.092 69.5645 167.092C67.6675 167.092 66.1298 168.631 66.1298 170.53C66.1298 172.429 67.6675 173.969 69.5645 173.969Z" fill="white"/>
</g>
<path d="M340.065 22.5867H111.894C110.774 22.5878 109.699 23.034 108.907 23.8273C108.114 24.6205 107.669 25.6961 107.668 26.8179V222.134C107.669 223.256 108.114 224.331 108.907 225.125C109.699 225.918 110.774 226.364 111.894 226.365H340.065C341.186 226.364 342.26 225.918 343.052 225.125C343.845 224.331 344.29 223.256 344.292 222.134V26.8179C344.29 25.6961 343.845 24.6205 343.052 23.8272C342.26 23.034 341.186 22.5878 340.065 22.5867ZM342.598 222.134C342.597 222.807 342.331 223.453 341.856 223.929C341.381 224.406 340.737 224.675 340.065 224.677H111.894C111.221 224.676 110.577 224.408 110.102 223.931C109.627 223.454 109.36 222.807 109.361 222.134V26.8179C109.36 26.1444 109.627 25.4981 110.102 25.0211C110.577 24.5441 111.221 24.2755 111.894 24.2744H340.065C340.737 24.2768 341.381 24.5458 341.856 25.0225C342.331 25.4992 342.597 26.1448 342.598 26.8179V222.134Z" fill="#3F3D56"/>
<path d="M164.562 191.636C164.562 191.937 164.554 192.238 164.538 192.531C164.308 196.939 162.397 201.091 159.199 204.129C156.001 207.168 151.76 208.862 147.35 208.862C142.941 208.862 138.7 207.168 135.502 204.129C132.304 201.091 130.393 196.939 130.163 192.531C130.147 192.238 130.139 191.937 130.139 191.636C130.137 189.373 130.582 187.131 131.446 185.039C132.31 182.948 133.578 181.047 135.176 179.446C136.774 177.845 138.672 176.575 140.761 175.708C142.85 174.841 145.089 174.395 147.35 174.395C149.611 174.395 151.851 174.841 153.939 175.708C156.028 176.575 157.926 177.845 159.525 179.446C161.123 181.047 162.391 182.948 163.255 185.039C164.119 187.131 164.563 189.373 164.562 191.636Z" fill="white"/>
<path d="M322.335 180.147H187.096C186.336 180.148 185.608 180.451 185.07 180.99C184.533 181.528 184.232 182.258 184.232 183.019C184.232 183.78 184.533 184.51 185.07 185.049C185.608 185.587 186.336 185.89 187.096 185.891H322.335C323.095 185.89 323.824 185.587 324.361 185.049C324.898 184.51 325.2 183.78 325.2 183.019C325.2 182.258 324.898 181.528 324.361 180.99C323.824 180.451 323.095 180.148 322.335 180.147Z" fill="#3F3D56"/>
<path d="M245.289 197.381H187.096C186.336 197.381 185.608 197.683 185.07 198.221C184.533 198.759 184.231 199.488 184.231 200.249C184.231 201.01 184.533 201.739 185.07 202.277C185.608 202.815 186.336 203.117 187.096 203.117H245.289C246.049 203.117 246.777 202.815 247.315 202.277C247.852 201.739 248.154 201.01 248.154 200.249C248.154 199.488 247.852 198.759 247.315 198.221C246.777 197.683 246.049 197.381 245.289 197.381Z" fill="white"/>
<path d="M394.273 159.863H166.104C164.554 159.861 163.069 159.244 161.973 158.147C160.877 157.05 160.261 155.562 160.259 154.011V53.7728C160.261 52.2215 160.877 50.7343 161.973 49.6374C163.069 48.5405 164.554 47.9235 166.104 47.9216H394.273C395.823 47.9235 397.308 48.5405 398.404 49.6374C399.5 50.7343 400.116 52.2215 400.118 53.7728V154.011C400.116 155.562 399.5 157.05 398.404 158.147C397.308 159.244 395.823 159.861 394.273 159.863ZM166.104 49.9748C165.098 49.976 164.134 50.3765 163.423 51.0885C162.711 51.8006 162.311 52.7659 162.31 53.7728V154.011C162.311 155.018 162.711 155.983 163.423 156.696C164.134 157.408 165.098 157.808 166.104 157.809H394.273C395.279 157.808 396.243 157.408 396.955 156.696C397.666 155.983 398.066 155.018 398.067 154.011V53.7728C398.066 52.7659 397.666 51.8006 396.954 51.0885C396.243 50.3765 395.279 49.976 394.273 49.9748H166.104Z" fill="white"/>
<path d="M212.571 84.4818C211.81 84.4818 211.08 84.7844 210.542 85.3229C210.004 85.8615 209.702 86.5919 209.702 87.3535C209.702 88.1151 210.004 88.8456 210.542 89.3841C211.08 89.9226 211.81 90.2252 212.571 90.2252H347.806C348.567 90.2252 349.297 89.9226 349.835 89.3841C350.373 88.8456 350.675 88.1151 350.675 87.3535C350.675 86.5919 350.373 85.8615 349.835 85.3229C349.297 84.7844 348.567 84.4818 347.806 84.4818H212.571Z" fill="white"/>
<path d="M212.571 101.121C211.81 101.121 211.08 101.424 210.542 101.962C210.004 102.501 209.702 103.231 209.702 103.993C209.702 104.755 210.004 105.485 210.542 106.024C211.08 106.562 211.81 106.865 212.571 106.865H347.806C348.566 106.864 349.295 106.56 349.832 106.022C350.369 105.484 350.671 104.754 350.671 103.993C350.671 103.232 350.369 102.502 349.832 101.964C349.295 101.426 348.566 101.123 347.806 101.121H212.571Z" fill="white"/>
<path d="M212.571 117.559C211.81 117.559 211.08 117.862 210.542 118.4C210.004 118.939 209.702 119.669 209.702 120.431C209.702 121.192 210.004 121.923 210.542 122.461C211.08 123 211.81 123.302 212.571 123.302H270.763C271.523 123.301 272.252 122.998 272.789 122.46C273.326 121.921 273.627 121.192 273.627 120.431C273.627 119.67 273.326 118.94 272.789 118.402C272.252 117.863 271.523 117.56 270.763 117.559H212.571Z" fill="white"/>
<path d="M431.893 202.331L408.976 169.954L416.395 171.501C416.527 171.529 416.663 171.53 416.795 171.505C416.928 171.48 417.054 171.429 417.166 171.355C417.279 171.281 417.376 171.185 417.452 171.074C417.528 170.962 417.581 170.837 417.609 170.705C417.636 170.573 417.637 170.437 417.612 170.304C417.587 170.172 417.536 170.045 417.462 169.932C417.389 169.82 417.293 169.722 417.182 169.646C417.07 169.57 416.945 169.517 416.813 169.49L405.758 167.186L404.266 178.39C404.247 178.524 404.256 178.66 404.29 178.791C404.325 178.921 404.385 179.044 404.466 179.151C404.548 179.259 404.651 179.349 404.767 179.417C404.884 179.485 405.013 179.529 405.147 179.547C405.281 179.565 405.417 179.556 405.547 179.521C405.678 179.486 405.8 179.426 405.907 179.344C406.014 179.261 406.104 179.159 406.172 179.042C406.239 178.924 406.283 178.795 406.3 178.661L407.301 171.137L430.22 203.518C430.297 203.628 430.396 203.721 430.51 203.793C430.624 203.865 430.751 203.914 430.884 203.936C431.017 203.959 431.152 203.955 431.284 203.925C431.415 203.895 431.539 203.84 431.649 203.762C431.759 203.684 431.852 203.585 431.924 203.471C431.996 203.357 432.044 203.23 432.067 203.097C432.09 202.964 432.086 202.828 432.056 202.697C432.026 202.565 431.971 202.441 431.893 202.331Z" fill="white"/>
<path d="M307.425 296.564H144.535C143.735 296.563 142.968 296.245 142.403 295.679C141.837 295.113 141.519 294.345 141.518 293.545V253.096C141.519 252.295 141.837 251.527 142.403 250.961C142.968 250.395 143.735 250.077 144.535 250.076H307.425C308.224 250.077 308.991 250.395 309.557 250.961C310.122 251.527 310.44 252.295 310.441 253.096V293.545C310.44 294.345 310.122 295.113 309.557 295.679C308.991 296.245 308.224 296.563 307.425 296.564ZM144.535 251.284C144.055 251.284 143.595 251.475 143.255 251.815C142.916 252.155 142.725 252.615 142.725 253.096V293.545C142.725 294.025 142.916 294.485 143.255 294.825C143.595 295.165 144.055 295.356 144.535 295.356H307.425C307.904 295.356 308.364 295.165 308.704 294.825C309.043 294.485 309.234 294.025 309.234 293.545V253.096C309.234 252.615 309.043 252.155 308.704 251.815C308.364 251.475 307.904 251.284 307.425 251.284H144.535Z" fill="#3F3D56"/>
<path d="M169.844 284.069C176.631 284.069 182.132 278.561 182.132 271.768C182.132 264.975 176.631 259.467 169.844 259.467C163.058 259.467 157.557 264.975 157.557 271.768C157.557 278.561 163.058 284.069 169.844 284.069Z" fill="white"/>
<path d="M198.223 263.568C197.954 263.567 197.687 263.62 197.438 263.723C197.189 263.825 196.963 263.976 196.772 264.167C196.582 264.357 196.431 264.583 196.327 264.832C196.224 265.081 196.171 265.348 196.171 265.618C196.171 265.887 196.224 266.154 196.327 266.403C196.431 266.652 196.582 266.878 196.772 267.069C196.963 267.259 197.189 267.41 197.438 267.513C197.687 267.616 197.954 267.668 198.223 267.668H294.768C295.311 267.668 295.832 267.452 296.216 267.067C296.6 266.683 296.816 266.161 296.816 265.618C296.816 265.074 296.6 264.553 296.216 264.168C295.832 263.784 295.311 263.568 294.768 263.568H198.223Z" fill="white"/>
<path d="M198.223 275.868C197.954 275.868 197.687 275.92 197.438 276.023C197.189 276.126 196.963 276.277 196.772 276.467C196.582 276.658 196.431 276.884 196.327 277.133C196.224 277.382 196.171 277.649 196.171 277.918C196.171 278.188 196.224 278.455 196.327 278.704C196.431 278.953 196.582 279.179 196.772 279.369C196.963 279.56 197.189 279.711 197.438 279.813C197.687 279.916 197.954 279.969 198.223 279.968H239.766C240.31 279.968 240.83 279.752 241.214 279.368C241.599 278.983 241.814 278.462 241.814 277.918C241.814 277.375 241.599 276.853 241.214 276.469C240.83 276.084 240.31 275.868 239.766 275.868H198.223Z" fill="white"/>
<path d="M522.343 152.454H594.739C595.539 152.455 596.305 152.773 596.871 153.339C597.436 153.905 597.755 154.673 597.755 155.474V230.951C597.755 231.751 597.436 232.519 596.871 233.085C596.305 233.651 595.539 233.97 594.739 233.97H522.343C521.544 233.97 520.777 233.651 520.211 233.085C519.646 232.519 519.328 231.751 519.327 230.951V155.474C519.328 154.673 519.646 153.905 520.211 153.339C520.777 152.773 521.544 152.455 522.343 152.454ZM594.739 232.763C595.219 232.762 595.679 232.571 596.018 232.231C596.358 231.892 596.548 231.431 596.549 230.951V155.474C596.548 154.993 596.358 154.533 596.018 154.193C595.679 153.853 595.219 153.662 594.739 153.662H522.343C521.863 153.662 521.403 153.853 521.064 154.193C520.725 154.533 520.534 154.993 520.533 155.474V230.951C520.534 231.431 520.725 231.892 521.064 232.231C521.403 232.571 521.863 232.762 522.343 232.763H594.739Z" fill="#3F3D56"/>
<path d="M579.313 218.406C579.856 218.406 580.377 218.19 580.761 217.805C581.145 217.421 581.361 216.899 581.361 216.356C581.361 215.812 581.145 215.29 580.761 214.906C580.377 214.521 579.856 214.306 579.313 214.306H537.769C537.226 214.306 536.705 214.521 536.321 214.906C535.937 215.29 535.721 215.812 535.721 216.356C535.721 216.899 535.937 217.421 536.321 217.805C536.705 218.19 537.226 218.406 537.769 218.406H579.313Z" fill="white"/>
<path d="M579.313 206.327C579.582 206.327 579.849 206.275 580.098 206.172C580.347 206.069 580.573 205.918 580.763 205.728C580.954 205.537 581.105 205.311 581.208 205.062C581.312 204.813 581.365 204.546 581.365 204.277C581.365 204.007 581.312 203.74 581.208 203.491C581.105 203.243 580.954 203.016 580.763 202.826C580.573 202.636 580.347 202.485 580.098 202.382C579.849 202.279 579.582 202.226 579.313 202.227H537.769C537.5 202.226 537.233 202.279 536.984 202.382C536.736 202.485 536.509 202.636 536.319 202.826C536.128 203.016 535.977 203.243 535.874 203.491C535.771 203.74 535.718 204.007 535.718 204.277C535.718 204.546 535.771 204.813 535.874 205.062C535.977 205.311 536.128 205.537 536.319 205.728C536.509 205.918 536.736 206.069 536.984 206.172C537.233 206.275 537.5 206.327 537.769 206.327H579.313Z" fill="white"/>
<path d="M558.541 168.019C561.091 168.019 563.583 168.776 565.703 170.193C567.823 171.611 569.475 173.627 570.45 175.985C571.426 178.343 571.681 180.937 571.184 183.441C570.687 185.944 569.459 188.243 567.656 190.048C565.853 191.853 563.556 193.082 561.056 193.58C558.555 194.077 555.963 193.822 553.608 192.845C551.252 191.868 549.239 190.214 547.823 188.092C546.406 185.97 545.65 183.475 545.65 180.923C545.654 177.502 547.013 174.222 549.43 171.803C551.847 169.383 555.123 168.023 558.541 168.019Z" fill="white"/>
</g>
<defs>
<clipPath id="clip0_3_182">
<rect width="670" height="335" fill="white"/>
</clipPath>
</defs>
</svg>
