<svg width="599" height="479" viewBox="0 0 599 479" fill="none" xmlns="http://www.w3.org/2000/svg">
<g clip-path="url(#clip0_6_1668)">
<path d="M100.527 478.877C100.527 478.877 91.8968 457.649 117.785 441.728L100.527 478.877Z" fill="#F0F0F0"/>
<path d="M89.9135 478.491C89.9135 478.491 87.2812 463.36 66.9062 463.49L89.9135 478.491Z" fill="#F0F0F0"/>
<path d="M389.47 478.877C389.47 478.877 380.84 457.649 406.729 441.728L389.47 478.877Z" fill="#F0F0F0"/>
<path d="M378.857 478.491C378.857 478.491 376.225 463.36 355.85 463.49L378.857 478.491Z" fill="#F0F0F0"/>
<path d="M382.362 341.428C423.79 341.428 457.374 307.865 457.374 266.464C457.374 225.062 423.79 191.499 382.362 191.499C340.934 191.499 307.35 225.062 307.35 266.464C307.35 307.865 340.934 341.428 382.362 341.428Z" fill="#F0F0F0"/>
<path d="M382.568 266.463H382.774L386.484 479H378.653L382.568 266.463Z" fill="#F0F0F0"/>
<path d="M543.412 378.659C573.629 378.659 598.124 354.179 598.124 323.982C598.124 293.785 573.629 269.305 543.412 269.305C513.196 269.305 488.701 293.785 488.701 323.982C488.701 354.179 513.196 378.659 543.412 378.659Z" fill="#F0F0F0"/>
<path d="M543.563 323.982H543.713L546.418 479H540.707L543.563 323.982Z" fill="#F0F0F0"/>
<path d="M240.444 324.537C241.492 324.417 242.501 324.069 243.4 323.517C244.299 322.965 245.065 322.222 245.646 321.342C246.227 320.462 246.607 319.465 246.76 318.422C246.914 317.379 246.837 316.315 246.534 315.305L267.332 300.314L254.875 295.586L237.035 310.547C235.371 311.167 233.992 312.376 233.16 313.944C232.328 315.512 232.101 317.331 232.521 319.056C232.942 320.78 233.98 322.291 235.441 323.301C236.901 324.311 238.681 324.751 240.444 324.537Z" fill="#FFB6B6"/>
<path d="M225.197 471.586L218.593 471.585L215.452 446.13H225.199L225.197 471.586Z" fill="#FFB6B6"/>
<path d="M226.881 477.983L205.588 477.982V477.713C205.588 475.517 206.461 473.41 208.015 471.857C209.57 470.303 211.678 469.431 213.876 469.431L226.882 469.431L226.881 477.983Z" fill="#2F2E41"/>
<path d="M174.755 471.586L168.152 471.585L165.01 446.13H174.757L174.755 471.586Z" fill="#FFB6B6"/>
<path d="M176.44 477.983L155.146 477.982V477.713C155.146 475.517 156.019 473.41 157.574 471.857C159.128 470.303 161.236 469.431 163.434 469.431L176.44 469.431L176.44 477.983Z" fill="#2F2E41"/>
<path d="M179.856 330.032L165.861 406.518L160.966 467.271L176.858 466.49L185.905 407.494L208.391 356.126L215.084 466.348L229.713 466.396L237.585 326.972L179.856 330.032Z" fill="#2F2E41"/>
<path d="M239.377 242.486L219.761 234.686L197.257 237.259L178.179 247.798C178.179 247.798 184.015 320.94 175.556 338.096C175.556 338.096 182.334 347.478 209.949 345.188C209.949 345.188 236.85 341.79 237.516 332.975C238.183 324.16 238.324 308.132 238.324 308.132L247.661 275.975L239.377 242.486Z" fill="#8C0327"/>
<path d="M185.847 249.206L178.179 247.798C178.179 247.798 170.02 251.373 170.104 262.027C170.188 272.681 155.69 308.398 173.035 309.895C190.38 311.393 185.847 284.567 185.847 284.567V249.206Z" fill="#8C0327"/>
<path d="M233.155 247.024L239.377 242.486C239.377 242.486 248.876 244.63 252.39 252.272C252.39 252.272 291.343 280.505 280.629 291.213C269.914 301.921 248.073 315.099 248.073 315.099L239.987 305.949L260.05 287.785L243.591 272.801L233.155 247.024Z" fill="#8C0327"/>
<path d="M223.208 214.407C223.205 218.673 221.507 222.764 218.487 225.78C215.467 228.796 211.372 230.49 207.103 230.49C202.834 230.49 198.739 228.796 195.719 225.78C192.699 222.764 191.001 218.673 190.998 214.407V213.789C191.163 209.579 192.973 205.602 196.04 202.711C199.107 199.821 203.185 198.247 207.4 198.328C211.614 198.408 215.629 200.138 218.583 203.144C221.536 206.15 223.192 210.194 223.195 214.407H223.208Z" fill="#FFB6B6"/>
<path d="M209.551 211.812C210.581 211.643 211.698 211.483 212.621 211.956C214.628 212.982 214.166 215.889 215.262 217.808C215.695 218.57 216.396 219.192 216.684 220.016C216.973 220.839 216.795 221.869 217.249 222.664C217.904 223.813 219.68 223.982 220.846 223.298C221.949 222.534 222.749 221.407 223.105 220.115C223.492 219.019 223.818 217.808 224.753 217.092C225.093 216.898 225.398 216.649 225.655 216.354C225.849 215.964 225.923 215.526 225.87 215.094C225.87 212.31 225.437 210.152 226.068 207.455C227.077 203.106 228 200.956 224.802 197.731C223.165 196.101 221.059 195.024 218.778 194.651C216.717 194.313 213.684 197.188 211.599 197.122C206.295 196.912 201.82 192.003 196.764 193.588C194.553 194.283 192.636 195.692 191.316 197.596C188.843 201.236 189.066 202.645 189.424 206.989C189.419 207.319 189.515 207.643 189.7 207.916C189.886 208.138 190.187 208.258 190.368 208.484C190.563 208.784 190.637 209.146 190.574 209.498C190.519 210.205 190.353 210.9 190.084 211.557C190.016 211.666 189.973 211.79 189.961 211.919C189.948 212.047 189.964 212.177 190.009 212.298C190.111 212.436 190.256 212.534 190.421 212.578C192.482 213.319 194.707 211.89 196.912 211.927C199.117 211.964 201.21 213.439 203.485 213.118C205.492 212.809 207.527 212.146 209.551 211.812Z" fill="#2F2E41"/>
<path d="M209.444 301.287C209.307 301.339 209.164 301.376 209.018 301.396L191.136 303.891C190.703 303.953 190.262 303.866 189.886 303.644C189.509 303.422 189.219 303.079 189.064 302.671L173.671 262.643C173.572 262.384 173.529 262.106 173.546 261.829C173.564 261.552 173.641 261.282 173.772 261.037C173.903 260.793 174.086 260.579 174.307 260.411C174.528 260.243 174.783 260.125 175.054 260.065L191.871 256.314C192.001 256.285 192.127 256.239 192.245 256.178L208.601 247.632C208.728 247.565 208.861 247.513 208.999 247.477L227 242.681C227.461 242.557 227.951 242.609 228.377 242.826C228.802 243.042 229.132 243.409 229.302 243.855L242.724 278.756C242.841 279.06 242.88 279.39 242.836 279.713C242.791 280.036 242.665 280.342 242.47 280.603L237.828 286.832C237.61 287.126 237.312 287.351 236.971 287.482L226.827 291.378C226.754 291.406 226.684 291.439 226.616 291.478L209.712 301.159C209.626 301.209 209.537 301.251 209.444 301.287Z" fill="white"/>
<path d="M217.764 248.017L215.478 248.626L209.421 250.241L209.41 250.243L201.117 254.577L198.039 256.185L198.037 256.186L193.415 258.601L193.288 258.63L188.486 259.7L186.166 260.218L176.7 262.329L191.56 300.971L201.314 299.61L203.706 299.276L208.803 298.564L208.862 298.557L225.243 289.174L235.209 285.347L239.759 279.24L226.824 245.604L217.764 248.017Z" fill="#E4E4E4"/>
<path d="M228.955 251.145L179.677 270.071L180.521 272.266L229.799 253.34L228.955 251.145Z" fill="white"/>
<path d="M231.768 258.46L182.49 277.386L183.334 279.581L232.612 260.655L231.768 258.46Z" fill="white"/>
<path d="M237.451 273.236L188.172 292.162L189.016 294.357L238.294 275.431L237.451 273.236Z" fill="white"/>
<path d="M217.764 248.017L232.517 286.381L230.321 287.224L215.478 248.626L217.764 248.017Z" fill="white"/>
<path d="M201.117 254.577L198.087 263.001L197.037 265.922L194.587 272.74L194.062 274.198L193.536 275.662L192.844 277.585L187.878 291.397L186.587 288.04L190.636 276.776L191.553 274.226L191.687 273.854L192.77 270.839L194.137 267.037L195.188 264.114L198.037 256.186L198.039 256.186L201.117 254.577Z" fill="white"/>
<path d="M188.487 259.699L203.705 299.276L201.314 299.61L186.166 260.218L188.487 259.699Z" fill="white"/>
<path d="M185.229 297.596C189.098 297.596 192.235 294.462 192.235 290.595C192.235 286.729 189.098 283.594 185.229 283.594C181.36 283.594 178.223 286.729 178.223 290.595C178.223 294.462 181.36 297.596 185.229 297.596Z" fill="#FFB6B6"/>
<path d="M474.507 248.828C543.262 248.828 599 193.126 599 124.414C599 55.702 543.262 0 474.507 0C405.751 0 350.014 55.702 350.014 124.414C350.014 193.126 405.751 248.828 474.507 248.828Z" fill="#E4E4E4"/>
<path opacity="0.1" d="M566.429 41.3152C578.041 68.4614 579.616 98.8496 570.873 127.05C562.13 155.25 543.638 179.424 518.701 195.253C493.764 211.082 464.008 217.533 434.75 213.455C405.491 209.377 378.637 195.035 358.986 172.991C366.08 189.576 376.697 204.422 390.102 216.499C403.507 228.577 419.379 237.598 436.618 242.936C453.858 248.275 472.053 249.804 489.942 247.418C507.832 245.031 524.989 238.787 540.223 229.116C555.458 219.446 568.407 206.581 578.173 191.412C587.939 176.244 594.288 159.135 596.781 141.272C599.274 123.408 597.85 105.216 592.609 87.9561C587.368 70.6965 578.435 54.782 566.429 41.3152Z" fill="black"/>
<path d="M474.165 124.413H473.823L467.666 477.147H480.663L474.165 124.413Z" fill="#E4E4E4"/>
<path d="M565.03 478.652H0.676683C0.497215 478.652 0.325098 478.58 0.198195 478.454C0.0712926 478.327 0 478.155 0 477.975C0 477.796 0.0712926 477.624 0.198195 477.497C0.325098 477.37 0.497215 477.299 0.676683 477.299H565.03C565.209 477.299 565.382 477.37 565.508 477.497C565.635 477.624 565.707 477.796 565.707 477.975C565.707 478.155 565.635 478.327 565.508 478.454C565.382 478.58 565.209 478.652 565.03 478.652Z" fill="#CACACA"/>
</g>
<defs>
<clipPath id="clip0_6_1668">
<rect width="599" height="479" fill="white"/>
</clipPath>
</defs>
</svg>
