<svg width="584" height="383" viewBox="0 0 584 383" fill="none" xmlns="http://www.w3.org/2000/svg">
<g clip-path="url(#clip0_3_4)">
<path d="M499.437 374.107L499.453 380.326V381.64H487.445V379.669L487.437 355.347L487.421 331.785V327.459L487.414 309.92L487.406 309.638L485.317 250.583V250.536L483.189 190.339V190.331L483.134 188.696L472.769 194.196L459.987 200.978L453.916 204.201L445.248 208.793L430.635 216.554H430.627L354.839 256.755L354.683 380.326V381.64H343.089L343.042 380.326L339.193 261.449L227.42 216.882L215.592 212.165L210.538 142.408C209.271 124.924 218.643 108.895 233.475 101.088C237.136 99.1634 241.126 97.7397 245.366 96.9183L262.435 93.6092L305.039 85.3404L318.823 82.6728L336.839 79.176L343.942 77.7991L355.621 75.5305L356.677 75.3271L359.971 74.6856L361.144 74.4587L363.053 74.0911L364.399 76.4692C364.406 76.4692 364.406 76.4771 364.406 76.4849L372.323 90.5348L373.747 93.0694L373.755 93.0772L380.616 105.242C380.616 105.242 380.623 105.25 380.623 105.257L387.304 117.117L400.415 119.722L406.877 121.005L446.93 128.961L452.211 130.017H452.218L465.58 132.669L469.116 133.373L485.63 136.651L485.755 136.674L493.085 138.129L505.43 140.586L499.257 309.92L499.375 351.201V351.209L499.437 374.107Z" fill="#3F3D56"/>
<path d="M294.509 47.7827C292.757 44.4815 287.719 37.4174 281.914 29.485C280.835 28.0065 279.732 26.5045 278.621 24.9868C276.642 22.3036 274.631 19.5734 272.683 16.9136C271.439 15.1613 269.006 14.7467 267.254 15.9827L255.582 24.2436C253.83 25.4797 253.408 27.9126 254.651 29.6649L258.164 34.6325L259.087 35.9389L260.448 37.8633L262.083 40.1711V40.1789L262.545 40.8203L264.172 43.1281L265.072 44.3954L272.949 55.5352L276.485 60.534C277.721 62.2863 280.154 62.701 281.906 61.4649L292.06 54.2757L293.492 53.2666L293.578 53.204C295.33 51.968 295.753 49.535 294.509 47.7827Z" fill="#3F3D56"/>
<path d="M281.899 29.3129L278.855 25.0181C278.801 24.9399 278.699 24.9242 278.629 24.979L278.621 24.9868C278.55 25.0338 278.535 25.1277 278.589 25.2059L281.633 29.5085C281.679 29.5789 281.781 29.5945 281.859 29.5476C281.883 29.5319 281.899 29.5085 281.914 29.485C281.938 29.4302 281.938 29.3676 281.899 29.3129Z" fill="#3F3D56"/>
<path d="M272.378 17.1265L294.209 47.9964C295.287 49.521 294.983 51.6072 293.551 52.7649C293.529 52.782 293.508 52.7995 293.485 52.8163C293.447 52.8464 293.408 52.8751 293.368 52.9036C293.368 52.9036 293.212 52.9973 292.928 53.1682C292.641 53.341 292.222 53.5915 291.699 53.9021C291.542 53.9957 291.377 54.0936 291.202 54.1971C290.854 54.403 290.471 54.6291 290.06 54.8697C289.896 54.9662 289.727 55.0652 289.553 55.1665C288.668 55.6848 287.674 56.2618 286.621 56.8634C286.443 56.9658 286.264 57.0685 286.083 57.1714C286.035 57.1981 277.038 60.68 276.783 60.3198L254.952 29.4499C253.83 27.8622 254.206 25.6655 255.794 24.5427L257.51 23.3292C257.784 23.1353 258.156 23.1931 258.373 23.4499C258.387 23.4667 258.402 23.4834 258.419 23.4991C258.663 23.7388 259.05 23.7521 259.329 23.5544L265.361 19.2888C265.641 19.0912 265.757 18.7215 265.613 18.4115C265.603 18.391 265.592 18.3714 265.582 18.3519C265.412 18.0618 265.481 17.6922 265.755 17.4984L267.471 16.2848C269.059 15.162 271.256 15.5388 272.378 17.1265Z" fill="#8C0327"/>
<path d="M259.079 35.7824L258.313 34.7028C258.281 34.6559 258.227 34.6246 258.164 34.6325C258.14 34.6325 258.109 34.6481 258.086 34.6637C258.015 34.7185 257.992 34.8202 258.047 34.8906L258.805 35.9701C258.86 36.0406 258.962 36.064 259.04 36.0093C259.064 35.9936 259.079 35.9701 259.087 35.9388C259.11 35.8919 259.11 35.8293 259.079 35.7824Z" fill="#3F3D56"/>
<path d="M262.068 40.0146L260.597 37.9259C260.558 37.8789 260.503 37.8555 260.448 37.8633C260.417 37.8633 260.386 37.8712 260.37 37.8868C260.292 37.9415 260.276 38.0432 260.331 38.1215L261.802 40.2024C261.856 40.2727 261.958 40.2962 262.028 40.2415C262.052 40.2258 262.068 40.2024 262.083 40.1789V40.1711C262.107 40.1241 262.107 40.0616 262.068 40.0146Z" fill="#3F3D56"/>
<path d="M264.156 42.9716L262.686 40.8829C262.646 40.836 262.592 40.8125 262.545 40.8203C262.513 40.8203 262.482 40.8282 262.459 40.8438C262.38 40.8986 262.365 41.0003 262.42 41.0785L263.89 43.1594C263.945 43.2298 264.047 43.2532 264.117 43.1985C264.141 43.1829 264.164 43.1594 264.172 43.1281C264.195 43.0812 264.195 43.0186 264.156 42.9716Z" fill="#3F3D56"/>
<path d="M257.653 23.9338L255.369 25.5493C255.276 25.6149 255.254 25.7433 255.32 25.8361C255.385 25.9289 255.514 25.9509 255.607 25.8853L257.891 24.2697C257.984 24.2041 258.006 24.0757 257.94 23.983C257.875 23.8902 257.746 23.8682 257.653 23.9338Z" fill="#E6E6E6"/>
<path d="M266.56 18.065C266.742 18.065 266.889 17.9177 266.889 17.7359C266.889 17.5541 266.742 17.4067 266.56 17.4067C266.378 17.4067 266.231 17.5541 266.231 17.7359C266.231 17.9177 266.378 18.065 266.56 18.065Z" fill="#E6E6E6"/>
<path d="M267.299 17.5424C267.481 17.5424 267.628 17.395 267.628 17.2132C267.628 17.0314 267.481 16.884 267.299 16.884C267.117 16.884 266.97 17.0314 266.97 17.2132C266.97 17.395 267.117 17.5424 267.299 17.5424Z" fill="#E6E6E6"/>
<path d="M268.038 17.0197C268.22 17.0197 268.367 16.8723 268.367 16.6905C268.367 16.5087 268.22 16.3613 268.038 16.3613C267.856 16.3613 267.709 16.5087 267.709 16.6905C267.709 16.8723 267.856 17.0197 268.038 17.0197Z" fill="#E6E6E6"/>
<path d="M355.621 36.1501H310.249V79.176H355.621V36.1501Z" fill="#2F2E41"/>
<path d="M278.185 50.1145C276.763 52.4236 274.938 54.2201 273.053 55.3371L260.898 78.1894L250.193 72.0875L263.676 49.5631C263.825 47.3773 264.607 44.9386 266.029 42.6295C269.277 37.3545 274.631 34.7539 277.988 36.8208C281.345 38.8877 281.433 44.8395 278.185 50.1145Z" fill="#A0616A"/>
<path d="M484.466 355.941L494.226 353.985L489.823 309.154L475.42 312.039L484.466 355.941Z" fill="#A0616A"/>
<path d="M522.33 368.699C522.699 370.339 521.834 371.931 520.399 372.254L501.13 376.59C501.13 376.59 497.518 369.394 489.049 367.853L490.969 378.876L481.028 381.113L478.288 363.311C478.288 363.311 473.518 354.53 477.962 348.493C482.405 342.456 478.082 344.13 478.082 344.13L477.813 332.791L493.231 331.177L497.175 348.185L508.268 363.451L520.149 366.327C521.206 366.583 522.063 367.515 522.33 368.699Z" fill="#2F2E41"/>
<path d="M316.116 126.504L316.898 131.98C316.898 131.98 333.326 149.973 337.238 157.796L384.689 134.327L376.352 114.77L316.116 126.504Z" fill="#A0616A"/>
<path d="M375.57 132.763C375.57 132.763 331.232 145.279 335.017 157.796C338.802 170.313 341.14 175.453 341.14 175.453C341.14 175.453 332.544 194.564 359.142 203.169C385.74 211.774 442.847 218.032 442.847 218.032L476.876 330.291L492.913 325.988L479.894 196.715L416.249 174.224L420.16 150.755L406.861 156.231L384.689 131.694L375.57 132.763Z" fill="#E6E6E6"/>
<path d="M441.826 242.204L451.295 245.272L469.385 204.018L455.412 199.488L441.826 242.204Z" fill="#A0616A"/>
<path d="M468.609 271.854C468.129 273.464 466.596 274.429 465.186 274.009L446.259 268.365C446.259 268.365 446.629 260.322 439.995 254.836L436.278 265.389L426.514 262.477L432.832 245.61C432.832 245.61 432.967 235.618 439.796 232.526C446.625 229.434 442.036 228.78 442.036 228.78L447.348 218.758L461.585 224.893L456.704 241.656L458.912 260.397L467.867 268.717C468.664 269.458 468.956 270.69 468.609 271.854Z" fill="#2F2E41"/>
<path d="M403.021 157.796L420.16 150.755L460.057 124.94C460.057 124.94 490.566 100.535 492.913 133.468C495.26 166.401 473.356 217.25 473.356 217.25L445.193 209.427L448.055 174.566L411.164 185.567L403.021 157.796Z" fill="#E6E6E6"/>
<path d="M359.801 70.8387L381.437 129.242L410.773 161.707L439.717 142.932L406.273 134.327L407.16 114.77L359.801 70.8387Z" fill="#2F2E41"/>
<path d="M232.74 379.96V381.64H221.09L221.06 379.96L217.03 165H232.12L232.15 171.03L232.74 379.96Z" fill="#3F3D56"/>
<path d="M475.173 146.488C472.74 145.292 470.778 143.646 469.487 141.875L445.584 131.946L450.641 120.71L474.344 131.992C476.534 131.933 479.036 132.48 481.47 133.676C487.03 136.408 490.127 141.491 488.388 145.029C486.65 148.567 480.733 149.22 475.173 146.488Z" fill="#A0616A"/>
<path d="M348.972 67.8328L354.5 65.4336C354.5 65.4336 376.352 71.658 378.308 75.2214C380.264 78.7848 391.216 93.6483 391.216 93.6483L468.662 126.504L461.622 140.586L406.861 126.504L377.134 95.2129L348.972 67.8328Z" fill="#2F2E41"/>
<path d="M340.367 63.139L314.551 61.5745L301.252 68.6151L316.116 134.327C316.116 134.327 359.887 115.552 379.072 121.42C379.072 121.42 386.011 103.441 373.75 93.0686L353.666 66.2682L340.367 63.139Z" fill="#8C0327"/>
<path d="M312.987 65.4859L312.738 62.9486L287.171 72.5265C287.171 72.5265 277.784 79.5671 274.655 82.6963C271.525 85.8254 262.138 92.0837 262.138 92.0837L269.961 63.9213L257.444 58.4453C257.444 58.4453 219.894 107.729 237.887 111.641C255.88 115.552 287.171 108.512 287.171 108.512L288.736 195.346L354.057 197.302L327.068 106.947L312.987 65.4859Z" fill="#2F2E41"/>
<path d="M332.455 58.0708C344.673 58.0708 354.578 48.1661 354.578 35.948C354.578 23.73 344.673 13.8253 332.455 13.8253C320.237 13.8253 310.332 23.73 310.332 35.948C310.332 48.1661 320.237 58.0708 332.455 58.0708Z" fill="#A0616A"/>
<path d="M321.983 0.164833C307.844 2.35327 308.518 7.60717 303.99 10.3346C296.014 15.1397 292.867 29.0153 297.08 38.1717C298.205 40.6182 300.578 43.9556 299.426 47.5592C298.542 50.3254 295.994 51.9573 295.515 52.2529C291.597 54.6718 294.156 51.7941 292.386 53.8175C290.432 56.0508 293.459 59.2054 291.604 63.2049C289.959 66.7506 286.568 66.4513 286.128 68.6809C285.369 72.5203 294.074 80.2401 303.338 79.633C311.586 79.0925 317.714 72.1191 319.766 65.5518C321.14 61.1526 321.733 53.5855 318.201 49.906C317.706 49.39 316.352 48.1403 315.072 45.9946C314.06 44.2966 312.726 42.0615 313.508 40.5186C314.34 38.8748 316.699 39.74 318.201 38.1717C320.239 36.0449 317.818 32.4515 318.201 28.7842C318.85 22.5744 327.649 15.1058 336.976 16.2676C347.557 17.5856 351.438 29.0914 351.84 30.3488C352.672 32.9549 352.655 35.4761 352.622 40.5186C352.574 47.7549 352.544 52.2904 350.275 56.9466C347.011 63.6436 342.853 62.9201 341.67 67.8987C339.826 75.661 348.501 83.4569 349.493 84.3267C356.849 90.7753 367.959 92.7142 369.832 89.8027C371.52 87.1791 364.111 83.098 364.356 74.9393C364.569 67.869 370.291 65.7137 369.05 60.8581C367.684 55.5132 360.395 56.7324 357.316 50.6883C354.442 45.0467 359.738 41.9166 358.88 30.3488C358.699 27.9018 357.93 20.8788 353.404 13.9208C351.41 10.8554 349.382 7.7378 345.581 6.09787C341.326 4.26199 329.462 -0.992747 321.983 0.164833Z" fill="#2F2E41"/>
<path d="M312.596 19.722C313.169 24.5663 320.444 26.9403 323.548 27.5449C324.862 27.801 329.304 28.6664 333.717 26.7626C335.348 26.0589 335.943 25.4226 337.629 25.1981C339.912 24.8942 341.062 25.7624 344.669 26.7626C348.681 27.8749 350.687 28.431 351.71 27.5449C353.382 26.0965 352.098 21.358 350.145 18.1575C346.536 12.2396 339.928 10.4071 336.847 9.5523C333.326 8.57578 326.181 6.59408 319.636 10.3346C318.761 10.8347 312.012 14.8003 312.596 19.722Z" fill="#2F2E41"/>
<path d="M483.685 146.64C473.245 151.508 469.096 145.15 469.096 145.15L469.1 143.255L469.131 118.88C476.402 114.134 488.673 121.027 488.673 121.027L483.952 145.269L483.685 146.64Z" fill="#3F3D56"/>
<path d="M487.062 116.57C487.062 116.57 476.269 111.949 470.439 115.429C470.439 115.429 464.36 121.59 469.121 123.381L487.862 125.197C487.862 125.197 492.124 122.34 490.265 119.988C488.407 117.637 487.062 116.57 487.062 116.57Z" fill="#8C0327"/>
<path d="M101.03 310L110.03 383L179.03 382L179.88 310H101.03Z" fill="#F2F2F2"/>
<path d="M158.338 297.862C156.272 297.991 155.131 295.425 156.694 293.929L156.849 293.31C156.829 293.261 156.808 293.212 156.788 293.163C154.693 288.17 150.944 292.883 145.54 293.218C137.593 293.711 137.712 299.722 140.79 306.75C141.626 308.658 134.532 293.264 134.532 282.929C134.532 280.333 134.674 277.736 134.964 275.146C135.203 273.028 135.533 270.922 135.959 268.836C138.265 257.559 143.258 246.818 150.459 237.847C153.921 235.954 156.808 232.996 158.552 229.45C159.179 228.171 164.561 227.091 164.794 225.689C164.4 225.741 158.416 219.445 158.714 219.077C158.165 218.244 157.182 217.83 156.582 217.017C153.6 212.973 149.491 213.679 147.346 219.174C142.764 221.487 142.719 225.322 145.531 229.011C147.32 231.358 147.566 234.533 149.135 237.046C148.974 237.252 148.806 237.452 148.644 237.659C148.582 237.739 148.52 237.819 148.458 237.898C145.925 241.176 140.867 240.337 139.456 236.441C139.353 236.157 138.48 251.547 139.137 235.618C139.794 219.689 134.065 227.798 131.164 224.125C127.7 219.737 120.653 221.731 120.042 227.288C120.036 227.341 120.031 227.395 120.025 227.448C120.454 227.69 120.874 227.947 121.285 228.218C123.624 229.765 122.815 233.392 120.043 233.819L119.98 233.829C120.135 235.373 120.4 236.903 120.787 238.408C117.086 252.721 125.073 257.936 136.48 258.172L137.075 259.018C135.994 262.126 135.126 265.309 134.473 268.533C133.86 271.523 133.434 274.546 133.195 277.581L133.185 277.711C132.987 280.294 129.719 281.392 128.077 279.389C127.659 278.879 127.231 278.433 126.8 278.079C121.855 274.016 114.867 272.52 109.532 269.254C106.964 267.683 103.673 269.714 104.121 272.692L104.143 272.834C104.937 273.157 105.712 273.532 106.461 273.952C106.891 274.194 107.311 274.451 107.722 274.723C110.062 276.27 109.252 279.897 106.479 280.323L106.416 280.333C106.371 280.339 106.332 280.346 106.287 280.352L106.328 280.449C108.112 284.646 112.375 287.364 116.928 287.115C122.287 286.822 128.944 291.302 134.816 299.225L134.822 299.225C135.985 304.289 137.683 309.236 139.867 313.951H157.887C157.951 313.751 158.01 313.544 158.068 313.344C156.401 313.448 154.722 313.351 153.081 313.047C154.418 311.406 155.755 309.753 157.092 308.112C157.125 308.08 157.151 308.048 157.176 308.016C157.855 307.176 158.539 306.343 159.217 305.503L159.218 305.502C159.26 302.925 158.951 300.355 158.338 297.862Z" fill="#F2F2F2"/>
<path d="M583.04 381.8C583.04 382.264 582.664 382.64 582.2 382.64H0V380.96H582.2C582.664 380.96 583.04 381.336 583.04 381.8Z" fill="#E6E6E6"/>
</g>
<defs>
<clipPath id="clip0_3_4">
<rect width="583.04" height="383" fill="white"/>
</clipPath>
</defs>
</svg>
