<svg width="516" height="406" viewBox="0 0 516 406" fill="none" xmlns="http://www.w3.org/2000/svg">
<g clip-path="url(#clip0_3_1155)">
<path d="M316.877 360.599L303.105 373.273L314.05 354.915C305.427 339.285 291.325 325.776 291.325 325.776C291.325 325.776 262.069 353.796 262.069 375.822C262.069 397.848 275.167 405.539 291.325 405.539C307.483 405.539 320.582 397.848 320.582 375.822C320.582 370.92 319.13 365.72 316.877 360.599Z" fill="#F2F2F2"/>
<path d="M299.564 373.959V375.044C299.5 387.664 297.371 397.511 293.193 404.444C293.134 404.546 293.069 404.643 293.01 404.745L292.542 404.46L292.096 404.181C296.731 396.694 298.371 386.111 298.43 375.103C298.435 374.749 298.441 374.389 298.435 374.029C298.419 369.369 298.134 364.655 297.677 360.076C297.645 359.721 297.607 359.361 297.569 359.001C296.935 352.96 296.021 347.187 295.086 342.173C295.021 341.818 294.951 341.463 294.881 341.114C293.263 332.633 291.612 326.489 291.236 325.13C291.193 324.963 291.166 324.872 291.161 324.85L291.671 324.705L291.677 324.7L292.193 324.555C292.198 324.576 292.29 324.882 292.44 325.452C293.016 327.58 294.51 333.358 295.978 340.98C296.043 341.324 296.112 341.678 296.177 342.033C296.94 346.102 297.688 350.649 298.279 355.421C298.43 356.62 298.564 357.802 298.682 358.969C298.725 359.329 298.763 359.689 298.795 360.044C299.29 364.994 299.546 369.632 299.564 373.959Z" fill="white"/>
<path d="M295.978 340.98C295.618 341.028 295.252 341.076 294.881 341.114C293.874 341.218 292.862 341.27 291.849 341.27C287.533 341.276 283.27 340.313 279.375 338.454C279.149 338.738 278.924 339.023 278.692 339.313C282.79 341.313 287.29 342.35 291.849 342.345C292.93 342.345 294.01 342.287 295.085 342.173C295.451 342.135 295.817 342.087 296.177 342.033C299.15 341.607 302.042 340.731 304.753 339.437C304.521 339.141 304.296 338.851 304.075 338.566C301.51 339.765 298.781 340.578 295.978 340.98Z" fill="white"/>
<path d="M298.683 358.969C298.312 358.99 297.941 359.001 297.57 359.001C297.457 359.006 297.338 359.006 297.225 359.006C292.549 359.006 287.941 357.876 283.796 355.711C279.65 353.547 276.09 350.412 273.418 346.575C273.203 346.892 272.988 347.209 272.778 347.531C275.563 351.414 279.233 354.578 283.484 356.76C287.736 358.943 292.446 360.081 297.225 360.081C297.376 360.081 297.527 360.081 297.677 360.076C298.054 360.07 298.424 360.06 298.795 360.044C304.536 359.75 310.07 357.809 314.737 354.454C314.565 354.137 314.393 353.82 314.215 353.503C309.68 356.797 304.282 358.696 298.683 358.969Z" fill="white"/>
<path d="M299.564 373.959C299.188 373.991 298.811 374.012 298.435 374.029C298.032 374.045 297.629 374.055 297.225 374.055C290.941 374.048 284.828 372.006 279.801 368.235C274.775 364.464 271.105 359.167 269.343 353.137C269.101 353.572 268.859 354.002 268.627 354.438C270.614 360.454 274.446 365.691 279.58 369.406C284.714 373.121 290.888 375.124 297.225 375.13C297.629 375.13 298.032 375.125 298.43 375.103C298.811 375.093 299.188 375.071 299.564 375.044C307.166 374.45 314.258 370.99 319.404 365.365C319.291 364.967 319.162 364.574 319.033 364.177C314.062 369.844 307.079 373.353 299.564 373.959Z" fill="white"/>
<path d="M70.5775 143.267C109.556 143.267 141.155 111.679 141.155 72.7138C141.155 33.7484 109.556 2.16071 70.5775 2.16071C31.5986 2.16071 0 33.7484 0 72.7138C0 111.679 31.5986 143.267 70.5775 143.267Z" fill="#E4E4E4"/>
<path d="M70.5773 131.508C103.06 131.508 129.392 105.185 129.392 72.7138C129.392 40.2426 103.06 13.9196 70.5773 13.9196C38.0949 13.9196 11.7627 40.2426 11.7627 72.7138C11.7627 105.185 38.0949 131.508 70.5773 131.508Z" fill="#8C0327"/>
<path d="M258 143.267C296.979 143.267 328.577 111.679 328.577 72.7138C328.577 33.7484 296.979 2.16071 258 2.16071C219.021 2.16071 187.422 33.7484 187.422 72.7138C187.422 111.679 219.021 143.267 258 143.267Z" fill="#E4E4E4"/>
<path d="M258 131.508C290.483 131.508 316.815 105.185 316.815 72.7138C316.815 40.2426 290.483 13.9196 258 13.9196C225.518 13.9196 199.186 40.2426 199.186 72.7138C199.186 105.185 225.518 131.508 258 131.508Z" fill="white"/>
<path d="M445.423 143.267C484.402 143.267 516 111.679 516 72.7138C516 33.7484 484.402 2.16071 445.423 2.16071C406.444 2.16071 374.845 33.7484 374.845 72.7138C374.845 111.679 406.444 143.267 445.423 143.267Z" fill="#E4E4E4"/>
<path d="M445.422 131.508C477.905 131.508 504.237 105.185 504.237 72.7138C504.237 40.2426 477.905 13.9196 445.422 13.9196C412.94 13.9196 386.608 40.2426 386.608 72.7138C386.608 105.185 412.94 131.508 445.422 131.508Z" fill="white"/>
<path d="M65.5796 93.9752C65.4744 93.9752 65.3692 93.9726 65.2638 93.9675C64.3336 93.9227 63.4241 93.6772 62.5977 93.248C61.7714 92.8188 61.0476 92.216 60.4762 91.4809L51.4543 79.8853C50.4038 78.532 49.9332 76.8174 50.1457 75.1176C50.3582 73.4179 51.2364 71.8718 52.5878 70.8185L52.9123 70.5659C54.2662 69.5159 55.9815 69.0454 57.6819 69.2578C59.3823 69.4702 60.9291 70.3481 61.9829 71.699C62.4913 72.3526 63.1351 72.8886 63.87 73.2704C64.6049 73.6522 65.4137 73.8707 66.241 73.911C67.0683 73.9514 67.8945 73.8125 68.6631 73.504C69.4317 73.1955 70.1245 72.7246 70.6942 72.1235L89.0132 52.7927C89.597 52.1766 90.2964 51.6816 91.0716 51.3358C91.8467 50.99 92.6824 50.8003 93.5309 50.7774C94.3795 50.7545 95.2242 50.8989 96.0169 51.2023C96.8096 51.5058 97.5347 51.9624 98.1509 52.546L98.4499 52.8293C99.6943 54.0078 100.419 55.6322 100.466 57.3451C100.512 59.058 99.8755 60.7192 98.6966 61.9631L70.2703 91.9574C69.6668 92.595 68.9395 93.1027 68.133 93.4496C67.3264 93.7966 66.4576 93.9754 65.5796 93.9752Z" fill="white"/>
<path d="M227.024 58.4279H180.57V18.0413C180.618 15.5406 181.655 13.1609 183.456 11.4239C185.256 9.68683 187.671 8.73417 190.173 8.77474H205.615C217.42 8.77474 227.024 18.0423 227.024 29.4336V58.4279Z" fill="#2F2E41"/>
<path d="M244.222 396.381L235.404 396.381L231.208 362.377L244.224 362.378L244.222 396.381Z" fill="#FFB6B6"/>
<path d="M246.471 404.927L218.036 404.926V404.566C218.036 401.632 219.202 398.818 221.278 396.743C223.353 394.668 226.168 393.503 229.104 393.502L246.472 393.503L246.471 404.927Z" fill="#2F2E41"/>
<path d="M162.938 396.381L154.119 396.381L149.924 362.377L162.94 362.378L162.938 396.381Z" fill="#FFB6B6"/>
<path d="M165.187 404.927L136.751 404.926V404.566C136.752 401.632 137.918 398.818 139.993 396.743C142.069 394.668 144.884 393.503 147.819 393.502L165.188 393.503L165.187 404.927Z" fill="#2F2E41"/>
<path d="M173.586 123.203L167.832 159.876L222.5 160.595L215.307 125.36L173.586 123.203Z" fill="#FFB6B6"/>
<path d="M169.418 150.922L152.006 197.268L149.848 389.337H164.594L199.842 235.02L232.212 385.308H246.598L236.528 216.324C236.528 216.324 239.497 182.407 224.299 162.393L220.599 151.709L169.418 150.922Z" fill="#2F2E41"/>
<path d="M244.105 187.051C242.583 186.636 241.17 185.893 239.966 184.874C238.763 183.854 237.797 182.583 237.138 181.15C236.479 179.718 236.142 178.158 236.151 176.581C236.16 175.003 236.515 173.447 237.191 172.022L213.934 96.2248L231.04 92.835L252.311 167.132C254.631 168.426 256.395 170.525 257.27 173.032C258.145 175.539 258.07 178.28 257.058 180.735C256.047 183.191 254.17 185.19 251.782 186.354C249.395 187.518 246.663 187.766 244.105 187.051Z" fill="#FFB6B6"/>
<path d="M213.327 143.456L175.642 142.729C174.565 142.706 173.525 142.331 172.682 141.661C171.838 140.99 171.238 140.062 170.972 139.019C168.952 131.023 164.507 110.185 166.865 89.4297C167.33 85.409 168.598 81.5224 170.592 77.9999C172.586 74.4774 175.267 71.3906 178.475 68.922C181.684 66.4534 185.355 64.6531 189.272 63.6278C193.189 62.6025 197.272 62.3729 201.279 62.9526C205.506 63.5576 209.557 65.0492 213.167 67.3295C216.777 69.6098 219.864 72.6273 222.225 76.1841C224.586 79.7408 226.169 83.7565 226.868 87.9675C227.568 92.1786 227.369 96.4899 226.284 100.619C221.54 118.627 218.861 131.51 218.32 138.911C218.24 139.981 217.812 140.996 217.101 141.8C216.39 142.604 215.435 143.153 214.382 143.363C214.069 143.425 213.751 143.457 213.432 143.457C213.397 143.457 213.362 143.457 213.327 143.456Z" fill="#E4E4E4"/>
<path d="M98.8563 76.8766C99.0826 77.3841 99.2686 77.9087 99.4125 78.4455L146.583 94.4689L155.698 86.509L169.513 98.6899L154.747 114.349C153.554 115.614 151.983 116.458 150.269 116.755C148.556 117.051 146.792 116.784 145.243 115.993L94.7677 90.2189C92.9424 91.3382 90.8194 91.8754 88.6812 91.7591C86.543 91.6428 84.4908 90.8786 82.7977 89.5679C81.1046 88.2573 79.8508 86.4625 79.203 84.4221C78.5553 82.3817 78.5442 80.1926 79.1714 78.1458C79.7986 76.099 81.0343 74.2917 82.7141 72.9641C84.394 71.6365 86.4383 70.8516 88.5753 70.7138C90.7122 70.576 92.8405 71.0919 94.677 72.1927C96.5135 73.2936 97.9712 74.9273 98.8563 76.8766Z" fill="#FFB6B6"/>
<path d="M146.681 91.9135C146.684 91.2642 146.828 90.6232 147.102 90.0344C147.376 89.4457 147.774 88.9229 148.269 88.5019L165.541 73.7947C167.726 71.2908 170.816 69.7557 174.133 69.5261C177.449 69.2964 180.721 70.391 183.231 72.5697C185.741 74.7484 187.285 77.8334 187.522 81.1481C187.76 84.4627 186.673 87.7363 184.5 90.2509L172.201 109.397C171.849 109.944 171.385 110.408 170.838 110.759C170.291 111.109 169.675 111.338 169.032 111.429C168.389 111.52 167.734 111.472 167.111 111.287C166.488 111.103 165.912 110.786 165.423 110.359L148.227 95.3447C147.738 94.9177 147.346 94.3901 147.079 93.7979C146.812 93.2058 146.676 92.563 146.681 91.9135Z" fill="#E4E4E4"/>
<path d="M212.892 115.425C212.317 115.122 211.814 114.7 211.417 114.185C211.021 113.671 210.74 113.077 210.594 112.444L205.487 90.3457C204.271 87.2534 204.331 83.8051 205.654 80.757C206.977 77.7089 209.456 75.3098 212.546 74.0857C215.636 72.8617 219.086 72.9126 222.138 74.2274C225.191 75.5422 227.597 78.0135 228.83 81.0993L240.168 100.83C240.491 101.393 240.69 102.019 240.749 102.666C240.809 103.313 240.729 103.964 240.513 104.577C240.298 105.19 239.954 105.749 239.503 106.217C239.052 106.684 238.506 107.049 237.901 107.287L216.651 115.632C216.046 115.87 215.397 115.974 214.749 115.939C214.1 115.903 213.466 115.728 212.892 115.425Z" fill="#E4E4E4"/>
<path d="M231.173 12.7212C232.918 8.63781 229.917 3.44227 224.471 1.11658C219.024 -1.20911 213.195 0.215744 211.45 4.29911C209.705 8.38248 212.706 13.5781 218.152 15.9038C223.598 18.2294 229.428 16.8046 231.173 12.7212Z" fill="#2F2E41"/>
<path d="M214.277 43.0734C220.104 32.4186 216.186 19.0596 205.528 13.2352C194.87 7.41085 181.506 11.3266 175.68 21.9813C169.853 32.6361 173.77 45.995 184.429 51.8194C195.087 57.6438 208.451 53.7281 214.277 43.0734Z" fill="#FFB6B6"/>
<path d="M207.044 7.34589H181.887C180.042 7.32203 178.257 7.99609 176.889 9.2329C175.521 10.4697 174.671 12.1778 174.51 14.0146C174.445 14.9907 174.582 15.9698 174.91 16.8912C175.239 17.8125 175.754 18.6566 176.423 19.371C177.091 20.0853 177.899 20.6549 178.797 21.0442C179.695 21.4336 180.663 21.6345 181.642 21.6346C183.537 21.6346 185.355 22.3873 186.695 23.7271C188.036 25.0669 188.789 26.8841 188.789 28.7789V58.0707H228.096V28.3907C228.096 25.6271 227.552 22.8905 226.494 20.3372C225.436 17.7839 223.885 15.464 221.93 13.5098C219.975 11.5556 217.654 10.0054 215.1 8.94783C212.546 7.89023 209.809 7.34589 207.044 7.34589Z" fill="#2F2E41"/>
<path d="M331.058 406H58.7645C58.5749 406 58.3932 405.925 58.2591 405.791C58.1251 405.657 58.0498 405.475 58.0498 405.286C58.0498 405.096 58.1251 404.914 58.2591 404.78C58.3932 404.646 58.5749 404.571 58.7645 404.571H331.058C331.248 404.571 331.429 404.646 331.563 404.78C331.698 404.914 331.773 405.096 331.773 405.286C331.773 405.475 331.698 405.657 331.563 405.791C331.429 405.925 331.248 406 331.058 406Z" fill="#CACACA"/>
</g>
<defs>
<clipPath id="clip0_3_1155">
<rect width="516" height="406" fill="white"/>
</clipPath>
</defs>
</svg>
