<svg width="328" height="390" viewBox="0 0 328 390" fill="none" xmlns="http://www.w3.org/2000/svg">
<g clip-path="url(#clip0_3_352)">
<path d="M82.3191 108.074C102.408 108.074 118.693 91.7963 118.693 71.7169C118.693 51.6374 102.408 35.3599 82.3191 35.3599C62.2305 35.3599 45.9455 51.6374 45.9455 71.7169C45.9455 91.7963 62.2305 108.074 82.3191 108.074Z" fill="#3F3D56"/>
<path d="M290.988 120.193C311.077 120.193 327.362 103.915 327.362 83.8359C327.362 63.7565 311.077 47.4789 290.988 47.4789C270.9 47.4789 254.615 63.7565 254.615 83.8359C254.615 103.915 270.9 120.193 290.988 120.193Z" fill="#3F3D56"/>
<path d="M291.626 46.2032C284.64 46.2033 277.801 48.2147 271.928 51.9971C266.055 55.7794 261.396 61.1725 258.508 67.5315C264.735 61.9875 272.678 58.7508 281.008 58.3635C289.338 57.9762 297.548 60.4618 304.262 65.404C310.977 70.3462 315.789 77.4447 317.891 85.5104C319.994 93.5761 319.259 102.119 315.811 109.708C321.319 104.808 325.207 98.3503 326.959 91.1913C328.71 84.0323 328.244 76.5101 325.621 69.6221C322.998 62.7342 318.342 56.8059 312.271 52.6235C306.2 48.441 299 46.202 291.626 46.2032Z" fill="#8C0327"/>
<path d="M81.6809 34.0842C88.6676 34.0843 95.5063 36.0958 101.379 39.8781C107.253 43.6604 111.912 49.0535 114.799 55.4125C108.573 49.8686 100.629 46.6318 92.2993 46.2445C83.9696 45.8572 75.7597 48.3429 69.045 53.2851C62.3303 58.2273 57.5187 65.3258 55.4162 73.3914C53.3137 81.4571 54.0481 90 57.4963 97.5889C51.9884 92.689 48.1008 86.2314 46.3488 79.0723C44.5969 71.9133 45.0634 64.3911 47.6866 57.5032C50.3097 50.6152 54.9655 44.687 61.0367 40.5045C67.1078 36.3221 74.3075 34.083 81.6809 34.0842Z" fill="#8C0327"/>
<path d="M187.611 252.864C187.626 271.43 182.131 289.584 171.821 305.027C161.511 320.471 146.849 332.51 129.691 339.622C112.534 346.734 93.6506 348.599 75.4321 344.981C57.2136 341.362 40.4784 332.423 27.3441 319.295C14.2098 306.167 5.26686 289.439 1.64685 271.229C-1.97317 253.019 -0.107541 234.144 7.00768 216.994C14.1229 199.844 26.1679 185.189 41.6185 174.884C57.0691 164.579 75.2308 159.086 93.8055 159.101C106.136 159.06 118.353 161.456 129.753 166.154C141.152 170.851 151.51 177.756 160.229 186.471C168.948 195.186 175.856 205.539 180.555 216.933C185.255 228.328 187.653 240.539 187.611 252.864Z" fill="#3F3D56"/>
<path d="M187.611 252.864C187.629 266.286 184.754 279.554 179.181 291.766C163.119 291.551 147.295 287.858 132.798 280.94C118.302 274.023 105.479 264.046 95.2122 251.697C84.9456 239.348 77.4798 224.921 73.3293 209.41C69.1789 193.899 68.4425 177.673 71.1709 161.85C84.9958 158.43 99.4181 158.198 113.346 161.173C127.274 164.147 140.342 170.25 151.561 179.019C162.78 187.789 171.856 198.994 178.102 211.788C184.347 224.582 187.599 238.628 187.611 252.864Z" fill="#8C0327"/>
<path d="M180.591 277.74C241.914 277.74 291.626 228.05 291.626 166.755C291.626 105.46 241.914 55.7708 180.591 55.7708C119.268 55.7708 69.5564 105.46 69.5564 166.755C69.5564 228.05 119.268 277.74 180.591 277.74Z" fill="#3F3D56"/>
<path d="M207.574 170.552C213.325 162.834 221.903 157.71 231.426 156.303C240.95 154.896 250.644 157.32 258.383 163.044C262.683 157.274 265.174 150.357 265.539 143.17C265.905 135.984 264.128 128.85 260.435 122.673C256.742 116.497 251.298 111.554 244.793 108.471C238.288 105.389 231.014 104.305 223.892 105.358C216.77 106.41 210.121 109.551 204.786 114.383C199.452 119.215 195.671 125.52 193.924 132.501C192.177 139.482 192.541 146.824 194.971 153.597C197.401 160.371 201.787 166.271 207.574 170.552Z" fill="white"/>
<path d="M122.703 177.568C128.454 169.85 137.031 164.726 146.555 163.319C156.079 161.912 165.772 164.336 173.511 170.061C177.812 164.29 180.302 157.373 180.668 150.187C181.033 143 179.257 135.867 175.564 129.69C171.871 123.513 166.427 118.57 159.922 115.488C153.416 112.405 146.142 111.322 139.021 112.374C131.899 113.426 125.25 116.567 119.915 121.399C114.58 126.231 110.8 132.536 109.053 139.517C107.305 146.498 107.67 153.84 110.1 160.613C112.53 167.387 116.916 173.287 122.703 177.568Z" fill="white"/>
<path d="M146.77 154.636C154.171 154.636 160.171 148.639 160.171 141.242C160.171 133.844 154.171 127.847 146.77 127.847C139.369 127.847 133.37 133.844 133.37 141.242C133.37 148.639 139.369 154.636 146.77 154.636Z" fill="#3F3D56"/>
<path d="M233.556 144.431C240.957 144.431 246.957 138.434 246.957 131.036C246.957 123.638 240.957 117.641 233.556 117.641C226.155 117.641 220.156 123.638 220.156 131.036C220.156 138.434 226.155 144.431 233.556 144.431Z" fill="#3F3D56"/>
<path d="M188.887 177.599C192.764 177.599 195.907 174.457 195.907 170.582C195.907 166.707 192.764 163.566 188.887 163.566C185.01 163.566 181.868 166.707 181.868 170.582C181.868 174.457 185.01 177.599 188.887 177.599Z" fill="#FF6584"/>
<path d="M83.5953 369.188V338.335H73.3852V369.188C70.3994 370.244 67.8144 372.198 65.9859 374.783C64.1574 377.368 63.1755 380.456 63.1751 383.622L93.8054 383.622C93.8051 380.456 92.8231 377.368 90.9947 374.783C89.1662 372.198 86.5811 370.244 83.5953 369.188Z" fill="#3F3D56"/>
<path d="M121.245 369.188V338.335H111.035V369.188C108.049 370.244 105.464 372.198 103.636 374.783C101.807 377.368 100.825 380.456 100.825 383.622L131.455 383.622C131.455 380.456 130.473 377.368 128.644 374.783C126.816 372.198 124.231 370.244 121.245 369.188Z" fill="#3F3D56"/>
<path d="M135.196 66.4143C130.57 58.9693 127.462 50.2238 128.425 41.5126C129.388 32.8014 135.097 24.3011 143.502 21.8047C151.907 19.3083 162.319 24.4802 163.903 33.1002C172.321 18.5517 185.637 7.46645 201.475 1.8226C208.821 -0.764713 218.583 -1.35143 222.831 5.174C224.933 8.40357 225.158 12.7946 227.974 15.4256C232.388 19.5503 239.467 16.6452 245.5 16.9977C253.983 17.4935 260.813 25.4073 261.881 33.8339C262.95 42.2605 259.216 50.7288 253.705 57.1941C248.193 63.6595 241.024 68.4559 233.952 73.1664" fill="#3F3D56"/>
<path d="M201.093 196.272C201.55 195.789 202.022 195.322 202.515 194.876C202.733 194.678 202.954 194.485 203.179 194.295C203.32 194.177 203.461 194.06 203.604 193.945C203.852 193.746 203.93 193.698 203.63 193.92C204.715 193.109 205.858 192.378 207.049 191.732C207.598 191.438 208.156 191.162 208.724 190.906C208.857 190.846 208.992 190.787 209.126 190.728C208.524 190.996 208.996 190.783 209.151 190.721C209.491 190.584 209.834 190.454 210.18 190.331C211.463 189.873 212.775 189.505 214.108 189.228C214.723 189.1 215.341 189.001 215.961 188.902C216.378 188.836 215.436 188.961 215.856 188.917C216.039 188.898 216.222 188.874 216.406 188.854C216.773 188.816 217.141 188.785 217.51 188.759C218.837 188.669 220.168 188.664 221.496 188.745C222.159 188.786 222.819 188.853 223.479 188.931C222.814 188.852 223.576 188.949 223.81 188.988C224.174 189.047 224.536 189.113 224.897 189.186C226.194 189.448 227.472 189.797 228.721 190.233C229.032 190.342 229.342 190.456 229.649 190.576C229.82 190.642 229.989 190.712 230.159 190.78C230.073 190.745 229.6 190.532 230.08 190.749C230.68 191.022 231.275 191.302 231.857 191.612C233.051 192.256 234.196 192.985 235.284 193.795C235.615 194.038 234.911 193.486 235.225 193.752C235.366 193.871 235.512 193.983 235.653 194.101C235.879 194.291 236.102 194.484 236.322 194.682C236.883 195.187 237.422 195.719 237.94 196.268C238.413 196.77 238.868 197.289 239.305 197.823C239.299 197.816 239.798 198.433 239.532 198.1C239.31 197.821 239.624 198.222 239.674 198.289C239.938 198.643 240.195 199.002 240.444 199.366C241.255 200.558 241.988 201.801 242.638 203.088C242.947 203.697 243.238 204.314 243.513 204.94C243.573 205.077 243.782 205.584 243.555 205.032C243.617 205.182 243.678 205.331 243.738 205.481C243.889 205.856 244.034 206.234 244.173 206.614C245.178 209.404 245.949 212.272 246.478 215.19C246.617 215.931 246.744 216.674 246.86 217.419C246.912 217.752 246.961 218.084 247.008 218.417C247.007 218.409 247.118 219.23 247.06 218.787C247.009 218.393 247.097 219.085 247.107 219.159C247.3 220.712 247.453 222.27 247.577 223.831C247.82 226.892 247.95 229.96 248.043 233.029C248.279 240.814 248.481 248.6 248.699 256.386L250.038 304.073L251.376 351.761L251.542 357.681C251.542 358.442 251.844 359.172 252.383 359.711C252.921 360.249 253.652 360.551 254.414 360.551C255.175 360.551 255.905 360.249 256.444 359.711C256.983 359.172 257.285 358.442 257.285 357.681L255.91 308.678L254.544 260.003L253.857 235.502C253.673 228.942 253.408 222.388 252.398 215.893C250.538 203.932 245.133 191.497 233.578 186.066C222.786 180.993 209.431 182.169 199.975 189.546C198.929 190.36 197.945 191.251 197.032 192.213C196.494 192.751 196.191 193.481 196.191 194.243C196.191 195.004 196.494 195.734 197.032 196.272C197.571 196.811 198.301 197.113 199.063 197.113C199.824 197.113 200.555 196.811 201.093 196.272Z" fill="#8C0327"/>
<path d="M222.708 286.67C221.862 286.671 221.051 287.007 220.453 287.605C219.855 288.203 219.519 289.013 219.518 289.859L225.898 386.769C225.894 387.191 225.974 387.609 226.133 388C226.291 388.391 226.526 388.747 226.822 389.047C227.119 389.348 227.472 389.586 227.861 389.75C228.25 389.913 228.667 389.998 229.09 390H281.416C282.262 389.999 283.073 389.663 283.671 389.065C284.27 388.467 284.606 387.656 284.607 386.811L290.99 289.817C290.979 288.978 290.638 288.177 290.041 287.588C289.443 286.998 288.637 286.669 287.798 286.67H222.708Z" fill="#E6E6E6"/>
<path d="M227.76 291.453C227.323 291.453 226.89 291.543 226.49 291.717C226.089 291.891 225.728 292.145 225.43 292.464C225.131 292.783 224.901 293.16 224.755 293.571C224.608 293.983 224.547 294.42 224.576 294.856L230.444 382.24C230.5 383.046 230.859 383.801 231.45 384.354C232.04 384.906 232.818 385.214 233.627 385.216H276.879C277.688 385.214 278.465 384.906 279.056 384.354C279.647 383.801 280.006 383.046 280.062 382.24L285.929 294.856C285.959 294.42 285.898 293.983 285.751 293.571C285.604 293.16 285.375 292.783 285.076 292.464C284.778 292.145 284.417 291.891 284.016 291.717C283.615 291.543 283.183 291.453 282.746 291.453H227.76Z" fill="#8C0327"/>
<path d="M246.957 306.443C246.619 306.443 246.294 306.578 246.055 306.817C245.816 307.056 245.681 307.38 245.681 307.718V314.735C245.681 315.073 245.816 315.397 246.055 315.636C246.294 315.875 246.619 316.01 246.957 316.01H257.805C258.144 316.01 258.468 315.875 258.707 315.636C258.947 315.397 259.081 315.073 259.082 314.735V307.718C259.081 307.38 258.947 307.056 258.707 306.817C258.468 306.578 258.144 306.443 257.805 306.443H246.957Z" fill="#E6E6E6"/>
<path d="M259.082 324.94C258.743 324.941 258.419 325.075 258.18 325.314C257.94 325.553 257.806 325.878 257.805 326.216V333.232C257.806 333.57 257.94 333.895 258.18 334.134C258.419 334.373 258.743 334.507 259.082 334.508H269.93C270.268 334.507 270.593 334.373 270.832 334.134C271.071 333.895 271.206 333.57 271.206 333.232V326.216C271.206 325.878 271.071 325.553 270.832 325.314C270.593 325.075 270.268 324.941 269.93 324.94H259.082Z" fill="#E6E6E6"/>
<path d="M247.595 340.248C247.257 340.249 246.933 340.383 246.693 340.622C246.454 340.862 246.32 341.186 246.319 341.524V348.54C246.32 348.878 246.454 349.203 246.693 349.442C246.933 349.681 247.257 349.815 247.595 349.816H258.444C258.782 349.815 259.106 349.681 259.346 349.442C259.585 349.203 259.719 348.878 259.72 348.54V341.524C259.719 341.186 259.585 340.862 259.346 340.622C259.106 340.383 258.782 340.249 258.444 340.248H247.595Z" fill="#E6E6E6"/>
<path d="M41.4972 303.355C44.8178 304.456 47.1564 307.28 49.1021 310.048C51.1077 312.901 52.9461 315.999 55.6873 318.228C56.8384 319.228 58.1891 319.973 59.6499 320.412C61.1107 320.851 62.6481 320.974 64.1603 320.774C67.1658 320.321 69.7136 318.221 70.1707 315.124C70.7727 311.045 67.9165 307.269 65.411 304.367L64.7341 306.001C68.7263 306.431 72.197 308.706 75.8526 310.17C79.355 311.573 83.4979 312.338 86.9968 310.509C89.6815 309.106 91.3555 306.298 91.9227 303.389C92.503 300.213 92.0177 296.935 90.542 294.064C88.6794 290.258 85.6251 287.181 82.6625 284.219L81.7312 285.818C86.1358 286.479 91.0469 287.095 94.8688 284.266C96.3974 283.19 97.4875 281.599 97.9398 279.785C98.3293 277.781 97.9978 275.703 97.0036 273.92C94.994 270.008 91.2009 267.25 87.8003 264.626C79.8672 258.495 71.2715 253.273 62.1743 249.056C61.0641 248.54 60.0907 250.189 61.2081 250.708C69.0014 254.326 76.4312 258.679 83.3964 263.708C86.7473 266.13 90.2884 268.628 93.0808 271.7C95.4514 274.307 97.6105 278.297 95.0215 281.521C91.9761 285.313 86.4656 284.607 82.2401 283.973C82.0379 283.924 81.8253 283.941 81.6339 284.023C81.4426 284.104 81.2826 284.245 81.178 284.425C81.0733 284.605 81.0295 284.814 81.0531 285.02C81.0767 285.227 81.1663 285.42 81.3088 285.572C85.7245 289.987 90.9687 295.289 90.2007 302.085C89.9095 304.661 88.6866 307.293 86.3928 308.655C83.2748 310.507 79.3754 309.554 76.2349 308.273C72.4222 306.719 68.9094 304.537 64.7341 304.087C63.8344 303.99 63.5738 305.16 64.0573 305.72C66.0831 308.067 68.5131 311.12 68.3332 314.409C68.1826 317.162 65.7814 318.809 63.2064 318.964C56.6561 319.36 53.3491 312.544 50.0281 308.074C47.9263 305.245 45.4321 302.646 42.0061 301.51C40.8341 301.121 40.3315 302.969 41.4972 303.355Z" fill="#8C0327"/>
</g>
<defs>
<clipPath id="clip0_3_352">
<rect width="328" height="390" fill="white"/>
</clipPath>
</defs>
</svg>
