<svg width="361" height="426" viewBox="0 0 361 426" fill="none" xmlns="http://www.w3.org/2000/svg">
<g clip-path="url(#clip0_3_818)">
<path d="M256.728 357.491L260.299 426C260.299 426 109.251 282.349 90.4335 240.319C71.6157 198.288 107.037 94.3185 107.037 94.3185L185.63 137.455L256.728 357.491Z" fill="#9F616A"/>
<path d="M25.1248 65.5608L1.87925 67.7729C1.87925 67.7729 -10.297 94.3185 27.3386 96.5306L25.1248 65.5608Z" fill="#9F616A"/>
<path d="M25.1248 106.485L1.87925 108.697C1.87925 108.697 -10.297 135.243 27.3386 137.455L25.1248 106.485Z" fill="#9F616A"/>
<path d="M25.1248 150.728L1.87925 152.94C1.87925 152.94 -10.297 179.485 27.3386 181.698L25.1248 150.728Z" fill="#9F616A"/>
<path d="M31.7664 194.97L8.52085 197.182C8.52085 197.182 -3.65542 223.728 33.9802 225.94L31.7664 194.97Z" fill="#9F616A"/>
<path d="M13.8081 76.2251H15.5719V27.9439C15.5719 24.2743 16.2953 20.6406 17.7007 17.2502C19.1061 13.8599 21.166 10.7794 23.7629 8.18459C26.3597 5.58976 29.4426 3.53143 32.8356 2.12711C36.2286 0.7228 39.8651 2.81153e-06 43.5377 0H145.908C149.581 -7.4972e-06 153.217 0.722778 156.61 2.12708C160.003 3.53138 163.086 5.58971 165.683 8.18453C168.28 10.7794 170.34 13.8599 171.745 17.2502C173.151 20.6405 173.874 24.2742 173.874 27.9438V292.819C173.874 296.488 173.151 300.122 171.745 303.512C170.34 306.903 168.28 309.983 165.683 312.578C163.086 315.173 160.003 317.231 156.61 318.635C153.217 320.04 149.581 320.762 145.908 320.762H43.5378C36.1208 320.762 29.0076 317.818 23.763 312.578C18.5184 307.337 15.572 300.23 15.5719 292.819V110.593H13.8081V76.2251Z" fill="#3F3D56"/>
<path d="M42.409 7.27004H55.7717C55.1572 8.77546 54.9226 10.4088 55.0886 12.0261C55.2547 13.6435 55.8162 15.1952 56.7238 16.5446C57.6314 17.894 58.8571 18.9997 60.2931 19.7642C61.7291 20.5288 63.3312 20.9287 64.9583 20.9289H123.605C125.232 20.9288 126.834 20.5288 128.27 19.7643C129.706 18.9997 130.932 17.894 131.84 16.5446C132.747 15.1952 133.309 13.6435 133.475 12.0261C133.641 10.4088 133.406 8.77544 132.792 7.27002H145.272C150.811 7.27001 156.123 9.46861 160.04 13.3821C163.957 17.2957 166.157 22.6036 166.157 28.1382V292.624C166.157 295.365 165.617 298.078 164.567 300.61C163.518 303.142 161.979 305.443 160.04 307.38C158.101 309.318 155.798 310.855 153.265 311.904C150.731 312.953 148.015 313.492 145.272 313.492H42.409C39.6664 313.492 36.9506 312.953 34.4168 311.904C31.883 310.855 29.5807 309.318 27.6414 307.38C25.7021 305.443 24.1637 303.142 23.1141 300.61C22.0646 298.078 21.5244 295.365 21.5244 292.624V28.1382C21.5244 25.3977 22.0646 22.6841 23.1141 20.1523C24.1637 17.6204 25.7021 15.32 27.6414 13.3822C29.5807 11.4444 31.883 9.90724 34.4168 8.85852C36.9506 7.8098 39.6664 7.27004 42.409 7.27004Z" fill="white"/>
<path d="M115.879 81.3659H71.8027V91.9937H115.879V81.3659Z" fill="#8C0327"/>
<path d="M117.978 127.033H69.7041V137.661H117.978V127.033Z" fill="#E5E5E5"/>
<path d="M147.712 149.863H39.9702V160.49H147.712V149.863Z" fill="#E5E5E5"/>
<path d="M147.712 172.692H39.9702V183.32H147.712V172.692Z" fill="#E5E5E5"/>
<path d="M361 393.173L237.102 251.933L232.674 161.235L186.183 83.8109L172.9 50.629C172.9 50.629 141.906 53.9472 167.366 116.993L177.881 150.728C168.402 171.129 163.491 193.35 163.491 215.842V293.146C163.491 311.348 250.301 410.498 260.406 425.643L361 393.173Z" fill="#9F616A"/>
<path opacity="0.2" d="M176.545 90.3717L185.787 85.833L185.472 85.1921L176.933 89.3861L164.042 55.6149L163.375 55.8696L176.545 90.3717Z" fill="black"/>
<path opacity="0.2" d="M2.00325 67.437L1.75635 68.1068L15.448 73.1464L15.6949 72.4766L2.00325 67.437Z" fill="black"/>
<path opacity="0.2" d="M2.00325 108.828L1.75635 109.497L15.448 114.537L15.6949 113.867L2.00325 108.828Z" fill="black"/>
<path opacity="0.2" d="M2.00325 153.073L1.75635 153.743L15.448 158.782L15.6949 158.113L2.00325 153.073Z" fill="black"/>
<path opacity="0.2" d="M9.17616 197.331L8.86719 197.975L15.5331 201.171L15.8421 200.528L9.17616 197.331Z" fill="black"/>
<path d="M93.8955 275.038C110.947 275.038 124.77 261.226 124.77 244.188C124.77 227.149 110.947 213.337 93.8955 213.337C76.844 213.337 63.021 227.149 63.021 244.188C63.021 261.226 76.844 275.038 93.8955 275.038Z" fill="#8C0327"/>
<path d="M90.9531 257.211L81.7129 245.338L87.0865 241.162L91.4616 246.783L106.243 231.191L111.186 235.871L90.9531 257.211Z" fill="white"/>
</g>
<defs>
<clipPath id="clip0_3_818">
<rect width="361" height="426" fill="white"/>
</clipPath>
</defs>
</svg>
