<svg width="539" height="398" viewBox="0 0 539 398" fill="none" xmlns="http://www.w3.org/2000/svg">
<g clip-path="url(#clip0_3_876)">
<path opacity="0.1" d="M5.80127 190.816C14.3124 223.743 32.3147 252.207 60.7636 266.005C119.905 294.68 253.286 279.891 352.833 262.915C404.326 254.135 449.586 229.904 482.465 195.804L5.80127 190.816Z" fill="#8C0327"/>
<path opacity="0.1" d="M527.818 35.8216H473.199C470.607 35.8216 468.481 33.8988 468.481 31.5493C468.481 29.1998 470.607 27.2721 473.199 27.2721H482.646C480.049 27.2721 477.928 25.3493 477.928 22.9949C477.928 20.6405 480.049 18.7226 482.646 18.7226H475.904C473.307 18.7226 471.18 16.7999 471.18 14.4454C471.18 12.091 473.307 10.1731 475.904 10.1731H504.412C498.086 7.50971 490.692 5.61636 482.171 4.62064C404.434 -4.41935 376.681 1.5599 366.891 7.70591C354.688 15.462 341.133 20.8437 326.937 23.5688C278.977 32.5303 189.284 43.3116 107.989 20.1353C67.5846 8.59372 37.553 28.0716 19.5557 60.6313H537.305C536.629 51.1695 534.605 42.4287 530.891 34.7817C530.011 35.4616 528.93 35.8276 527.818 35.8216Z" fill="#8C0327"/>
<path opacity="0.1" d="M1.17106 122.086C-0.926862 141.237 -0.213718 160.591 3.28782 179.534L482.832 195.422C496.033 181.716 507.248 166.226 516.152 149.403L1.17106 122.086ZM190.837 163.068H181.395C183.992 163.068 186.118 164.996 186.118 167.345C186.118 169.695 183.992 171.618 181.395 171.618H126.775C124.183 171.618 122.057 169.695 122.057 167.345C122.057 164.996 124.183 163.068 126.775 163.068H136.222C133.625 163.068 131.504 161.145 131.504 158.796C131.504 156.446 133.625 154.519 136.222 154.519H129.475C126.878 154.519 124.752 152.596 124.752 150.246C124.752 147.897 126.878 145.969 129.475 145.969H184.095C186.691 145.969 188.813 147.892 188.813 150.246C188.813 152.601 186.691 154.519 184.095 154.519H190.837C193.434 154.519 195.555 156.441 195.555 158.796C195.555 161.15 193.434 163.068 190.837 163.068Z" fill="#8C0327"/>
<path opacity="0.1" d="M537.324 60.9255L13.7786 72.4524C7.40873 87.2803 3.18501 104.046 1.23975 121.419H528.152C531.581 111.255 534.125 100.812 535.756 90.2086C537.329 80.0012 537.956 70.1274 537.324 60.9255ZM107.538 98.7189H98.0963C100.693 98.7189 102.82 100.647 102.82 102.996C102.82 105.346 100.693 107.273 98.0963 107.273H43.477C40.8849 107.273 38.7584 105.346 38.7584 102.996C38.7584 100.647 40.8849 98.7189 43.477 98.7189H52.924C50.327 98.7189 48.2054 96.7961 48.2054 94.4466C48.2054 92.0971 50.327 90.1694 52.924 90.1694H46.1768C43.5799 90.1694 41.4533 88.2466 41.4533 85.8971C41.4533 83.5476 43.5799 81.6199 46.1768 81.6199H100.796C103.393 81.6199 105.515 83.5427 105.515 85.8971C105.515 88.2515 103.393 90.1694 100.796 90.1694H107.538C110.135 90.1694 112.257 92.0971 112.257 94.4466C112.257 96.7961 110.135 98.7189 107.538 98.7189Z" fill="#8C0327"/>
<path opacity="0.1" d="M267.085 383.123C388.044 383.123 486.101 374.093 486.101 362.953C486.101 351.814 388.044 342.784 267.085 342.784C146.125 342.784 48.0684 351.814 48.0684 362.953C48.0684 374.093 146.125 383.123 267.085 383.123Z" fill="#8C0327"/>
<path d="M490.305 196.359C490.302 196.324 490.302 196.29 490.305 196.256C490.305 196.202 490.305 196.153 490.305 196.103C490.207 195.542 489.995 195.006 489.683 194.529C488.561 192.732 486.999 191.253 485.145 190.232C481.911 188.456 477.467 187.696 476.174 184.307C475.777 183.257 475.767 182.114 475.571 181.016C475.228 179.304 474.441 177.712 473.29 176.401C472.138 175.09 470.662 174.105 469.01 173.545C467.471 173.03 465.81 172.888 464.316 172.25C460.974 170.828 459.21 167.321 457.716 164.078C455.782 159.893 453.848 155.706 451.914 151.517C450.444 152.257 448.543 151.909 447.166 150.982C445.839 149.993 444.783 148.686 444.094 147.181C442.1 143.306 441.242 138.916 438.9 135.227C436.558 131.538 431.878 128.625 427.743 130.229C426.935 130.633 426.1 130.978 425.244 131.264C421.701 132.093 417.781 128.041 414.748 130.008C414.244 130.331 413.834 130.781 413.558 131.313C413.555 131.28 413.555 131.247 413.558 131.215C413.163 132.013 412.942 132.885 412.911 133.775C412.911 133.957 412.911 134.133 412.911 134.305C412.911 134.334 412.911 134.364 412.911 134.393C412.911 135.099 412.955 135.816 412.965 136.532C412.976 137.133 412.93 137.734 412.828 138.327V138.278C412.77 138.611 412.685 138.94 412.573 139.259C411.784 141.378 409.598 142.766 408.574 144.757V144.659C408.459 144.876 408.359 145.101 408.275 145.331C408.093 145.853 407.999 146.402 407.996 146.955C407.908 150.697 411.872 154.219 412.333 158.237C412.661 161.081 413.313 161.994 415.728 163.603L416.257 163.956C416.047 163.956 415.831 163.985 415.591 163.99C415.497 163.992 415.404 164.002 415.312 164.02C414.885 163.902 414.438 163.881 414.003 163.957C413.567 164.033 413.154 164.206 412.793 164.461C410.941 165.933 406.561 164.799 404.615 164.461C402.67 164.123 396.006 165.035 395.075 168.733C394.144 172.432 392.547 180.064 392.547 180.064C392.547 180.064 392.547 184.905 391.954 185.808C391.931 185.871 391.931 185.941 391.954 186.004C391.954 187.363 392.003 195.53 390.69 197.634C390.366 198.124 390.391 199.208 390.631 200.543C389.249 202.323 387.951 204.403 388.181 205.766C388.602 208.557 394.257 217.332 402.361 212.633C402.361 212.633 406.972 204.192 401.171 199.704L401.42 198.723C403.175 200.881 404.473 202.431 404.473 202.431C404.473 202.431 404.542 202.612 404.65 202.921H404.473C405.23 204.984 405.689 207.145 405.835 209.337C405.813 210.141 405.668 210.937 405.404 211.697H405.556C405.512 211.863 405.463 212.03 405.404 212.187C405.119 213.015 404.587 213.736 403.88 214.252C399.828 217.126 395.188 237.654 395.188 237.654C395.188 237.654 385.996 270.837 384.158 272.725C382.639 274.275 392.184 278.641 399.348 278.121C400.348 278.061 401.336 277.873 402.288 277.561C402.332 278.052 402.381 278.542 402.43 278.989C402.582 280.46 402.739 281.824 402.837 282.251C403.091 283.32 403.596 294.239 403.596 294.239C403.596 294.239 402.562 301.331 402.812 306.266C402.812 306.604 402.856 306.928 402.886 307.247L401.994 307.384C400.641 310.425 406.213 335.799 406.972 337.933C407.475 339.614 407.758 341.353 407.815 343.108C407.815 343.108 407.325 344.913 407.732 345.899C407.985 346.501 408.15 347.137 408.222 347.787C408.222 347.787 407.888 349.425 408.393 350.495C408.898 351.564 408.31 353.438 408.31 353.438C408.31 353.438 408.143 360.829 406.624 364.852C406.211 365.934 406.09 367.107 406.275 368.25C406.46 369.394 406.944 370.469 407.678 371.366C407.783 371.505 407.898 371.638 408.021 371.763C408.021 371.763 416.4 371.831 417.874 371.763H418.066C418.658 371.679 420.177 365.028 418.825 361.825C417.473 358.622 418.658 354.679 418.658 354.679V348.851C418.658 348.851 420.177 347.449 418.658 344.437C417.139 341.425 417.389 340.513 417.389 340.513C417.389 340.513 419.08 335.667 417.306 334.107C415.532 332.547 417.644 326.632 417.644 326.632L418.242 306.913C417.929 306.811 417.61 306.729 417.286 306.668C417.252 306.344 417.218 306.011 417.184 305.658C416.836 302.087 416.537 297.231 417.311 295.847C418.085 294.464 418.457 282.388 418.58 273.996L426.302 274.29C426.464 278.214 426.635 281.795 426.743 282.251C426.998 283.32 427.508 294.239 427.508 294.239C427.508 294.239 426.469 301.331 426.719 306.266C426.719 306.604 426.763 306.928 426.792 307.247L425.9 307.384C424.548 310.425 430.119 335.799 430.879 337.933C431.382 339.614 431.667 341.353 431.726 343.108C431.726 343.108 431.236 344.913 431.638 345.899C431.892 346.501 432.057 347.137 432.128 347.787C432.128 347.787 431.795 349.425 432.3 350.495C432.804 351.564 432.216 353.438 432.216 353.438C432.216 353.438 432.05 360.829 430.531 364.852C430.124 365.936 430.01 367.108 430.201 368.25C430.392 369.392 430.881 370.464 431.619 371.356C431.724 371.495 431.839 371.628 431.962 371.753C431.962 371.753 440.34 371.822 441.815 371.753H442.006C442.599 371.67 444.118 365.018 442.766 361.815C441.414 358.612 442.599 354.669 442.599 354.669V348.851C442.599 348.851 444.118 347.449 442.599 344.437C441.08 341.425 441.33 340.513 441.33 340.513C441.33 340.513 443.021 335.667 441.247 334.107C439.473 332.547 441.585 326.632 441.585 326.632L442.193 306.913C441.872 306.81 441.544 306.728 441.213 306.668C441.178 306.344 441.144 306.011 441.11 305.658C440.762 302.087 440.463 297.231 441.237 295.847C441.859 294.714 442.217 287.416 442.379 280.289C442.379 279.798 442.379 279.308 442.418 278.817C445.966 278.669 449.499 278.273 452.992 277.63C452.992 277.63 448.861 263.008 450.126 260.629C450.67 259.604 449.886 254.145 448.812 248.264C450.309 249.476 452.169 250.15 454.095 250.177C455.942 253.733 461.562 261.914 464.727 263.175C468.441 264.647 465.653 251.599 463.885 249.711C463.048 248.68 462.343 247.548 461.787 246.341C461.836 246.282 461.89 246.233 461.939 246.179C461.988 246.125 462.027 232.298 461.18 232.548C460.332 232.798 459.323 230.493 459.323 230.493L456.706 207.503L455.609 197.879C456.525 198.556 457.613 198.988 458.549 199.66C461.097 201.528 461.93 204.81 463.047 207.714C463.968 210.102 465.261 212.472 467.383 213.973C469.505 215.473 472.616 215.871 474.733 214.35C476.693 212.923 477.271 210.348 477.702 207.998C481.26 209.249 485.576 205.904 485.116 202.249C485.003 201.347 484.67 200.361 485.14 199.571C486.081 198.012 489.06 198.919 490.04 197.379C490.205 197.112 490.29 196.804 490.285 196.491C490.3 196.422 490.305 196.393 490.305 196.359ZM442.722 209.004C442.668 209.882 443.873 216.935 444.853 222.517C444.05 219.039 442.438 215.326 439.263 212.781C439.263 212.781 439.263 212.604 439.223 212.29H439.263C439.263 212.29 439.13 210.887 439.111 208.891C439.116 207.121 439.247 205.354 439.503 203.603V203.559H439.439C439.439 203.412 439.478 203.26 439.503 203.113C439.697 201.635 440.098 200.192 440.693 198.826C440.956 198.29 441.259 197.775 441.6 197.286C442.124 202.029 442.771 208.116 442.722 209.004ZM445.358 225.347C445.789 227.756 446.098 229.448 446.098 229.448L448.7 247.332V247.415C447.298 239.866 445.51 231.91 445.51 231.91C445.692 229.723 445.641 227.523 445.358 225.347Z" fill="url(#paint0_linear_3_876)"/>
<path d="M413.469 159.218C412.979 154.685 408.079 150.776 409.549 146.464C410.348 144.115 412.847 142.678 413.69 140.343C414.248 138.803 413.999 137.111 414.003 135.472C414.008 133.834 414.391 132.004 415.753 131.097C418.693 129.135 422.475 133.172 425.905 132.348C426.735 132.064 427.542 131.72 428.321 131.318C432.324 129.724 436.852 132.627 439.101 136.296C441.35 139.965 442.193 144.341 444.123 148.196C444.782 149.685 445.803 150.985 447.093 151.978C448.425 152.9 450.248 153.248 451.689 152.512L457.299 165.02C458.769 168.243 460.455 171.735 463.669 173.153C465.11 173.786 466.717 173.928 468.206 174.443C469.825 175.014 471.266 176.002 472.384 177.306C473.502 178.61 474.258 180.185 474.576 181.874C474.767 182.973 474.772 184.111 475.159 185.155C476.409 188.53 480.706 189.285 483.837 191.041C485.648 192.064 487.167 193.535 488.247 195.314C488.737 196.162 489.158 197.276 488.634 198.11C487.688 199.64 484.812 198.737 483.901 200.292C483.44 201.077 483.763 202.058 483.901 202.961C484.347 206.595 480.167 209.926 476.727 208.68C476.311 211.02 475.747 213.585 473.856 215.003C471.822 216.523 468.809 216.121 466.756 214.63C464.703 213.139 463.458 210.779 462.566 208.4C461.484 205.506 460.675 202.24 458.21 200.381C457.319 199.714 456.25 199.282 455.378 198.61C453.418 197.109 452.438 194.632 451.738 192.233C450.831 189.241 450.111 186.166 448.798 183.341C447.485 180.515 445.407 177.886 442.56 176.596C439.89 175.394 436.813 175.473 434.054 174.497C429.306 172.819 425.793 168.822 421.069 166.938C419.559 166.303 418.128 165.493 416.806 164.525C414.43 162.96 413.783 162.053 413.469 159.218Z" fill="#3F3D56"/>
<g opacity="0.1">
<path d="M413.91 139.382C414.011 139.19 414.1 138.992 414.175 138.788C414.728 137.248 414.483 135.556 414.488 133.918C414.488 133.371 414.539 132.826 414.64 132.289C414.188 133.258 413.968 134.32 413.998 135.389C413.993 136.709 414.15 138.092 413.91 139.382Z" fill="black"/>
<path d="M474.316 213.463C472.283 214.978 469.269 214.581 467.216 213.085C465.163 211.589 463.914 209.239 463.047 206.851C461.964 203.957 461.16 200.69 458.69 198.831C457.804 198.164 456.731 197.727 455.863 197.06C453.903 195.559 452.923 193.082 452.218 190.708C451.311 187.716 450.596 184.641 449.278 181.815C447.96 178.99 445.892 176.361 443.04 175.071C440.375 173.869 437.297 173.948 434.539 172.971C429.786 171.294 426.273 167.296 421.554 165.413C420.043 164.776 418.611 163.966 417.286 163C414.964 161.396 414.346 160.488 414.003 157.658C413.513 153.41 409.201 149.707 409.873 145.704C409.763 145.921 409.667 146.144 409.584 146.371C408.114 150.688 413.014 154.597 413.504 159.125C413.822 161.955 414.484 162.862 416.786 164.466C418.112 165.432 419.544 166.242 421.054 166.879C425.773 168.763 429.286 172.765 434.039 174.438C436.798 175.419 439.875 175.336 442.54 176.537C445.392 177.827 447.44 180.461 448.778 183.282C450.116 186.102 450.831 189.168 451.718 192.175C452.438 194.549 453.384 197.026 455.363 198.527C456.25 199.194 457.323 199.63 458.191 200.297C460.641 202.156 461.464 205.423 462.547 208.317C463.438 210.696 464.688 213.051 466.741 214.542C468.794 216.033 471.808 216.435 473.841 214.919C475.14 213.938 475.801 212.442 476.237 210.838C475.849 211.873 475.185 212.781 474.316 213.463Z" fill="black"/>
<path d="M484.386 198.752C484.198 199.104 484.117 199.503 484.151 199.9C485.258 198.806 487.757 199.449 488.629 198.041C488.832 197.693 488.911 197.287 488.855 196.888C487.718 197.968 485.219 197.325 484.386 198.752Z" fill="black"/>
<path d="M477.188 207.14C477.094 207.631 477.001 208.155 476.884 208.665C479.883 209.602 483.347 207.194 483.837 204.153C482.646 206.493 479.706 208.057 477.188 207.14Z" fill="black"/>
</g>
<path d="M419.8 161.577C419.8 161.577 421.432 164.873 416.615 164.942C411.798 165.01 419.717 186.347 419.717 186.347L427.723 196.55L437.685 191.154L438.258 176.272L438.993 167.281C438.993 167.281 429.683 164.255 431.398 160.253C433.113 156.25 419.8 161.577 419.8 161.577Z" fill="#FBBEBE"/>
<path d="M448.714 248.573C448.714 248.573 454.594 254.366 461.454 246.679L456.187 241.083H449.523L448.714 248.573Z" fill="#575A89"/>
<path opacity="0.1" d="M449.351 241.083L448.543 248.573C448.543 248.573 454.423 254.366 461.283 246.679" fill="black"/>
<path d="M459.244 242.103C459.244 242.103 461.611 248.318 463.326 250.196C465.041 252.075 467.736 265.073 464.144 263.602C460.552 262.13 453.692 251.177 453.281 249.299C452.869 247.42 452.712 242.103 452.712 242.103H459.244Z" fill="#FBBEBE"/>
<path d="M407.878 273.986L439.561 275.212L435.886 261.802L419.927 261.478L407.878 273.986Z" fill="#575A89"/>
<path opacity="0.1" d="M412.283 273.986L443.971 275.212L440.296 261.802L424.332 261.478L412.283 273.986Z" fill="black"/>
<path d="M418.247 296.122C417.497 297.52 417.786 302.357 418.124 305.932C418.34 308.208 418.575 309.959 418.575 309.959C418.575 309.959 406.732 313.638 404.939 310.45C404.483 309.641 404.257 308.223 404.179 306.56C403.934 301.655 404.939 294.587 404.939 294.587C404.939 294.587 404.449 283.717 404.204 282.653C404.106 282.226 403.954 280.873 403.807 279.406C403.591 277.228 403.385 274.805 403.385 274.805L419.555 266.221C419.555 266.221 419.555 267.83 419.526 270.307C419.437 278.086 419.178 294.406 418.247 296.122Z" fill="#FBBEBE"/>
<path opacity="0.1" d="M418.575 309.959C418.575 309.959 406.732 313.638 404.938 310.45C404.482 309.641 404.257 308.223 404.179 306.56C406.629 306.187 414.086 305.157 418.124 305.932C418.339 308.208 418.575 309.959 418.575 309.959Z" fill="black"/>
<path d="M418.981 371.763H418.795C417.369 371.817 409.265 371.763 409.265 371.763C409.146 371.639 409.035 371.508 408.932 371.37C408.215 370.473 407.742 369.405 407.558 368.271C407.373 367.137 407.484 365.975 407.878 364.896C409.348 360.888 409.51 353.531 409.51 353.531C409.51 353.531 410.083 351.652 409.593 350.588C409.103 349.523 409.427 347.89 409.427 347.89C409.351 347.244 409.186 346.612 408.937 346.011C408.53 345.03 409.02 343.23 409.02 343.23C408.964 341.486 408.689 339.756 408.202 338.08C407.467 335.956 402.077 310.695 403.385 307.669C403.385 307.669 414.816 305.707 419.148 307.178L418.575 326.798C418.575 326.798 416.531 332.684 418.246 334.239C419.961 335.794 418.33 340.616 418.33 340.616C418.33 340.616 418.085 341.513 419.555 344.54C421.025 347.566 419.555 348.954 419.555 348.954V354.757C419.555 354.757 418.413 358.681 419.716 361.869C421.02 365.058 419.555 371.66 418.981 371.763Z" fill="#3F3D56"/>
<path d="M441.418 296.122C440.668 297.52 440.957 302.357 441.296 305.933C441.511 308.208 441.746 309.96 441.746 309.96C441.746 309.96 429.903 313.638 428.11 310.45C427.654 309.641 427.429 308.223 427.35 306.56C427.105 301.655 428.11 294.587 428.11 294.587C428.11 294.587 427.62 283.718 427.375 282.653C427.243 282.079 427.012 276.605 426.831 271.695C426.679 267.506 426.557 263.72 426.557 263.72L442.726 266.221C442.726 266.221 442.726 273.339 442.525 280.652C442.349 287.745 442.021 295.014 441.418 296.122Z" fill="#FBBEBE"/>
<path opacity="0.1" d="M441.747 309.959C441.747 309.959 429.903 313.638 428.11 310.45C427.654 309.641 427.429 308.223 427.351 306.56C429.801 306.187 437.258 305.157 441.296 305.932C441.511 308.208 441.747 309.959 441.747 309.959Z" fill="black"/>
<path d="M442.153 371.763H441.967C440.541 371.817 432.437 371.763 432.437 371.763C432.318 371.639 432.207 371.508 432.104 371.37C431.387 370.473 430.914 369.405 430.73 368.271C430.545 367.137 430.656 365.975 431.05 364.896C432.52 360.869 432.667 353.511 432.667 353.511C432.667 353.511 433.24 351.633 432.75 350.568C432.26 349.504 432.584 347.87 432.584 347.87C432.509 347.224 432.344 346.592 432.094 345.992C431.687 345.011 432.177 343.211 432.177 343.211C432.121 341.466 431.846 339.736 431.359 338.06C430.624 335.936 425.234 310.676 426.542 307.649C426.542 307.649 437.974 305.687 442.305 307.159L441.732 326.779C441.732 326.779 439.689 332.665 441.404 334.22C443.119 335.775 441.487 340.596 441.487 340.596C441.487 340.596 441.242 341.494 442.712 344.52C444.182 347.547 442.712 348.935 442.712 348.935V354.737C442.712 354.737 441.57 358.662 442.874 361.85C444.177 365.038 442.727 371.66 442.153 371.763Z" fill="#3F3D56"/>
<path opacity="0.1" d="M426.17 165.432C432.529 165.432 437.684 160.272 437.684 153.906C437.684 147.539 432.529 142.379 426.17 142.379C419.81 142.379 414.655 147.539 414.655 153.906C414.655 160.272 419.81 165.432 426.17 165.432Z" fill="black"/>
<path d="M426.17 164.942C432.529 164.942 437.684 159.781 437.684 153.415C437.684 147.049 432.529 141.888 426.17 141.888C419.81 141.888 414.655 147.049 414.655 153.415C414.655 159.781 419.81 164.942 426.17 164.942Z" fill="#FBBEBE"/>
<path opacity="0.1" d="M403.385 274.805L419.555 266.221C419.555 266.221 419.555 267.83 419.526 270.307C417.164 271.72 413.602 273.844 410.177 275.85C408.315 276.944 406.497 278.003 404.939 278.891C404.576 279.088 404.198 279.252 403.807 279.381C403.591 277.228 403.385 274.805 403.385 274.805Z" fill="black"/>
<path opacity="0.1" d="M442.727 266.202C442.727 266.202 442.727 273.319 442.526 280.632H442.467C441.259 280.675 440.049 280.637 438.846 280.519C436.734 280.294 435.044 279.735 434.436 278.626C433.206 276.468 429.762 273.721 426.851 271.676C426.699 267.487 426.577 263.7 426.577 263.7L442.727 266.202Z" fill="black"/>
<path d="M439.718 203.863C439.308 207.056 439.229 210.283 439.483 213.492C446.911 219.623 445.524 232.538 445.524 232.538C445.524 232.538 451.242 258.702 450.017 261.071C448.792 263.44 452.791 277.993 452.791 277.993C449.383 278.64 445.932 279.037 442.467 279.18C441.258 279.223 440.049 279.186 438.846 279.068C436.734 278.842 435.043 278.283 434.436 277.174C432.152 273.172 422.269 267.202 422.269 267.202C422.269 267.202 416.007 270.96 410.176 274.378C408.314 275.472 406.496 276.532 404.938 277.419C403.674 278.091 402.277 278.474 400.847 278.543C393.913 279.058 384.677 274.712 386.147 273.172C387.945 271.288 396.848 238.262 396.848 238.262C396.848 238.262 401.337 217.823 405.257 214.964C405.944 214.444 406.457 213.727 406.727 212.908C408.069 209.176 405.825 203.191 405.825 203.191C405.825 203.191 393.169 187.579 393.737 186.676C394.305 185.774 394.31 180.957 394.31 180.957C394.31 180.957 395.864 173.354 396.76 169.675C397.657 165.997 404.11 165.094 405.987 165.423C407.863 165.751 412.107 166.894 413.9 165.423C415.694 163.951 418.722 165.997 418.722 165.997L426.16 168.047L432.848 164.123C432.848 164.123 439.551 164.466 440.124 165.364C440.698 166.261 449.518 167.983 449.518 167.983C454.006 171.005 453.844 185.396 453.844 185.396C453.844 185.396 443.064 194.794 440.859 199.621C440.288 200.976 439.904 202.404 439.718 203.863Z" fill="#575A89"/>
<path d="M451.404 183.404L453.854 185.366L456.387 208.175L458.916 231.067C458.916 231.067 459.896 233.357 460.714 233.112C461.532 232.867 461.449 246.679 461.449 246.679C461.449 246.679 452.07 240.906 448.709 248.573L446.093 230.086C446.093 230.086 442.741 211.201 442.824 209.73C442.908 208.258 441.109 192.317 441.109 192.317L451.404 183.404Z" fill="#575A89"/>
<path d="M395.545 184.469L393.747 186.676C393.747 186.676 393.913 196.157 392.522 198.448C391.13 200.739 396.363 214.144 398.323 213.325C400.283 212.506 404.693 191.581 404.693 191.336C404.693 191.091 395.545 184.469 395.545 184.469Z" fill="#575A89"/>
<path d="M395.383 197.958C395.383 197.958 389.665 203.76 390.072 206.542C390.479 209.323 395.952 218.059 403.792 213.365C403.792 213.365 411.063 199.675 395.383 197.958Z" fill="#575A89"/>
<path opacity="0.1" d="M418.795 371.778C417.369 371.832 409.265 371.778 409.265 371.778C409.146 371.654 409.035 371.523 408.932 371.385C411.004 370.679 415.483 369.62 418.795 371.778Z" fill="black"/>
<path opacity="0.1" d="M441.977 371.778C440.551 371.832 432.446 371.778 432.446 371.778C432.328 371.654 432.217 371.523 432.113 371.385C434.176 370.679 438.655 369.62 441.977 371.778Z" fill="black"/>
<path opacity="0.1" d="M410.755 227.996C409.505 239.994 409.917 263.803 410.176 274.378C408.314 275.472 406.497 276.531 404.938 277.419C403.674 278.091 402.277 278.474 400.847 278.543C400.328 275.344 407.521 242.495 410.755 227.996Z" fill="black"/>
<path opacity="0.1" d="M412.284 221.188C412.249 221.36 411.656 223.969 410.755 227.996C411.108 224.558 411.598 222.091 412.284 221.188Z" fill="black"/>
<path opacity="0.1" d="M432.177 219.893C432.177 219.893 439.12 263.548 418.56 268.944C418.555 268.924 432.784 266.761 432.177 219.893Z" fill="black"/>
<path opacity="0.1" d="M442.467 279.18C441.259 279.223 440.049 279.186 438.846 279.067L433.299 219.378C436.837 221.693 441.071 264.053 442.467 279.18Z" fill="black"/>
<path opacity="0.1" d="M417.595 146.636C417.963 146.607 418.333 146.645 418.688 146.749C419.208 147.008 419.676 147.361 420.069 147.789C420.708 148.323 421.472 148.687 422.29 148.846C423.107 149.004 423.952 148.953 424.744 148.696C425.303 148.446 425.896 148.281 426.503 148.206C427.439 148.206 428.247 148.892 428.732 149.677C429.218 150.462 429.467 151.394 429.884 152.233C430.3 153.072 430.967 153.866 431.883 154.072C432.322 154.089 432.755 154.189 433.157 154.366C433.404 154.567 433.593 154.829 433.706 155.127C434.47 156.78 435.078 158.732 436.71 159.541C437.31 159.82 437.964 159.962 438.625 159.958C439.298 160.008 439.972 159.886 440.585 159.605C441.188 159.268 441.687 158.771 442.026 158.168C443.045 156.481 443.163 154.391 442.923 152.434C442.623 149.965 441.745 147.602 440.36 145.537C438.901 143.449 436.914 141.787 434.602 140.719C432.291 139.651 429.738 139.217 427.204 139.46C426.319 139.56 425.443 139.724 424.582 139.951C421.466 140.784 418.408 142.344 416.517 144.959C416.06 145.611 415.557 146.231 415.013 146.813C415.87 146.729 416.733 146.656 417.595 146.636Z" fill="black"/>
<path d="M417.595 146.146C417.963 146.116 418.333 146.155 418.688 146.258C419.208 146.518 419.676 146.87 420.069 147.298C420.708 147.833 421.472 148.197 422.29 148.355C423.107 148.514 423.952 148.463 424.744 148.206C425.303 147.956 425.896 147.79 426.503 147.715C427.439 147.715 428.247 148.402 428.732 149.187C429.218 149.972 429.467 150.904 429.884 151.742C430.3 152.581 430.967 153.376 431.883 153.582C432.322 153.599 432.755 153.699 433.157 153.876C433.404 154.077 433.593 154.339 433.706 154.636C434.47 156.289 435.078 158.241 436.71 159.051C437.31 159.329 437.964 159.472 438.625 159.468C439.298 159.517 439.972 159.396 440.585 159.115C441.188 158.777 441.687 158.28 442.026 157.677C443.045 155.99 443.163 153.901 442.923 151.943C442.623 149.474 441.745 147.111 440.36 145.047C438.901 142.959 436.914 141.296 434.602 140.228C432.291 139.161 429.738 138.726 427.204 138.97C426.319 139.069 425.443 139.233 424.582 139.46C421.466 140.294 418.408 141.854 416.517 144.468C416.06 145.121 415.557 145.74 415.013 146.322C415.87 146.239 416.733 146.165 417.595 146.146Z" fill="#3F3D56"/>
<path opacity="0.1" d="M405.1 173.594C405.1 173.594 405.673 178.176 403.713 179.318C401.753 180.461 405.1 173.594 405.1 173.594Z" fill="black"/>
<path opacity="0.1" d="M446.666 209.077C446.666 209.077 451.321 202.21 451.978 204.172C452.634 206.134 446.666 209.077 446.666 209.077Z" fill="black"/>
<path opacity="0.1" d="M446.994 211.363C446.994 211.363 451.585 205.722 452.026 207.93C452.467 210.137 446.994 211.363 446.994 211.363Z" fill="black"/>
<path opacity="0.1" d="M433.51 204.648C431.845 204.672 430.22 204.136 428.894 203.128H428.492C427.117 204.385 425.312 205.065 423.45 205.026C422.482 205.048 421.52 204.874 420.621 204.513C419.722 204.152 418.906 203.612 418.222 202.927H417.688C416.277 204.077 414.505 204.689 412.686 204.656C410.867 204.623 409.119 203.946 407.751 202.745L405.835 202.711C405.835 202.711 408.079 208.695 406.737 212.428L439.483 213.011C439.229 209.802 439.308 206.576 439.718 203.383V203.339L437.92 203.304C436.626 204.202 435.084 204.672 433.51 204.648Z" fill="black"/>
<path opacity="0.1" d="M433.51 205.629C431.845 205.653 430.22 205.117 428.894 204.109H428.492C427.117 205.366 425.312 206.046 423.45 206.007C422.482 206.029 421.52 205.855 420.621 205.494C419.722 205.133 418.906 204.593 418.222 203.907H417.688C416.277 205.058 414.505 205.67 412.686 205.637C410.867 205.604 409.119 204.927 407.751 203.726L405.835 203.692C405.835 203.692 408.079 209.676 406.737 213.409L439.483 213.992C439.229 210.783 439.308 207.556 439.718 204.364V204.319L437.92 204.285C436.626 205.183 435.084 205.653 433.51 205.629Z" fill="black"/>
<path d="M433.51 205.139C431.845 205.162 430.22 204.627 428.894 203.618H428.492C427.117 204.875 425.312 205.555 423.45 205.516C422.482 205.539 421.52 205.364 420.621 205.003C419.722 204.643 418.906 204.103 418.222 203.417H417.688C416.277 204.567 414.505 205.18 412.686 205.147C410.867 205.114 409.119 204.436 407.751 203.236L405.835 203.201C405.835 203.201 408.079 209.185 406.737 212.918L439.483 213.502C439.229 210.293 439.308 207.066 439.718 203.873V203.829L437.92 203.795C436.626 204.693 435.084 205.163 433.51 205.139Z" fill="#3F3D56"/>
<path opacity="0.1" d="M432.055 172.432C432.055 172.432 438.949 172.873 438.993 173.854C439.037 174.835 432.055 172.432 432.055 172.432Z" fill="black"/>
<path opacity="0.1" d="M415.307 168.248C415.307 168.248 408.412 168.689 408.368 169.67C408.324 170.651 415.307 168.248 415.307 168.248Z" fill="black"/>
<path opacity="0.1" d="M441.654 188.305C441.585 188.255 441.516 188.216 441.448 188.172C443.212 189.761 442.918 193.234 440.752 196.099C438.586 198.963 435.298 200.155 433.299 198.87C433.363 198.924 433.417 198.983 433.486 199.037C435.445 200.538 438.875 199.361 441.139 196.398C443.403 193.435 443.623 189.81 441.654 188.305Z" fill="black"/>
<path opacity="0.1" d="M403.782 195.731C402.038 192.582 402.263 189.104 404.238 187.785C404.164 187.819 404.086 187.848 404.013 187.888C401.847 189.094 401.563 192.709 403.356 195.966C405.149 199.223 408.383 200.871 410.549 199.684C410.621 199.643 410.689 199.597 410.755 199.547C408.594 200.528 405.527 198.88 403.782 195.731Z" fill="black"/>
<path opacity="0.1" d="M406.114 169.175L405.482 170.156L403.87 169.297L404.718 167.993C405.278 168.258 405.76 168.666 406.114 169.175Z" fill="black"/>
<path d="M395.874 205.477C395.874 205.477 397.309 198.718 395.384 196.569C393.458 194.421 394.075 183.159 397.015 183.404C399.955 183.65 404.365 192.557 403.63 194.441C402.895 196.324 400.117 205.968 400.117 205.968L395.874 205.477Z" fill="#FBBEBE"/>
<path opacity="0.1" d="M441.977 156.711C441.638 157.314 441.139 157.811 440.536 158.148C439.923 158.43 439.249 158.551 438.576 158.502C437.915 158.505 437.261 158.363 436.66 158.085C435.029 157.27 434.421 155.318 433.657 153.67C433.56 153.373 433.388 153.106 433.157 152.895C432.76 152.714 432.333 152.61 431.898 152.586C430.981 152.38 430.32 151.581 429.899 150.747C429.477 149.913 429.227 148.991 428.747 148.191C428.267 147.392 427.454 146.69 426.518 146.72C425.908 146.801 425.315 146.974 424.759 147.235C423.966 147.489 423.121 147.539 422.304 147.38C421.487 147.22 420.723 146.857 420.084 146.322C419.691 145.894 419.222 145.542 418.702 145.283C418.348 145.179 417.978 145.14 417.61 145.17C417.046 145.17 416.488 145.224 415.924 145.268C415.645 145.634 415.346 145.985 415.027 146.317C415.885 146.244 416.747 146.17 417.61 146.151C417.978 146.121 418.348 146.16 418.702 146.264C419.222 146.523 419.691 146.875 420.084 147.303C420.723 147.838 421.487 148.201 422.304 148.361C423.121 148.52 423.966 148.47 424.759 148.216C425.315 147.955 425.908 147.782 426.518 147.701C427.454 147.701 428.262 148.387 428.747 149.172C429.232 149.957 429.482 150.889 429.899 151.728C430.315 152.567 430.981 153.361 431.898 153.567C432.333 153.591 432.76 153.696 433.157 153.876C433.404 154.077 433.593 154.339 433.706 154.636C434.47 156.289 435.078 158.242 436.709 159.051C437.31 159.329 437.964 159.472 438.625 159.468C439.298 159.517 439.972 159.396 440.585 159.115C441.188 158.778 441.687 158.28 442.026 157.678C442.787 156.291 443.127 154.713 443.006 153.135C442.969 154.395 442.615 155.625 441.977 156.711Z" fill="black"/>
<path d="M398.044 210.838C400.48 210.838 402.454 209.499 402.454 207.846C402.454 206.194 400.48 204.854 398.044 204.854C395.609 204.854 393.634 206.194 393.634 207.846C393.634 209.499 395.609 210.838 398.044 210.838Z" fill="#575A89"/>
<path d="M254.3 374.397C337.785 374.397 405.463 306.648 405.463 223.076C405.463 139.504 337.785 71.7559 254.3 71.7559C170.816 71.7559 103.138 139.504 103.138 223.076C103.138 306.648 170.816 374.397 254.3 374.397Z" fill="#8C0327"/>
<path d="M333.616 299.119C333.616 323.007 296.102 301.16 255.883 301.16C215.665 301.16 174.986 322.104 174.986 298.217C174.986 284.596 187.951 265.652 206.551 251.894C220.565 241.524 237.773 234.098 255.06 234.098C272.837 234.098 290.251 242.138 304.143 253.174C321.674 267.089 333.616 285.787 333.616 299.119Z" fill="#444053"/>
<path d="M304.137 253.164C282.759 249.941 244.094 246.012 206.551 251.884C220.565 241.514 237.773 234.088 255.06 234.088C272.832 234.088 290.246 242.127 304.137 253.164Z" fill="#F6F8FB"/>
<path opacity="0.05" d="M174.986 116.259C174.986 116.259 129.451 145.4 129.823 190.983C130.195 236.565 174.986 116.259 174.986 116.259Z" fill="black"/>
<path d="M405.404 33.9575C405.404 33.9575 364.147 31.4707 369.012 60.4104C369.012 60.4104 368.032 65.5215 372.677 67.8465C372.677 67.8465 372.751 65.703 376.906 66.4289C378.387 66.6769 379.892 66.7494 381.389 66.6447C383.413 66.507 385.337 65.7113 386.867 64.3786C386.867 64.3786 398.465 59.5864 402.978 40.6088C402.978 40.6088 406.315 36.4689 406.183 35.4094L399.22 38.3819C399.22 38.3819 401.597 43.4096 399.71 47.5887C399.71 47.5887 399.485 38.5683 398.147 38.7596C397.877 38.8037 394.531 40.5009 394.531 40.5009C394.531 40.5009 398.622 49.2613 395.511 55.6231C395.511 55.6231 396.682 44.832 393.227 41.1336L388.328 43.9982C388.328 43.9982 393.11 53.0431 389.866 60.4251C389.866 60.4251 390.699 49.1043 387.299 44.6947L382.854 48.1625C382.854 48.1625 387.348 57.0799 384.609 63.2014C384.609 63.2014 384.251 50.0216 381.894 49.0258C381.894 49.0258 378.008 52.4594 377.415 53.8671C377.415 53.8671 380.493 60.3369 378.587 63.7508C378.587 63.7508 377.415 54.9707 376.455 54.9217C376.455 54.9217 372.584 60.7391 372.177 64.7318C372.177 64.7318 372.349 58.7967 375.514 54.3674C375.514 54.3674 371.771 55.01 369.59 57.4429C369.59 57.4429 370.193 53.3276 376.45 52.9695C376.45 52.9695 379.65 48.555 380.507 48.2901C380.507 48.2901 374.26 47.7652 370.472 49.4477C370.472 49.4477 373.804 45.5678 381.649 47.3287L386.059 43.748C386.059 43.748 377.837 42.6198 374.348 43.8657C374.348 43.8657 378.361 40.4322 387.24 42.9338L392.017 40.0741C392.017 40.0741 385.005 38.5634 380.826 39.0931C380.826 39.0931 385.236 36.7142 393.414 39.2942L396.844 37.7589C396.844 37.7589 391.704 36.7485 390.199 36.5916C388.695 36.4346 388.617 36.0128 388.617 36.0128C391.881 35.4815 395.228 35.8704 398.284 37.136C398.284 37.136 405.526 34.4137 405.404 33.9575Z" fill="#8C0327"/>
<path d="M363.088 21.0916C363.088 21.0916 344.469 19.9634 346.644 33.0403C346.644 33.0403 346.208 35.3505 348.3 36.4002C348.3 36.4002 348.33 35.4192 350.211 35.7625C350.88 35.8727 351.559 35.9056 352.235 35.8606C353.15 35.7953 354.02 35.4357 354.714 34.8355C354.714 34.8355 359.952 32.6675 361.991 24.0935C361.991 24.0935 363.5 22.2246 363.461 21.7439L360.315 23.0879C360.315 23.0879 361.393 25.359 360.545 27.2474C360.545 27.2474 360.442 23.1713 359.84 23.2694C359.717 23.2694 358.203 24.0542 358.203 24.0542C358.203 24.0542 360.055 28.0126 358.659 30.8869C358.659 30.8869 359.188 26.0113 357.63 24.3387L355.415 25.6336C355.415 25.6336 357.576 29.7244 356.111 33.0599C356.111 33.0599 356.483 27.9439 354.949 25.9525L352.94 27.5172C352.94 27.5172 354.969 31.5442 353.734 34.3107C353.734 34.3107 353.573 28.3559 352.504 27.9047C352.504 27.9047 350.75 29.4547 350.481 30.0923C350.481 30.0923 351.872 33.0353 351.01 34.5608C351.01 34.5608 350.481 30.5926 350.03 30.5779C350.03 30.5779 348.281 33.2021 348.099 34.9925C348.184 33.3263 348.702 31.7114 349.604 30.3081C348.595 30.4991 347.665 30.9817 346.928 31.6963C346.928 31.6963 347.198 29.8373 350.035 29.6754C350.035 29.6754 351.48 27.6839 351.867 27.5613C351.867 27.5613 349.045 27.3259 347.335 28.0862C347.335 28.0862 348.839 26.3302 352.387 27.1052L354.347 25.4914C354.347 25.4914 350.633 25.0009 349.055 25.5404C349.055 25.5404 350.868 23.9904 354.881 25.1235L357.037 23.8286C357.037 23.8286 353.871 23.1468 351.98 23.392C351.98 23.392 353.974 22.3178 357.669 23.4852L359.212 22.7887C359.212 22.7887 356.89 22.3325 356.214 22.2639C355.537 22.1952 355.493 22.0039 355.493 22.0039C356.964 21.759 358.474 21.9288 359.854 22.4944C359.854 22.4944 363.142 21.2976 363.088 21.0916Z" fill="#8C0327"/>
<path opacity="0.1" d="M525.804 358.073C533.092 358.073 539 357.074 539 355.841C539 354.609 533.092 353.609 525.804 353.609C518.517 353.609 512.609 354.609 512.609 355.841C512.609 357.074 518.517 358.073 525.804 358.073Z" fill="#8C0327"/>
<path opacity="0.1" d="M22.9167 395.199C30.2043 395.199 36.1121 394.2 36.1121 392.967C36.1121 391.735 30.2043 390.736 22.9167 390.736C15.629 390.736 9.72119 391.735 9.72119 392.967C9.72119 394.2 15.629 395.199 22.9167 395.199Z" fill="#8C0327"/>
<path opacity="0.1" d="M99.5172 398C106.805 398 112.713 397.001 112.713 395.768C112.713 394.536 106.805 393.536 99.5172 393.536C92.2296 393.536 86.3218 394.536 86.3218 395.768C86.3218 397.001 92.2296 398 99.5172 398Z" fill="#8C0327"/>
<path d="M496.924 383.094C507.806 383.094 516.627 381.6 516.627 379.758C516.627 377.916 507.806 376.423 496.924 376.423C486.043 376.423 477.222 377.916 477.222 379.758C477.222 381.6 486.043 383.094 496.924 383.094Z" fill="#8C0327"/>
<path d="M505.068 374.309C505.967 373.574 506.623 372.584 506.95 371.469C507.19 370.345 506.71 368.992 505.637 368.58C504.431 368.119 503.142 368.957 502.167 369.801C501.192 370.645 500.07 371.606 498.791 371.429C499.449 370.833 499.941 370.077 500.219 369.233C500.498 368.39 500.552 367.489 500.379 366.618C500.323 366.257 500.171 365.918 499.938 365.637C499.267 364.92 498.056 365.225 497.253 365.789C494.705 367.584 493.994 371.047 493.98 374.166C493.725 373.043 493.94 371.871 493.936 370.733C493.931 369.595 493.612 368.28 492.642 367.677C492.04 367.355 491.364 367.196 490.682 367.216C489.535 367.172 488.261 367.285 487.477 368.123C486.497 369.168 486.757 370.914 487.605 372.047C488.452 373.181 489.736 373.916 490.917 374.706C491.868 375.272 492.678 376.045 493.289 376.967C493.36 377.097 493.419 377.233 493.465 377.374H500.643C502.25 376.557 503.738 375.526 505.068 374.309Z" fill="#8C0327"/>
<path d="M29.0759 333.18C29.0759 333.18 31.766 336.702 27.8313 342.009C23.8967 347.316 20.653 351.819 21.9515 355.135C21.9515 355.135 27.8852 345.256 32.7313 345.114C37.5773 344.972 34.3874 339.12 29.0759 333.18Z" fill="#8C0327"/>
<path opacity="0.1" d="M29.0761 333.18C29.3097 333.52 29.4944 333.892 29.6249 334.284C34.3386 339.826 36.8474 345.001 32.3198 345.129C28.0961 345.251 23.01 352.805 21.8193 354.713C21.861 354.861 21.91 355.007 21.9663 355.15C21.9663 355.15 27.9001 345.271 32.7461 345.129C37.5922 344.986 34.3876 339.12 29.0761 333.18Z" fill="black"/>
<path d="M34.0788 337.668C34.0788 338.909 33.9367 339.915 33.7652 339.915C33.5937 339.915 33.4565 338.934 33.4565 337.668C33.4565 336.403 33.628 337.011 33.8044 337.011C33.9808 337.011 34.0788 336.427 34.0788 337.668Z" fill="#FFD037"/>
<path d="M35.7745 339.149C34.6867 339.743 33.741 340.101 33.6577 339.949C33.5744 339.797 34.3927 339.198 35.4805 338.605C36.5682 338.011 36.137 338.443 36.2203 338.605C36.3036 338.767 36.8818 338.556 35.7745 339.149Z" fill="#FFD037"/>
<path d="M14.8565 333.18C14.8565 333.18 12.1665 336.702 16.0962 342.009C20.0259 347.316 23.2746 351.819 21.9761 355.135C21.9761 355.135 16.0374 345.256 11.1963 345.114C6.35516 344.972 9.5401 339.12 14.8565 333.18Z" fill="#8C0327"/>
<path opacity="0.1" d="M14.8563 333.18C14.6205 333.519 14.4356 333.891 14.3075 334.284C9.59378 339.826 7.08013 345.001 11.6125 345.129C15.8314 345.251 20.9224 352.805 22.1082 354.713C22.0682 354.861 22.0208 355.007 21.9661 355.15C21.9661 355.15 16.0274 345.271 11.1863 345.129C6.34514 344.986 9.53988 339.12 14.8563 333.18Z" fill="black"/>
<path d="M9.85352 337.668C9.85352 338.909 9.99072 339.915 10.1622 339.915C10.3337 339.915 10.4709 338.934 10.4709 337.668C10.4709 336.403 10.2994 337.011 10.1279 337.011C9.95642 337.011 9.85352 336.427 9.85352 337.668Z" fill="#FFD037"/>
<path d="M8.13369 339.149C9.22147 339.743 10.172 340.101 10.2553 339.949C10.3386 339.797 9.52036 339.198 8.43258 338.605C7.3448 338.011 7.77109 338.443 7.6927 338.605C7.6143 338.767 7.0459 338.556 8.13369 339.149Z" fill="#FFD037"/>
<path d="M10.7114 354.688C10.7114 354.688 18.2377 354.458 20.5112 352.839C22.7848 351.221 32.0897 349.293 32.6532 351.858C33.2167 354.424 43.9622 364.758 35.4658 364.827C26.9693 364.896 15.724 363.498 13.4603 362.12C11.1965 360.741 10.7114 354.688 10.7114 354.688Z" fill="#A8A8A8"/>
<path opacity="0.2" d="M35.6079 363.949C27.1114 364.018 15.8661 362.62 13.6024 361.242C11.8776 360.192 11.1916 356.42 10.9613 354.679H10.7114C10.7114 354.679 11.2014 360.756 13.4505 362.134C15.6995 363.513 26.9595 364.911 35.456 364.842C37.9059 364.842 38.7536 363.944 38.7095 362.654C38.3665 363.444 37.4355 363.935 35.6079 363.949Z" fill="black"/>
<path d="M200.558 203.236C203.434 203.074 216.973 202.053 225.572 197.143C226.953 196.33 228.513 195.87 230.114 195.804C232.848 195.726 235.994 196.869 233.98 203.265C230.717 213.727 211.769 225.499 200.009 224.847C188.7 224.219 175.284 219.658 166.425 203.618C165.577 202.075 165.158 200.332 165.215 198.571C165.318 195.333 166.494 191.277 172.565 195.799C180.767 201.906 196.329 203.064 199.451 203.236C199.82 203.255 200.189 203.255 200.558 203.236Z" fill="#444053"/>
<path d="M309.336 203.236C312.213 203.074 325.751 202.053 334.35 197.143C335.732 196.33 337.292 195.87 338.893 195.804C341.627 195.726 344.773 196.869 342.759 203.265C339.495 213.727 320.547 225.499 308.788 224.847C297.479 224.219 284.063 219.658 275.204 203.618C274.355 202.075 273.937 200.332 273.993 198.571C274.096 195.333 275.272 191.277 281.343 195.799C289.546 201.906 305.108 203.064 308.229 203.236C308.598 203.255 308.968 203.255 309.336 203.236Z" fill="#444053"/>
</g>
<defs>
<linearGradient id="paint0_linear_3_876" x1="437.141" y1="371.797" x2="437.141" y2="129.468" gradientUnits="userSpaceOnUse">
<stop stop-color="#808080" stop-opacity="0.25"/>
<stop offset="0.54" stop-color="#808080" stop-opacity="0.12"/>
<stop offset="1" stop-color="#808080" stop-opacity="0.1"/>
</linearGradient>
<clipPath id="clip0_3_876">
<rect width="539" height="398" fill="white"/>
</clipPath>
</defs>
</svg>
