<svg width="427" height="488" viewBox="0 0 427 488" fill="none" xmlns="http://www.w3.org/2000/svg">
<g clip-path="url(#clip0_6_1565)">
<path d="M204.914 457.804L204.37 445.56C204.313 445.53 204.257 445.5 204.2 445.471C198.369 442.409 191.686 447.951 193.548 454.271C195.301 460.218 196.478 466.628 199.686 471.833C201.581 474.856 204.132 477.414 207.149 479.317C210.167 481.219 213.574 482.418 217.117 482.824L224.525 487.363C225.542 481.692 225.318 475.869 223.869 470.293C222.419 464.718 219.779 459.523 216.13 455.067C214.058 452.587 211.682 450.378 209.059 448.493C207.285 453.174 204.914 457.804 204.914 457.804Z" fill="#F2F2F2"/>
<path d="M138.585 333.556C124.322 318.837 103.653 310.396 81.8774 310.396L81.0375 310.398C66.6945 310.404 52.6074 306.597 40.217 299.368L38.9277 298.616L39.9661 297.546C45.5882 291.726 50.2826 285.076 53.8848 277.828C51.3264 280.215 48.275 282.01 44.9465 283.086C41.618 284.161 38.0938 284.492 34.6235 284.054C30.9596 283.617 27.4422 282.356 24.3351 280.364C21.228 278.373 18.6119 275.703 16.683 272.556C9.07218 260.2 0 242.668 0 229.312C0.0118474 218.023 2.37422 206.86 6.93656 196.534C11.4989 186.209 18.1611 176.948 26.4985 169.342C31.7768 164.58 35.9928 158.758 38.8717 152.257C41.7505 145.755 43.2276 138.719 43.2065 131.607L43.2023 130.595C43.2009 121.233 44.3443 111.905 46.6072 102.821L46.8369 101.903L47.7803 101.936C53.8633 102.143 59.9496 101.633 65.9134 100.416C60.3193 99.7297 54.8468 98.2733 49.6511 96.0884L48.6363 95.6776L48.9807 94.6371C72.721 79.9293 126.31 87.5458 157.414 16.3386C182.636 -41.4008 271.626 67.5938 271.626 130.595C271.626 137.024 265.268 145.519 270.027 149.768C321.481 195.7 285.979 225.194 274.786 254.872C272.13 261.914 277.888 269.644 277.888 277.262C277.888 278.555 277.855 279.889 277.79 281.228L277.691 283.287L275.975 282.145C272.582 279.92 269.436 277.338 266.591 274.443C269.542 281.237 270.933 288.607 270.661 296.01C270.389 303.414 268.462 310.662 265.021 317.221C259.628 327.405 254.412 334.695 249.516 338.888C233.831 352.318 213.612 359.246 192.993 358.255C172.373 357.263 152.911 348.428 138.585 333.556Z" fill="#E6E6E6"/>
<path d="M224.73 486.759C225.081 486.759 225.42 486.632 225.684 486.402C225.949 486.171 226.122 485.854 226.171 485.506C226.233 485.071 232.298 441.305 226.851 383.139C221.821 329.421 205.667 252.048 157.276 188.503C157.16 188.35 157.015 188.222 156.85 188.126C156.684 188.029 156.502 187.966 156.312 187.94C156.122 187.915 155.929 187.927 155.744 187.975C155.558 188.024 155.385 188.109 155.232 188.225C155.08 188.342 154.952 188.487 154.856 188.652C154.759 188.818 154.697 189.001 154.671 189.191C154.646 189.381 154.658 189.574 154.707 189.759C154.756 189.945 154.841 190.118 154.958 190.271C202.931 253.267 218.954 330.072 223.949 383.411C229.364 441.239 223.347 484.663 223.286 485.095C223.256 485.302 223.272 485.513 223.331 485.713C223.39 485.914 223.492 486.099 223.629 486.257C223.766 486.415 223.935 486.541 224.125 486.628C224.315 486.714 224.522 486.759 224.73 486.759Z" fill="#3F3D56"/>
<path d="M185.24 278.136C185.548 278.136 185.848 278.039 186.098 277.858C186.347 277.677 186.532 277.422 186.627 277.129C186.723 276.836 186.723 276.521 186.628 276.228C186.533 275.935 186.347 275.679 186.098 275.498C185.923 275.371 168.22 262.608 141.755 252.912C117.289 243.949 80.0861 235.825 41.7861 248.021C41.6035 248.079 41.434 248.172 41.2875 248.296C41.1409 248.419 41.0201 248.57 40.9319 248.741C40.8438 248.911 40.7901 249.097 40.7738 249.288C40.7576 249.479 40.7791 249.671 40.8372 249.854C40.8953 250.036 40.9888 250.206 41.1124 250.352C41.236 250.499 41.3872 250.619 41.5574 250.707C41.7276 250.795 41.9135 250.849 42.1044 250.865C42.2953 250.881 42.4875 250.859 42.67 250.8C80.1853 238.854 116.714 246.845 140.752 255.651C166.84 265.208 184.212 277.732 184.385 277.858C184.633 278.039 184.933 278.136 185.24 278.136Z" fill="#3F3D56"/>
<path d="M251.942 111.909C251.965 111.601 251.89 111.295 251.727 111.033C251.565 110.772 251.324 110.568 251.039 110.452C250.754 110.336 250.439 110.313 250.14 110.387C249.841 110.46 249.573 110.627 249.375 110.862C249.235 111.029 235.238 127.777 223.667 153.491C212.971 177.261 202.193 213.805 211.593 252.906C211.683 253.282 211.919 253.607 212.249 253.809C212.578 254.011 212.974 254.073 213.35 253.983C213.726 253.892 214.05 253.656 214.252 253.327C214.454 252.997 214.517 252.6 214.426 252.224C205.22 213.924 215.816 178.044 226.325 154.688C237.73 129.341 251.466 112.906 251.603 112.742C251.802 112.507 251.92 112.216 251.942 111.909Z" fill="#3F3D56"/>
<path d="M249.97 187.101C251.2 197.027 258.074 205.212 268.071 205.212C272.871 205.212 277.475 203.304 280.87 199.907C284.264 196.511 286.171 191.904 286.171 187.101C286.171 177.098 278.024 169.914 268.071 168.99C257.509 168.008 248.391 174.356 249.97 187.101Z" fill="#2F2E41"/>
<path d="M276.454 478.782L283.347 478.781L286.626 452.179L276.453 452.179L276.454 478.782Z" fill="#FFB6B6"/>
<path d="M276.212 485.977L297.408 485.976V485.708C297.408 483.518 296.539 481.419 294.992 479.871C293.444 478.322 291.346 477.453 289.158 477.453L285.286 474.514L278.062 477.453L276.211 477.453L276.212 485.977Z" fill="#2F2E41"/>
<path d="M249.303 478.782L256.196 478.781L259.475 452.179L249.302 452.179L249.303 478.782Z" fill="#FFB6B6"/>
<path d="M249.061 485.977L270.257 485.976V485.708C270.257 483.518 269.388 481.419 267.841 479.871C266.293 478.322 264.195 477.453 262.007 477.453L258.135 474.514L250.911 477.453L249.061 477.453L249.061 485.977Z" fill="#2F2E41"/>
<path d="M300.174 312.165L305.047 328.883L299.306 399.687C299.306 399.687 302.263 404.114 300.174 404.114C298.085 404.114 295.407 405.096 297.095 407.74C298.782 410.383 293.015 419.875 293.015 419.875L284.858 470.29L274.465 470.136C274.465 470.136 269.181 467.191 272.146 464.212C275.112 461.234 277.2 461.234 274.416 458.448C271.631 455.661 271.631 456.501 271.631 454.34C271.631 452.178 268.841 425.769 275.457 415.638L273.464 374.334L268.768 414.848L259.1 468.896L249.088 468.814C249.088 468.814 244.463 464.354 244.472 461.053C244.48 457.751 247.329 457.477 245.208 455.524C243.088 453.572 243.088 423.575 249.353 406.9C249.353 406.9 252.898 397.584 249.345 394.392C245.793 391.2 249.341 387.547 249.341 387.547C249.341 387.547 254.967 385.512 249.336 379.649C243.704 373.785 249.305 332.316 249.305 332.316C249.305 332.316 243.149 315.577 249.384 308.995C255.619 302.413 300.174 312.165 300.174 312.165Z" fill="#2F2E41"/>
<path d="M213.379 340.969L222.074 319.944L228.924 323.752L224.787 345.139C225.201 346.494 225.23 347.938 224.869 349.308C224.508 350.678 223.773 351.921 222.745 352.896C221.717 353.87 220.438 354.539 219.051 354.826C217.665 355.114 216.225 355.008 214.895 354.522C213.565 354.036 212.397 353.188 211.522 352.074C210.647 350.96 210.1 349.623 209.943 348.215C209.785 346.807 210.023 345.383 210.63 344.103C211.237 342.822 212.189 341.737 213.379 340.969Z" fill="#FFB6B6"/>
<path d="M359.279 174.714L346.049 193.221L340.24 187.959L349.112 168.066C349.015 166.652 349.315 165.239 349.976 163.987C350.638 162.734 351.636 161.69 352.857 160.974C354.079 160.257 355.476 159.896 356.892 159.931C358.308 159.965 359.686 160.394 360.871 161.169C362.057 161.945 363.002 163.035 363.602 164.319C364.202 165.602 364.432 167.028 364.267 168.435C364.101 169.843 363.547 171.176 362.666 172.285C361.785 173.394 360.612 174.235 359.279 174.714Z" fill="#FFB6B6"/>
<path d="M301.487 313.879C310.068 327.197 266.935 344.097 250.385 337.312C247.487 336.124 237.518 332.2 244.332 326.759C251.146 321.319 243.542 320.553 243.362 317.011C243.242 314.643 245.074 309.449 243.162 309.672C241.251 309.895 239.013 306.62 243.177 305.211C247.34 303.802 243.221 302.517 243.258 301.179C243.656 286.582 254.849 263.364 254.849 263.364L234.68 314.951C234.68 314.951 234.829 323.875 232.257 321.148C229.685 318.421 229.872 327.248 229.872 327.248C229.872 327.248 226.048 329.919 228.247 331.405C230.446 332.891 225.879 337.461 225.879 337.461L215.223 336.699C215.223 336.699 215.39 328.779 217.21 327.027C219.029 325.275 218.135 322.519 218.135 322.519C218.135 322.519 222.872 318.323 219.697 314.916C215.612 310.535 230.504 236.53 235.643 237.263C236.37 233.724 238.06 230.456 240.527 227.819C242.994 225.182 246.142 223.279 249.623 222.32L261.132 219.149L263.176 211.035H279.382L282.204 216.367L294.525 221.93C296.846 218.654 298.58 215.201 308.083 214.082C308.083 214.082 333.691 190.769 332.44 188.949C331.19 187.129 335.16 182.867 335.16 182.867C335.16 182.867 338.55 181.757 336.637 181.164C334.724 180.572 338.34 179.201 338.34 179.201C338.34 179.201 341.688 178.321 340.109 177.161C338.529 176.002 345.38 175.24 345.38 175.24L354.268 182.497L352.471 185.544C352.471 185.544 353.567 189.695 352.137 188.179C350.708 186.664 350.439 191.061 350.439 191.061C350.439 191.061 349.709 195.876 345.38 197.327C341.051 198.777 337.768 212.559 337.768 212.559C327.559 225.841 315.511 236.202 301.233 243.023C306.798 249.413 301.487 313.879 301.487 313.879Z" fill="#8C0327"/>
<path d="M270.071 206.287C278.936 206.287 286.122 199.097 286.122 190.227C286.122 181.357 278.936 174.167 270.071 174.167C261.207 174.167 254.021 181.357 254.021 190.227C254.021 199.097 261.207 206.287 270.071 206.287Z" fill="#FFB6B6"/>
<path d="M253.451 191.977C253.959 195.467 256.932 200.336 256.236 200.336C255.539 200.336 250.59 185.949 255.539 185.011C259.13 184.331 259.932 184.927 263.288 183.472L262.815 183.917C265.035 185.533 268.126 184.537 270.66 183.485C273.201 182.441 276.285 181.444 278.513 183.054C279.913 184.064 280.504 185.819 281.374 187.31C282.245 188.807 283.853 190.221 285.51 189.762C286.839 189.392 287.605 187.902 287.598 186.523C287.591 185.143 285.796 183.831 286.401 182.594C288.192 178.927 286.581 176.427 282.676 174.702C281.256 174.486 279.836 174.265 278.416 174.04C279.16 173.008 280.062 172.101 281.089 171.351C280.655 170.238 279.905 169.276 278.931 168.586C277.796 167.91 276.39 167.959 275.074 168.028C272.136 168.181 269.201 168.335 266.268 168.488C264.095 168.599 261.847 168.732 259.905 169.728C257.482 170.975 255.895 173.406 254.739 175.879C252.149 181.438 252.56 185.91 253.451 191.977Z" fill="#2F2E41"/>
<path d="M186.681 487.786L344.538 488C344.758 488 344.969 487.913 345.124 487.757C345.28 487.602 345.367 487.391 345.367 487.171C345.367 486.951 345.28 486.74 345.124 486.584C344.969 486.429 344.758 486.341 344.538 486.341L186.681 486.127C186.461 486.127 186.25 486.215 186.094 486.37C185.939 486.526 185.852 486.737 185.852 486.957C185.852 487.177 185.939 487.387 186.094 487.543C186.25 487.699 186.461 487.786 186.681 487.786Z" fill="#CACACA"/>
<path d="M129.587 415.487C129.878 413.485 127.784 411.524 124.908 411.105C122.033 410.687 119.467 411.97 119.176 413.971C118.885 415.972 120.979 417.934 123.855 418.352C126.73 418.771 129.296 417.488 129.587 415.487Z" fill="#E6E6E6"/>
<path d="M163.819 412.144C164.11 410.143 162.016 408.181 159.14 407.763C156.265 407.344 153.699 408.627 153.408 410.629C153.117 412.63 155.211 414.592 158.087 415.01C160.962 415.429 163.528 414.146 163.819 412.144Z" fill="#3F3D56"/>
<path d="M120.214 387.757C120.505 385.756 118.41 383.794 115.535 383.375C112.66 382.957 110.093 384.24 109.802 386.241C109.511 388.242 111.606 390.204 114.481 390.623C117.356 391.041 119.923 389.758 120.214 387.757Z" fill="#FF6584"/>
<path d="M105.339 376.398C105.353 374.561 104.329 373.064 103.051 373.054C101.774 373.045 100.727 374.526 100.713 376.363C100.7 378.201 101.724 379.698 103.001 379.708C104.279 379.717 105.325 378.236 105.339 376.398Z" fill="#E6E6E6"/>
<path d="M100.295 355.242C100.309 353.405 99.2845 351.908 98.0072 351.898C96.7298 351.888 95.6831 353.37 95.6692 355.207C95.6553 357.044 96.6796 358.542 97.9569 358.551C99.2342 358.561 100.281 357.079 100.295 355.242Z" fill="#3F3D56"/>
<path d="M139.521 392.476C139.535 390.639 138.511 389.141 137.233 389.132C135.956 389.122 134.909 390.604 134.895 392.441C134.881 394.278 135.906 395.775 137.183 395.785C138.46 395.795 139.507 394.313 139.521 392.476Z" fill="#E6E6E6"/>
<path d="M122.979 400.74C122.992 398.903 121.968 397.406 120.691 397.396C119.414 397.386 118.367 398.868 118.353 400.705C118.339 402.542 119.363 404.04 120.641 404.049C121.918 404.059 122.965 402.577 122.979 400.74Z" fill="#FF6584"/>
<path d="M146.006 416.015C146.02 414.177 144.996 412.68 143.718 412.67C142.441 412.661 141.394 414.142 141.38 415.98C141.366 417.817 142.391 419.314 143.668 419.324C144.945 419.333 145.992 417.852 146.006 416.015Z" fill="#3F3D56"/>
<path d="M392.741 308.213C393.032 306.211 390.937 304.25 388.062 303.831C385.187 303.413 382.62 304.696 382.329 306.697C382.038 308.698 384.133 310.66 387.008 311.078C389.883 311.497 392.45 310.214 392.741 308.213Z" fill="#E6E6E6"/>
<path d="M426.973 304.87C427.264 302.869 425.169 300.907 422.294 300.489C419.419 300.07 416.852 301.353 416.561 303.355C416.27 305.356 418.365 307.318 421.24 307.736C424.115 308.155 426.682 306.872 426.973 304.87Z" fill="#3F3D56"/>
<path d="M383.367 280.483C383.658 278.482 381.563 276.52 378.688 276.101C375.813 275.683 373.246 276.966 372.955 278.967C372.664 280.968 374.759 282.93 377.634 283.349C380.509 283.767 383.076 282.484 383.367 280.483Z" fill="#FF6584"/>
<path d="M368.493 269.124C368.507 267.287 367.482 265.79 366.205 265.78C364.928 265.771 363.881 267.252 363.867 269.089C363.853 270.927 364.878 272.424 366.155 272.434C367.432 272.443 368.479 270.962 368.493 269.124Z" fill="#E6E6E6"/>
<path d="M363.449 247.968C363.462 246.131 362.438 244.634 361.161 244.624C359.883 244.614 358.837 246.096 358.823 247.933C358.809 249.77 359.833 251.268 361.111 251.277C362.388 251.287 363.435 249.805 363.449 247.968Z" fill="#3F3D56"/>
<path d="M402.674 285.202C402.688 283.365 401.664 281.867 400.387 281.858C399.109 281.848 398.063 283.33 398.049 285.167C398.035 287.004 399.059 288.501 400.337 288.511C401.614 288.521 402.661 287.039 402.674 285.202Z" fill="#E6E6E6"/>
<path d="M386.132 293.466C386.146 291.629 385.122 290.132 383.844 290.122C382.567 290.112 381.52 291.594 381.506 293.431C381.493 295.268 382.517 296.766 383.794 296.775C385.071 296.785 386.118 295.303 386.132 293.466Z" fill="#FF6584"/>
<path d="M409.16 308.741C409.174 306.903 408.149 305.406 406.872 305.396C405.595 305.387 404.548 306.868 404.534 308.706C404.52 310.543 405.544 312.04 406.822 312.05C408.099 312.059 409.146 310.578 409.16 308.741Z" fill="#3F3D56"/>
<path d="M265.341 109.686C265.632 107.685 263.538 105.723 260.662 105.305C257.787 104.886 255.221 106.169 254.93 108.17C254.639 110.172 256.733 112.133 259.609 112.552C262.484 112.97 265.05 111.687 265.341 109.686Z" fill="white"/>
<path d="M299.573 106.344C299.864 104.343 297.769 102.381 294.894 101.962C292.019 101.544 289.452 102.827 289.161 104.828C288.87 106.829 290.965 108.791 293.84 109.21C296.716 109.628 299.282 108.345 299.573 106.344Z" fill="#3F3D56"/>
<path d="M255.968 81.9564C256.259 79.9551 254.164 77.9934 251.289 77.5749C248.414 77.1563 245.847 78.4393 245.556 80.4406C245.265 82.4419 247.36 84.4036 250.235 84.8222C253.11 85.2407 255.677 83.9577 255.968 81.9564Z" fill="#FF6584"/>
<path d="M241.093 70.5979C241.107 68.7606 240.083 67.2634 238.805 67.2537C237.528 67.2441 236.481 68.7256 236.467 70.5629C236.454 72.4002 237.478 73.8974 238.755 73.9071C240.032 73.9167 241.079 72.4352 241.093 70.5979Z" fill="#E6E6E6"/>
<path d="M236.049 49.4415C236.063 47.6042 235.038 46.107 233.761 46.0973C232.484 46.0877 231.437 47.5692 231.423 49.4065C231.409 51.2438 232.433 52.741 233.711 52.7507C234.988 52.7603 236.035 51.2788 236.049 49.4415Z" fill="#3F3D56"/>
<path d="M275.275 86.6753C275.289 84.838 274.264 83.3408 272.987 83.3311C271.71 83.3215 270.663 84.803 270.649 86.6403C270.635 88.4775 271.66 89.9748 272.937 89.9844C274.214 89.9941 275.261 88.5125 275.275 86.6753Z" fill="#E6E6E6"/>
<path d="M258.732 94.9395C258.746 93.1023 257.722 91.6051 256.445 91.5954C255.167 91.5857 254.121 93.0673 254.107 94.9045C254.093 96.7418 255.117 98.239 256.394 98.2487C257.672 98.2584 258.719 96.7768 258.732 94.9395Z" fill="#FF6584"/>
<path d="M281.76 110.214C281.774 108.377 280.75 106.88 279.472 106.87C278.195 106.86 277.148 108.342 277.134 110.179C277.12 112.016 278.145 113.514 279.422 113.523C280.699 113.533 281.746 112.051 281.76 110.214Z" fill="#3F3D56"/>
</g>
<defs>
<clipPath id="clip0_6_1565">
<rect width="427" height="488" fill="white"/>
</clipPath>
</defs>
</svg>
