<svg width="559" height="395" viewBox="0 0 559 395" fill="none" xmlns="http://www.w3.org/2000/svg">
<g clip-path="url(#clip0_6_1399)">
<path d="M33.0399 333.211L15.902 318.729C17.8619 307.119 22.6304 296.163 29.7934 286.81C30.3694 307.733 51.8465 321.745 59.2371 341.331C61.4953 347.458 62.3439 354.013 61.7201 360.511C61.0962 367.01 59.0159 373.285 55.6332 378.871L53.9091 394.677C44.5498 389.807 36.359 382.969 29.9012 374.634C23.4434 366.298 18.8721 356.664 16.5021 346.395C15.2298 340.62 14.6907 334.709 14.8976 328.8C23.6723 331.467 33.0399 333.211 33.0399 333.211Z" fill="#F2F2F2"/>
<path d="M513.44 360.912L525.408 341.944C537.195 342.261 548.726 345.445 559 351.222C538.333 354.713 527.437 377.905 509.046 387.948C503.286 391.036 496.904 392.791 490.373 393.082C483.842 393.372 477.329 392.191 471.317 389.627L455.402 390.129C458.924 380.195 464.561 371.142 471.925 363.593C479.289 356.043 488.205 350.178 498.057 346.401C503.606 344.336 509.392 342.978 515.281 342.357C513.862 351.406 513.44 360.912 513.44 360.912Z" fill="#F2F2F2"/>
<path d="M134.621 299.08L68.2632 295.193L77.3593 230.964L135.834 293.895L134.621 299.08Z" fill="#F2F2F2"/>
<path d="M126.175 364.606L58.6037 360.065L67.6134 301.68L126.48 360.075L126.175 364.606Z" fill="#F2F2F2"/>
<path d="M503.652 93.6657V34.3375C503.652 29.8282 502.762 25.3631 501.034 21.1971C499.306 17.0311 496.773 13.2458 493.58 10.0572C490.387 6.86869 486.596 4.33941 482.424 2.61379C478.252 0.888168 473.78 0 469.264 0H343.386C338.87 -8.51983e-07 334.398 0.888167 330.226 2.61379C326.054 4.33941 322.263 6.86869 319.07 10.0572C315.877 13.2458 313.344 17.0311 311.616 21.1971C309.887 25.3631 308.998 29.8283 308.998 34.3375V359.817C308.998 368.923 312.621 377.657 319.07 384.097C325.519 390.536 334.265 394.154 343.386 394.154H469.264C478.384 394.154 487.131 390.536 493.58 384.097C500.029 377.657 503.652 368.923 503.652 359.817V135.897C504.227 135.897 504.779 135.668 505.185 135.262C505.592 134.856 505.821 134.305 505.821 133.731V95.8314C505.821 95.257 505.592 94.7062 505.186 94.3C504.779 93.8939 504.227 93.6657 503.652 93.6657Z" fill="#3F3D56"/>
<path d="M496.333 34.5732V359.582C496.334 366.333 493.667 372.812 488.912 377.61C484.157 382.409 477.697 385.14 470.937 385.211C470.844 385.22 470.75 385.224 470.656 385.222H344.165C337.355 385.222 330.824 382.52 326.008 377.712C321.193 372.903 318.488 366.382 318.487 359.582V34.5732C318.488 27.7732 321.193 21.2519 326.008 16.4436C330.824 11.6352 337.355 8.93368 344.165 8.93305H359.515C358.76 10.7835 358.473 12.7908 358.677 14.7783C358.882 16.7658 359.573 18.6726 360.689 20.3309C361.805 21.9893 363.312 23.3483 365.078 24.2884C366.843 25.2286 368.813 25.721 370.814 25.7225H442.929C444.928 25.717 446.895 25.2217 448.658 24.2802C450.421 23.3387 451.926 21.9796 453.04 20.3222C454.154 18.6648 454.844 16.7597 455.049 14.774C455.254 12.7883 454.968 10.7827 454.217 8.93304H470.656C477.466 8.93367 483.997 11.6352 488.812 16.4436C493.627 21.2519 496.333 27.7732 496.333 34.5732Z" fill="white"/>
<path d="M468.484 377.288C468.484 380.656 468.378 383.995 468.166 387.306C468.073 387.316 467.98 387.321 467.887 387.319H341.399C335.676 387.318 330.117 385.409 325.604 381.895C321.091 378.381 317.883 373.462 316.488 367.92C316.244 366.953 316.059 365.971 315.936 364.981C315.792 363.886 315.721 362.783 315.722 361.679V216.84C325.454 217.321 335.123 218.684 344.608 220.914C345.537 221.128 346.46 221.355 347.376 221.589C347.435 221.602 347.493 221.621 347.552 221.634C348.481 221.868 349.403 222.114 350.319 222.368C369.874 227.73 388.229 236.755 404.409 248.961C405.338 249.655 406.261 250.369 407.177 251.089L407.352 251.225C408.885 252.432 410.395 253.669 411.881 254.936C412.212 255.215 412.543 255.5 412.868 255.792C413.667 256.48 414.467 257.181 415.246 257.888C432.5 273.396 446.196 292.441 455.399 313.721C455.704 314.416 455.997 315.116 456.289 315.817C456.406 316.102 456.523 316.388 456.64 316.673C456.75 316.933 456.854 317.192 456.958 317.452C464.597 336.478 468.51 356.79 468.484 377.288Z" fill="#3F3D56"/>
<path d="M309.694 126.856C308.917 126.855 308.173 126.547 307.625 125.999C307.076 125.451 306.767 124.708 306.766 123.933V104.057C306.766 103.282 307.075 102.538 307.624 101.99C308.173 101.442 308.917 101.134 309.694 101.134C310.47 101.134 311.214 101.442 311.763 101.99C312.312 102.538 312.621 103.282 312.621 104.057V123.933C312.62 124.708 312.311 125.451 311.762 125.999C311.214 126.547 310.47 126.855 309.694 126.856Z" fill="#3F3D56"/>
<path d="M309.108 88.2732C308.332 88.2723 307.588 87.964 307.039 87.4161C306.49 86.8681 306.182 86.1252 306.181 85.3502V65.4742C306.181 64.6989 306.489 63.9555 307.038 63.4073C307.587 62.8592 308.332 62.5512 309.108 62.5512C309.884 62.5512 310.629 62.8592 311.178 63.4073C311.727 63.9555 312.035 64.6989 312.035 65.4742V85.3502C312.034 86.1252 311.726 86.8681 311.177 87.4161C310.628 87.964 309.884 88.2723 309.108 88.2732Z" fill="#3F3D56"/>
<path d="M386.972 12.2764C386.973 11.5015 387.282 10.7585 387.831 10.2106C388.379 9.66262 389.123 9.35437 389.9 9.35346H409.805C410.189 9.35289 410.571 9.42807 410.926 9.5747C411.282 9.72134 411.605 9.93656 411.877 10.208C412.15 10.4795 412.366 10.8019 412.513 11.1568C412.66 11.5118 412.736 11.8922 412.736 12.2764C412.736 12.6606 412.66 13.0411 412.513 13.396C412.366 13.7509 412.15 14.0733 411.877 14.3448C411.605 14.6163 411.282 14.8315 410.926 14.9781C410.571 15.1248 410.189 15.1999 409.805 15.1994H389.9C389.123 15.1985 388.379 14.8902 387.831 14.3422C387.282 13.7943 386.973 13.0513 386.972 12.2764Z" fill="white"/>
<path d="M309.694 160.762C308.917 160.762 308.173 160.453 307.625 159.905C307.076 159.357 306.767 158.614 306.766 157.839V137.963C306.766 137.188 307.075 136.445 307.624 135.897C308.173 135.348 308.917 135.04 309.694 135.04C310.47 135.04 311.214 135.348 311.763 135.897C312.312 136.445 312.621 137.188 312.621 137.963V157.839C312.62 158.614 312.311 159.357 311.762 159.905C311.214 160.453 310.47 160.762 309.694 160.762Z" fill="#3F3D56"/>
<path d="M420.928 15.1994C422.545 15.1994 423.855 13.8907 423.855 12.2764C423.855 10.6621 422.545 9.35345 420.928 9.35345C419.311 9.35345 418.001 10.6621 418.001 12.2764C418.001 13.8907 419.311 15.1994 420.928 15.1994Z" fill="white"/>
<path opacity="0.2" d="M410.12 362.886C410.119 356.817 411.316 350.807 413.641 345.2C415.967 339.593 419.375 334.498 423.673 330.207C427.971 325.916 433.073 322.512 438.688 320.19C444.303 317.867 450.322 316.673 456.4 316.673H456.64C456.523 316.388 456.406 316.103 456.289 315.817C455.997 315.116 455.704 314.416 455.399 313.722H410.12V255.792H412.868C412.543 255.5 412.212 255.215 411.881 254.936C410.393 253.671 408.883 252.434 407.352 251.225L407.177 251.089V252.841H350.319V222.368C349.403 222.115 348.481 221.868 347.552 221.634C347.493 221.621 347.435 221.602 347.376 221.589V252.84H318.489V255.792H347.376V313.722H318.489V316.673H347.376V362.886H318.704C318.827 363.876 319.012 364.857 319.256 365.825H347.376V385.223H350.319V365.825H407.177V385.223H410.12V365.825H459.726V362.886H410.12ZM407.177 362.886H350.319V316.673H407.177V362.886ZM407.177 313.722H350.319V312.567C350.319 297.509 356.31 283.069 366.973 272.421C377.635 261.774 392.097 255.793 407.177 255.792V313.722Z" fill="black"/>
<path d="M155.058 151.028L123.501 393.423L123.3 394.968H121.987L122.189 393.423L153.772 150.86L155.058 151.028Z" fill="#E5E5E5"/>
<path d="M89.3584 151.333L54.5592 393.449L54.3383 394.994H53.0259L53.2468 393.449L88.0719 151.152L89.3584 151.333Z" fill="#E5E5E5"/>
<path d="M204.125 394.935L202.774 394.942L202.358 393.398L135.04 143.717L136.294 143.379L203.703 393.398L204.125 394.935Z" fill="#3F3D56"/>
<path d="M201.274 143.37L200.025 143.723L270.965 393.6L272.215 393.246L201.274 143.37Z" fill="#3F3D56"/>
<path d="M258.674 347.756L194.347 361.044L194.61 362.315L258.937 349.027L258.674 347.756Z" fill="#3F3D56"/>
<path d="M247.521 308.778L183.194 322.066L183.457 323.337L247.784 310.048L247.521 308.778Z" fill="#3F3D56"/>
<path d="M236.376 269.798L172.498 282.142L172.745 283.416L236.623 271.071L236.376 269.798Z" fill="#3F3D56"/>
<path d="M225.222 230.827L162.735 243.157L162.987 244.43L225.474 232.1L225.222 230.827Z" fill="#3F3D56"/>
<path d="M88.2598 151.288C87.2827 144.914 88.8814 138.414 92.7042 133.216C96.5271 128.019 102.261 124.551 108.644 123.576C115.028 122.6 121.538 124.196 126.743 128.013C131.948 131.831 135.421 137.556 136.398 143.93L135.113 144.127C134.657 141.138 133.615 138.268 132.047 135.681C130.479 133.095 128.417 130.842 125.977 129.051C123.537 127.261 120.767 125.968 117.827 125.246C114.886 124.525 111.832 124.389 108.839 124.846C105.846 125.304 102.973 126.346 100.383 127.913C97.7933 129.479 95.5381 131.54 93.7462 133.977C91.9543 136.415 90.661 139.181 89.9399 142.117C89.2189 145.054 89.0844 148.103 89.544 151.092L88.2598 151.288Z" fill="#3F3D56"/>
<path d="M153.337 151.579C152.81 148.428 152.911 145.206 153.632 142.094C154.353 138.983 155.681 136.044 157.54 133.445C159.399 130.847 161.752 128.639 164.466 126.949C167.179 125.258 170.2 124.118 173.355 123.594C176.509 123.069 179.737 123.17 182.853 123.891C185.968 124.612 188.911 125.939 191.513 127.796C194.115 129.653 196.325 132.004 198.017 134.714C199.709 137.424 200.85 140.441 201.374 143.591L200.092 143.804C199.086 137.785 195.726 132.412 190.753 128.865C185.779 125.319 179.599 123.89 173.571 124.892C167.543 125.895 162.16 129.247 158.606 134.211C155.052 139.175 153.618 145.346 154.619 151.366L153.337 151.579Z" fill="#3F3D56"/>
<path d="M220.476 204.526L207.989 234.86L248.674 234.565L244.537 204.459L220.476 204.526Z" fill="#FFB6B6"/>
<path d="M230.411 343.775L236.446 344.654L242.712 321.831L233.805 320.534L230.411 343.775Z" fill="#FFB6B6"/>
<path d="M229.349 340.585L238.971 341.406L238.375 345.487L246.531 353.063C246.934 353.437 247.206 353.93 247.309 354.47C247.411 355.009 247.338 355.568 247.1 356.063C246.862 356.558 246.472 356.965 245.987 357.223C245.501 357.481 244.946 357.578 244.401 357.498L233.044 355.844L231.676 351.522L230.322 355.448L226.04 354.824L229.349 340.585Z" fill="#2F2E41"/>
<path d="M160.671 326.918L165.486 330.656L182.216 313.893L175.111 308.376L160.671 326.918Z" fill="#FFB6B6"/>
<path d="M161.324 323.62L169.288 329.076L166.752 332.332L170.102 342.939C170.267 343.463 170.261 344.026 170.083 344.546C169.905 345.066 169.566 345.516 169.114 345.829C168.663 346.143 168.122 346.304 167.572 346.29C167.022 346.275 166.491 346.085 166.057 345.748L156.997 338.713L157.943 334.279L154.826 337.026L151.41 334.374L161.324 323.62Z" fill="#2F2E41"/>
<path d="M210.287 227.662L206.28 232.962L195.614 279.297L171.372 311.99L179.521 319.803L210.442 289.85L225.616 257.847L233.293 287.407L231.344 326.982L244.338 326.334C247.86 280.407 253.369 233.151 246.88 219.88C242.603 223.605 237.609 226.421 232.205 228.153C226.801 229.886 221.1 230.499 215.45 229.956L210.287 227.662Z" fill="#2F2E41"/>
<path d="M231.735 155.473L241.986 166.666C244.236 169.123 245.662 172.219 246.066 175.524C246.249 177.024 246.219 178.543 245.975 180.035L243.765 196.202L247.664 220.856C247.664 220.856 242.108 224.24 231.42 231.236C227.059 234.092 206.706 234.046 206.731 233.183C206.846 229.185 210.428 218.411 211.279 205.285C212.33 189.085 210.952 169.749 214.528 160.52C218.893 149.253 231.735 155.473 231.735 155.473Z" fill="#8C0327"/>
<path d="M196.555 227.202C197.002 226.552 197.302 225.812 197.432 225.035C197.562 224.257 197.519 223.46 197.308 222.701C197.096 221.941 196.72 221.237 196.206 220.638C195.693 220.04 195.054 219.561 194.335 219.235L194.736 206.917L187.299 204.848L186.977 222.251C186.51 223.494 186.515 224.864 186.991 226.104C187.468 227.343 188.384 228.364 189.564 228.974C190.745 229.585 192.108 229.741 193.397 229.415C194.685 229.088 195.809 228.301 196.555 227.202Z" fill="#FFB6B6"/>
<path d="M186.635 177.478C186.855 176.904 187.191 176.382 187.623 175.945C188.055 175.507 188.574 175.164 189.145 174.937C193.103 173.277 210.216 159.313 210.847 159.576L216.279 156.898C216.48 156.9 221.831 157.027 224.457 159.999C225.003 160.627 225.406 161.365 225.639 162.163C225.872 162.961 225.929 163.8 225.807 164.622C225.038 171.701 200.779 187.603 198.208 187.496L195.484 207.596L196.544 215.275L186.623 215.557L183.566 204.25C183.127 203.426 182.573 187.807 186.635 177.478Z" fill="#8C0327"/>
<path d="M226.409 166.741C227.212 161.246 224.121 156.246 219.505 155.573C214.889 154.901 210.496 158.811 209.693 164.306C208.891 169.802 211.982 174.802 216.598 175.475C221.214 176.147 225.606 172.237 226.409 166.741Z" fill="#8C0327"/>
<path d="M151.835 202.673L151.584 201.4L211.929 187.768V189.066L151.835 202.673Z" fill="#3F3D56"/>
<path d="M418.982 110.986H395.838C390.846 110.986 386.799 115.027 386.799 120.012V120.012C386.799 124.997 390.846 129.039 395.838 129.039H418.982C423.975 129.039 428.022 124.997 428.022 120.012C428.022 115.027 423.975 110.986 418.982 110.986Z" fill="#E6E6E6"/>
<path d="M461.92 147.092H352.9C347.908 147.092 343.86 151.133 343.86 156.118V156.118C343.86 161.103 347.908 165.144 352.9 165.144H461.92C466.913 165.144 470.96 161.103 470.96 156.118C470.96 151.133 466.913 147.092 461.92 147.092Z" fill="#E6E6E6"/>
<path d="M415.14 174.114H306.12C301.128 174.114 297.08 178.156 297.08 183.141V183.141C297.08 188.126 301.128 192.167 306.12 192.167H415.14C420.133 192.167 424.18 188.126 424.18 183.141C424.18 178.156 420.133 174.114 415.14 174.114Z" fill="#8C0327"/>
<path d="M558.846 394.027C558.847 394.128 558.827 394.229 558.788 394.323C558.749 394.416 558.693 394.502 558.621 394.573C558.549 394.645 558.463 394.702 558.369 394.741C558.276 394.779 558.175 394.799 558.073 394.799L172.989 394.935L171.637 394.942L92.1633 394.968H90.8508L23.2017 394.994H21.8892L0.773233 395C0.568176 395 0.371514 394.919 0.226516 394.774C0.0815188 394.629 6.10352e-05 394.433 6.10352e-05 394.228C6.10352e-05 394.023 0.0815188 393.827 0.226516 393.682C0.371514 393.537 0.568176 393.456 0.773233 393.456L22.1101 393.449H23.4226L91.0523 393.423H92.3647L171.222 393.398H172.567L239.761 393.372H240.645L558.073 393.255C558.175 393.254 558.276 393.274 558.37 393.313C558.463 393.352 558.549 393.409 558.621 393.48C558.693 393.552 558.749 393.637 558.788 393.731C558.827 393.825 558.847 393.925 558.846 394.027Z" fill="#CACACA"/>
<path d="M242.583 144.295C240.643 146.867 237.884 148.704 234.76 149.502C231.635 150.299 228.332 150.011 225.393 148.683C222.455 147.356 220.057 145.069 218.595 142.199C217.132 139.329 216.692 136.047 217.346 132.894C218.001 129.741 219.712 126.904 222.196 124.851C224.681 122.799 227.792 121.652 231.017 121.601C234.241 121.549 237.387 122.596 239.936 124.568C242.486 126.54 244.286 129.321 245.042 132.451C245.083 132.621 245.117 132.79 245.151 132.966C245.549 134.928 245.527 136.952 245.084 138.905C244.642 140.858 243.789 142.695 242.583 144.295Z" fill="#FFB6B6"/>
<path d="M246.276 133.129C245.918 131.353 246.053 132.271 245.688 130.5C245.763 131.357 245.576 132.217 245.15 132.966L228.428 130.53L229.846 120.823C235.029 119.598 240.059 118.646 242.428 122.656C245.006 123.031 247.329 124.414 248.886 126.5C250.443 128.586 251.107 131.204 250.731 133.778L246.276 133.129Z" fill="#2F2E41"/>
<path d="M236.406 159.248C236.419 159.067 236.427 158.878 236.428 158.694C236.396 157.343 236.22 155.999 235.904 154.684C235.62 153.259 235.33 151.827 235.039 150.401C235.309 152.952 234.738 155.521 233.412 157.717C230.911 155.111 232.565 151.337 228.874 150.8C220.002 149.508 212.782 140.006 214.078 131.141C215.372 122.281 220.146 116.21 229.018 117.503C237.897 118.796 244.505 123.902 243.384 132.787C232.079 133.763 238.601 158.65 236.406 159.248Z" fill="#2F2E41"/>
<path d="M216.885 125.59C220.158 125.59 222.811 122.941 222.811 119.672C222.811 116.404 220.158 113.755 216.885 113.755C213.612 113.755 210.959 116.404 210.959 119.672C210.959 122.941 213.612 125.59 216.885 125.59Z" fill="#2F2E41"/>
<path d="M223.915 114.787C223.362 113.592 222.523 112.553 221.472 111.76C220.421 110.967 219.19 110.445 217.888 110.24C218.805 110.654 219.606 111.287 220.22 112.083C220.834 112.879 221.243 113.813 221.41 114.804C221.577 115.794 221.498 116.811 221.179 117.764C220.86 118.716 220.312 119.576 219.582 120.268L220.78 119.239C221.106 119.517 221.513 119.683 221.941 119.714C222.369 119.744 222.796 119.638 223.159 119.409C223.514 119.17 223.811 118.853 224.027 118.483C224.242 118.113 224.371 117.699 224.404 117.272C224.461 116.415 224.292 115.558 223.915 114.787Z" fill="#2F2E41"/>
<path d="M299.35 177.373C298.646 177.017 297.872 176.819 297.083 176.794C296.293 176.769 295.508 176.917 294.783 177.227C294.057 177.538 293.408 178.004 292.882 178.592C292.356 179.18 291.965 179.876 291.738 180.631L279.459 181.873L278.395 189.508L295.711 187.511C297.006 187.808 298.366 187.621 299.533 186.984C300.699 186.348 301.591 185.306 302.04 184.056C302.488 182.807 302.462 181.436 301.967 180.205C301.471 178.973 300.54 177.966 299.35 177.373Z" fill="#FFB6B6"/>
<path d="M251.316 193.806C250.717 193.665 250.154 193.402 249.663 193.032C249.171 192.663 248.762 192.196 248.46 191.66C246.286 187.964 230.149 172.886 230.326 172.227L226.945 167.206C226.921 167.008 226.334 161.695 228.936 158.701C229.486 158.077 230.165 157.58 230.926 157.243C231.687 156.906 232.512 156.738 233.344 156.75C240.473 156.569 258.396 179.098 258.632 181.657L280.033 181.042L287.514 178.971L289.113 188.752L278.297 193.282C277.537 193.826 262.109 196.452 251.316 193.806Z" fill="#8C0327"/>
</g>
<defs>
<clipPath id="clip0_6_1399">
<rect width="559" height="395" fill="white"/>
</clipPath>
</defs>
</svg>
